<?xml version="1.0" encoding="UTF-8"?>
<svg width="3.47in" height="2.8229in" version="1.1" viewBox="0 0 333.12 271" xmlns="http://www.w3.org/2000/svg" xmlns:cc="http://creativecommons.org/ns#" xmlns:dc="http://purl.org/dc/elements/1.1/" xmlns:rdf="http://www.w3.org/1999/02/22-rdf-syntax-ns#" xmlns:xlink="http://www.w3.org/1999/xlink"><metadata><rdf:RDF><cc:Work rdf:about=""><dc:format>image/svg+xml</dc:format><dc:type rdf:resource="http://purl.org/dc/dcmitype/StillImage"/><dc:title/></cc:Work></rdf:RDF></metadata><g transform="translate(-16.498 -65.457)"><g transform="matrix(3.7795 0 0 3.7795 -188.28 -132.89)"><path d="m102.58 52.612c-0.7329 0-1.3229 0.59002-1.3229 1.3229v43.656h39.952v-43.656c0-0.73289-0.59001-1.3229-1.3229-1.3229z" fill="#515457" stroke="#222" stroke-width=".26458"/><path d="m101.39 57.262h39.688v40.198h-39.688z" fill="#3c3f43"/><path d="m141.08 57.11h-39.687" fill="none" stroke="#333" stroke-width=".26458px"/><g fill="#888" stroke-width=".26458" style="font-feature-settings:normal;font-variant-caps:normal;font-variant-ligatures:normal;font-variant-numeric:normal" aria-label="Output"><path d="m131.57 59.686q0 0.30227-0.1017 0.52827-0.1017 0.22459-0.28815 0.34324t-0.43505 0.11865q-0.24294 0-0.4308-0.11865-0.18787-0.12006-0.29239-0.34041-0.10311-0.22176-0.10594-0.51273v-0.14831q0-0.29662 0.10311-0.52403 0.10312-0.22741 0.29098-0.34747 0.18927-0.12147 0.43222-0.12147 0.24719 0 0.43505 0.12006 0.18927 0.11865 0.29097 0.34606 0.1017 0.226 0.1017 0.52686zm-0.26979-0.13277q0-0.36584-0.1469-0.56076-0.14689-0.19634-0.41103-0.19634-0.25707 0-0.40539 0.19634-0.14689 0.19492-0.15113 0.5424v0.15114q0 0.35454 0.14831 0.55793 0.14972 0.20199 0.41103 0.20199 0.26273 0 0.4068-0.19069 0.14408-0.1921 0.14831-0.54946z" style="font-feature-settings:normal;font-variant-caps:normal;font-variant-ligatures:normal;font-variant-numeric:normal"/><path d="m132.88 60.497q-0.15255 0.17939-0.44776 0.17939-0.24436 0-0.3729-0.14125-0.12712-0.14266-0.12854-0.42092v-0.99439h0.26131v0.98733q0 0.34747 0.2825 0.34747 0.29945 0 0.39832-0.22317v-1.1116h0.26132v1.5283h-0.2486z" style="font-feature-settings:normal;font-variant-caps:normal;font-variant-ligatures:normal;font-variant-numeric:normal"/><path d="m133.89 58.749v0.37007h0.28532v0.20199h-0.28532v0.94778q0 0.09181 0.0381 0.13842 0.0381 0.0452 0.12995 0.0452 0.0452 0 0.1243-0.01695v0.21187q-0.10312 0.02825-0.20058 0.02825-0.17515 0-0.26413-0.10594-0.089-0.10594-0.089-0.30086v-0.94778h-0.27826v-0.20199h0.27826v-0.37007z" style="font-feature-settings:normal;font-variant-caps:normal;font-variant-ligatures:normal;font-variant-numeric:normal"/><path d="m135.77 59.901q0 0.34888-0.15961 0.56217-0.15962 0.21329-0.43223 0.21329-0.27826 0-0.43787-0.17656v0.73591h-0.26131v-2.1159h0.23871l0.0127 0.1695q0.15962-0.19775 0.44353-0.19775 0.27543 0 0.43504 0.20764 0.16103 0.20764 0.16103 0.57771zm-0.26131-0.02966q0-0.25849-0.11018-0.40821-0.11017-0.14972-0.30227-0.14972-0.2373 0-0.35595 0.21046v0.73026q0.11724 0.20905 0.35877 0.20905 0.18787 0 0.29804-0.14831 0.11159-0.14972 0.11159-0.44352z" style="font-feature-settings:normal;font-variant-caps:normal;font-variant-ligatures:normal;font-variant-numeric:normal"/><path d="m137.05 60.497q-0.15255 0.17939-0.44776 0.17939-0.24436 0-0.3729-0.14125-0.12712-0.14266-0.12854-0.42092v-0.99439h0.26131v0.98733q0 0.34747 0.2825 0.34747 0.29945 0 0.39832-0.22317v-1.1116h0.26131v1.5283h-0.24859z" style="font-feature-settings:normal;font-variant-caps:normal;font-variant-ligatures:normal;font-variant-numeric:normal"/><path d="m138.05 58.749v0.37007h0.28532v0.20199h-0.28532v0.94778q0 0.09181 0.0381 0.13842 0.0381 0.0452 0.12995 0.0452 0.0452 0 0.12429-0.01695v0.21187q-0.10311 0.02825-0.20057 0.02825-0.17515 0-0.26413-0.10594-0.089-0.10594-0.089-0.30086v-0.94778h-0.27826v-0.20199h0.27826v-0.37007z" style="font-feature-settings:normal;font-variant-caps:normal;font-variant-ligatures:normal;font-variant-numeric:normal"/></g><path d="m140.02 59.624 1.0583 1.0583 1.0583-1.0583-1.0583-1.0583z" fill="#bbb" stroke="#222" stroke-width=".26458"/><g fill="#ddd" stroke-width=".26458" style="font-feature-settings:normal;font-variant-caps:normal;font-variant-ligatures:normal;font-variant-numeric:normal" aria-label="Color matrix"><path d="m115.2 54.969q-0.0381 0.32628-0.24154 0.50426-0.20199 0.17656-0.53816 0.17656-0.36442 0-0.58477-0.26131-0.21894-0.26131-0.21894-0.69918v-0.19775q0-0.28674 0.1017-0.50426 0.10312-0.21752 0.29098-0.33335 0.18786-0.11724 0.43504-0.11724 0.3277 0 0.52545 0.18362 0.19775 0.18221 0.23024 0.50567h-0.27261q-0.0353-0.24577-0.15397-0.35595-0.11723-0.11017-0.32911-0.11017-0.25989 0-0.40821 0.1921-0.1469 0.1921-0.1469 0.54663v0.19916q0 0.33476 0.13984 0.53251 0.13984 0.19775 0.39126 0.19775 0.226 0 0.34606-0.1017 0.12148-0.10311 0.16103-0.35736z" style="font-feature-settings:normal;font-variant-caps:normal;font-variant-ligatures:normal;font-variant-numeric:normal"/><path d="m115.46 54.843q0-0.22459 0.0876-0.40397 0.089-0.17939 0.24577-0.27685 0.1582-0.09746 0.36019-0.09746 0.31216 0 0.50426 0.21611 0.19351 0.21611 0.19351 0.57488v0.01836q0 0.22317-0.0862 0.40115-0.0847 0.17656-0.24437 0.27544-0.15819 0.09887-0.36442 0.09887-0.31075 0-0.50426-0.21611-0.1921-0.21611-0.1921-0.57206zm0.26273 0.03108q0 0.25425 0.11723 0.40821 0.11865 0.15396 0.3164 0.15396 0.19916 0 0.3164-0.15537 0.11724-0.15679 0.11724-0.43787 0-0.25142-0.12007-0.4068-0.11864-0.15679-0.31639-0.15679-0.19351 0-0.31216 0.15396-0.11865 0.15396-0.11865 0.4407z" style="font-feature-settings:normal;font-variant-caps:normal;font-variant-ligatures:normal;font-variant-numeric:normal"/><path d="m117.46 55.621h-0.26132v-2.1696h0.26132z" style="font-feature-settings:normal;font-variant-caps:normal;font-variant-ligatures:normal;font-variant-numeric:normal"/><path d="m117.81 54.843q0-0.22459 0.0876-0.40397 0.089-0.17939 0.24578-0.27685 0.1582-0.09746 0.36018-0.09746 0.31216 0 0.50426 0.21611 0.19351 0.21611 0.19351 0.57488v0.01836q0 0.22317-0.0862 0.40115-0.0847 0.17656-0.24436 0.27544-0.1582 0.09887-0.36442 0.09887-0.31075 0-0.50426-0.21611-0.1921-0.21611-0.1921-0.57206zm0.26272 0.03108q0 0.25425 0.11724 0.40821 0.11865 0.15396 0.3164 0.15396 0.19916 0 0.3164-0.15537 0.11723-0.15679 0.11723-0.43787 0-0.25142-0.12006-0.4068-0.11865-0.15679-0.3164-0.15679-0.19351 0-0.31216 0.15396-0.11865 0.15396-0.11865 0.4407z" style="font-feature-settings:normal;font-variant-caps:normal;font-variant-ligatures:normal;font-variant-numeric:normal"/><path d="m120.27 54.327q-0.0593-0.0099-0.12853-0.0099-0.25708 0-0.34889 0.21894v1.0848h-0.26131v-1.5283h0.25425l4e-3 0.17656q0.12853-0.20481 0.36442-0.20481 0.0763 0 0.11582 0.01977z" style="font-feature-settings:normal;font-variant-caps:normal;font-variant-ligatures:normal;font-variant-numeric:normal"/><path d="m121.47 54.093 7e-3 0.1695q0.16808-0.19775 0.4534-0.19775 0.32064 0 0.43646 0.24577 0.0763-0.11017 0.19775-0.17797 0.12289-0.0678 0.28956-0.0678 0.50285 0 0.51132 0.53251v1.0241h-0.26131v-1.0085q0-0.16385-0.0749-0.24436-0.0749-0.08192-0.25142-0.08192-0.14549 0-0.24154 0.08757-0.0961 0.08616-0.11158 0.23306v1.0142h-0.26273v-1.0015q0-0.33335-0.32628-0.33335-0.25708 0-0.35171 0.21894v1.1159h-0.2612v-1.5283z" style="font-feature-settings:normal;font-variant-caps:normal;font-variant-ligatures:normal;font-variant-numeric:normal"/><path d="m124.7 55.621q-0.0226-0.0452-0.0367-0.16102-0.18221 0.18927-0.43505 0.18927-0.226 0-0.37148-0.12712-0.14408-0.12854-0.14408-0.32487 0-0.23871 0.1808-0.37007 0.18221-0.13278 0.51132-0.13278h0.25425v-0.12006q0-0.13701-0.0819-0.21752-0.0819-0.08192-0.24154-0.08192-0.13984 0-0.23447 0.07062-0.0946 0.07062-0.0946 0.17091h-0.26272q0-0.11441 0.0805-0.22035 0.0819-0.10735 0.22035-0.1695 0.13983-0.06215 0.30651-0.06215 0.26413 0 0.41386 0.13277 0.14972 0.13136 0.15537 0.36301v0.70342q0 0.21046 0.0537 0.33476v0.0226zm-0.43363-0.19916q0.12288 0 0.23306-0.06356 0.11017-0.06356 0.15961-0.16526v-0.31357h-0.20481q-0.48025 0-0.48025 0.28108 0 0.12289 0.0819 0.1921 0.0819 0.06921 0.21046 0.06921z" style="font-feature-settings:normal;font-variant-caps:normal;font-variant-ligatures:normal;font-variant-numeric:normal"/><path d="m125.69 53.723v0.37007h0.28532v0.20199h-0.28532v0.94778q0 0.09181 0.0381 0.13842 0.0381 0.0452 0.12994 0.0452 0.0452 0 0.1243-0.01695v0.21187q-0.10311 0.02825-0.20057 0.02825-0.17515 0-0.26414-0.10594-0.089-0.10594-0.089-0.30086v-0.94778h-0.27826v-0.20199h0.27826v-0.37007z" style="font-feature-settings:normal;font-variant-caps:normal;font-variant-ligatures:normal;font-variant-numeric:normal"/><path d="m127.02 54.327q-0.0593-0.0099-0.12853-0.0099-0.25708 0-0.34889 0.21894v1.0848h-0.26131v-1.5283h0.25425l4e-3 0.17656q0.12853-0.20481 0.36442-0.20481 0.0763 0 0.11582 0.01977z" style="font-feature-settings:normal;font-variant-caps:normal;font-variant-ligatures:normal;font-variant-numeric:normal"/><path d="m127.54 55.621h-0.26132v-1.5283h0.26132zm-0.2825-1.9337q0-0.06356 0.0381-0.10735 0.0395-0.04379 0.11583-0.04379 0.0763 0 0.11582 0.04379 0.0396 0.04379 0.0396 0.10735 0 0.06356-0.0396 0.10594-0.0395 0.04237-0.11582 0.04237-0.0763 0-0.11583-0.04237-0.0381-0.04237-0.0381-0.10594z" style="font-feature-settings:normal;font-variant-caps:normal;font-variant-ligatures:normal;font-variant-numeric:normal"/><path d="m128.47 54.651 0.33899-0.55793h0.3051l-0.50002 0.75568 0.51556 0.77263h-0.30227l-0.35313-0.57206-0.35312 0.57206h-0.30368l0.51556-0.77263-0.50003-0.75568h0.30228z" style="font-feature-settings:normal;font-variant-caps:normal;font-variant-ligatures:normal;font-variant-numeric:normal"/></g><path d="m100.59 59.624 1.0583 1.0583 1.0583-1.0583-1.0583-1.0583z" fill="#bbb" stroke="#222" stroke-width=".26458"/><g stroke-width=".26458"><g fill="#888" style="font-feature-settings:normal;font-variant-caps:normal;font-variant-ligatures:normal;font-variant-numeric:normal" aria-label="Input"><path d="m104.57 60.634h-0.2712v-2.0566h0.2712z" style="font-feature-settings:normal;font-variant-caps:normal;font-variant-ligatures:normal;font-variant-numeric:normal"/><path d="m105.27 59.105 8e-3 0.1921q0.17515-0.22035 0.45765-0.22035 0.48448 0 0.48872 0.54663v1.0099h-0.26131v-1.0113q-1e-3 -0.16526-0.0763-0.24436-0.0735-0.0791-0.23023-0.0791-0.12713 0-0.22318 0.0678-0.0961 0.0678-0.14972 0.17797v1.089h-0.26131v-1.5283z" style="font-feature-settings:normal;font-variant-caps:normal;font-variant-ligatures:normal;font-variant-numeric:normal"/><path d="m107.91 59.887q0 0.34889-0.15961 0.56217t-0.43222 0.21329q-0.27826 0-0.43788-0.17656v0.73591h-0.26131v-2.1159h0.23871l0.0127 0.1695q0.15961-0.19775 0.44352-0.19775 0.27543 0 0.43505 0.20764 0.16102 0.20764 0.16102 0.57771zm-0.26131-0.02966q0-0.25849-0.11018-0.40821-0.11017-0.14972-0.30227-0.14972-0.2373 0-0.35595 0.21046v0.73026q0.11724 0.20905 0.35878 0.20905 0.18786 0 0.29803-0.14831 0.11159-0.14972 0.11159-0.44352z" style="font-feature-settings:normal;font-variant-caps:normal;font-variant-ligatures:normal;font-variant-numeric:normal"/><path d="m109.19 60.483q-0.15255 0.17939-0.44776 0.17939-0.24436 0-0.3729-0.14125-0.12712-0.14266-0.12854-0.42092v-0.99439h0.26132v0.98733q0 0.34747 0.28249 0.34747 0.29945 0 0.39833-0.22317v-1.1116h0.26131v1.5283h-0.2486z" style="font-feature-settings:normal;font-variant-caps:normal;font-variant-ligatures:normal;font-variant-numeric:normal"/><path d="m110.19 58.735v0.37007h0.28532v0.20199h-0.28532v0.94778q0 0.09181 0.0381 0.13842 0.0381 0.0452 0.12995 0.0452 0.0452 0 0.1243-0.01695v0.21187q-0.10312 0.02825-0.20058 0.02825-0.17515 0-0.26413-0.10594-0.089-0.10594-0.089-0.30086v-0.94778h-0.27826v-0.20199h0.27826v-0.37007z" style="font-feature-settings:normal;font-variant-caps:normal;font-variant-ligatures:normal;font-variant-numeric:normal"/></g><path d="m102.84 62.931h36.777v5.2917h-36.777z" fill="#3b3b3b" stroke="#333"/><g fill="#888" style="font-variant-caps:normal;font-variant-ligatures:normal;font-variant-numeric:normal" aria-label="type:"><path d="m104.32 64.543v0.37007h0.28532v0.20199h-0.28532v0.94778q0 0.09181 0.0381 0.13842 0.0381 0.0452 0.12995 0.0452 0.0452 0 0.1243-0.01695v0.21187q-0.10311 0.02825-0.20057 0.02825-0.17515 0-0.26414-0.10594-0.089-0.10594-0.089-0.30086v-0.94778h-0.27826v-0.20199h0.27826v-0.37007z"/><path d="m105.41 66.059 0.35595-1.1455h0.27967l-0.61443 1.7642q-0.14267 0.38137-0.45341 0.38137l-0.0494-0.0042-0.0975-0.01836v-0.21187l0.0706 0.0057q0.13278 0 0.20622-0.05367 0.0749-0.05367 0.12289-0.19634l0.0579-0.15537-0.54522-1.5114h0.28533z"/><path d="m107.57 65.694q0 0.34888-0.15962 0.56217-0.15961 0.21329-0.43222 0.21329-0.27826 0-0.43787-0.17656v0.73591h-0.26131v-2.1159h0.23871l0.0127 0.1695q0.15961-0.19775 0.44352-0.19775 0.27544 0 0.43505 0.20764 0.16103 0.20764 0.16103 0.57771zm-0.26132-0.02966q0-0.25849-0.11017-0.40821t-0.30227-0.14972q-0.2373 0-0.35595 0.21046v0.73026q0.11724 0.20905 0.35877 0.20905 0.18786 0 0.29804-0.14831 0.11158-0.14972 0.11158-0.44352z"/><path d="m108.54 66.47q-0.31075 0-0.50567-0.2034-0.19493-0.20481-0.19493-0.54663v-0.04802q0-0.22741 0.0862-0.40538 0.0876-0.17939 0.24294-0.27967 0.15679-0.1017 0.339-0.1017 0.29804 0 0.4633 0.19634t0.16526 0.56217v0.10876h-1.0354q6e-3 0.226 0.13137 0.36584 0.12712 0.13842 0.32204 0.13842 0.13843 0 0.23448-0.0565 0.096-0.0565 0.16808-0.14972l0.15961 0.1243q-0.19209 0.29521-0.57629 0.29521zm-0.0325-1.3701q-0.1582 0-0.26555 0.11582-0.10735 0.11441-0.13277 0.32205h0.76557v-0.01977q-0.0113-0.19916-0.10735-0.30792-0.0961-0.11018-0.2599-0.11018z"/><path d="m109.43 66.304q0-0.0678 0.0396-0.113 0.041-0.0452 0.12147-0.0452 0.0805 0 0.12148 0.0452 0.0424 0.0452 0.0424 0.113 0 0.06497-0.0424 0.10876-0.041 0.04379-0.12148 0.04379-0.0805 0-0.12147-0.04379-0.0396-0.04379-0.0396-0.10876zm1e-3 -1.2472q0-0.0678 0.0395-0.113 0.041-0.0452 0.12147-0.0452 0.0805 0 0.12148 0.0452 0.0424 0.0452 0.0424 0.113 0 0.06497-0.0424 0.10876-0.041 0.04379-0.12148 0.04379-0.0805 0-0.12147-0.04379-0.0395-0.04379-0.0395-0.10876z"/></g><g fill="#ddd" style="font-variant-caps:normal;font-variant-ligatures:normal;font-variant-numeric:normal" aria-label="matrix"><path d="m111.14 64.915 7e-3 0.1695q0.16808-0.19775 0.45341-0.19775 0.32063 0 0.43645 0.24577 0.0763-0.11017 0.19775-0.17797 0.12289-0.0678 0.28956-0.0678 0.50285 0 0.51133 0.53251v1.0241h-0.26132v-1.0085q0-0.16385-0.0749-0.24436-0.0749-0.08192-0.25142-0.08192-0.14549 0-0.24154 0.08757-0.0961 0.08616-0.11158 0.23306v1.0142h-0.26273v-1.0015q0-0.33335-0.32628-0.33335-0.25707 0-0.35171 0.21894v1.1159h-0.26131v-1.5283z"/><path d="m114.37 66.444q-0.0226-0.0452-0.0367-0.16102-0.18221 0.18927-0.43505 0.18927-0.226 0-0.37148-0.12712-0.14408-0.12854-0.14408-0.32487 0-0.23871 0.1808-0.37007 0.18221-0.13278 0.51132-0.13278h0.25425v-0.12006q0-0.13701-0.0819-0.21752-0.0819-0.08192-0.24154-0.08192-0.13984 0-0.23447 0.07062-0.0946 0.07062-0.0946 0.17091h-0.26272q0-0.11441 0.0805-0.22035 0.0819-0.10735 0.22035-0.1695 0.13983-0.06215 0.30651-0.06215 0.26413 0 0.41386 0.13277 0.14972 0.13136 0.15537 0.36301v0.70342q0 0.21046 0.0537 0.33476v0.0226zm-0.43363-0.19916q0.12289 0 0.23306-0.06356t0.15961-0.16526v-0.31357h-0.20481q-0.48025 0-0.48025 0.28108 0 0.12289 0.0819 0.1921 0.0819 0.06921 0.21046 0.06921z"/><path d="m115.35 64.545v0.37007h0.28532v0.20199h-0.28532v0.94778q0 0.09181 0.0381 0.13842 0.0381 0.0452 0.12995 0.0452 0.0452 0 0.12429-0.01695v0.21187q-0.10311 0.02825-0.20057 0.02825-0.17515 0-0.26413-0.10594-0.089-0.10594-0.089-0.30086v-0.94778h-0.27826v-0.20199h0.27826v-0.37007z"/><path d="m116.68 65.15q-0.0593-0.0099-0.12853-0.0099-0.25708 0-0.34889 0.21894v1.0848h-0.26131v-1.5283h0.25425l4e-3 0.17656q0.12853-0.20481 0.36442-0.20481 0.0763 0 0.11582 0.01977z"/><path d="m117.21 66.444h-0.26131v-1.5283h0.26131zm-0.2825-1.9337q0-0.06356 0.0381-0.10735 0.0396-0.04379 0.11582-0.04379 0.0763 0 0.11582 0.04379 0.0396 0.04379 0.0396 0.10735 0 0.06356-0.0396 0.10594-0.0395 0.04237-0.11582 0.04237-0.0763 0-0.11582-0.04237-0.0381-0.04238-0.0381-0.10594z"/><path d="m118.14 65.473 0.339-0.55793h0.30509l-0.50002 0.75568 0.51556 0.77263h-0.30227l-0.35312-0.57206-0.35313 0.57206h-0.30368l0.51556-0.77263-0.50003-0.75568h0.30228z"/></g></g><path d="m136.05 64.916 1.0583 1.3229 1.0583-1.3229" fill="none" stroke="#aaa" stroke-width=".3175"/><g fill="#888" stroke-width=".26458" style="font-variant-caps:normal;font-variant-ligatures:normal;font-variant-numeric:normal" aria-label="Preview"><path d="m107.99 93.955v0.80512h-0.2712v-2.0566h0.75851q0.33758 0 0.52827 0.17232 0.1921 0.17232 0.1921 0.45623 0 0.29945-0.18787 0.46188-0.18644 0.16102-0.53533 0.16102zm0-0.22176h0.48731q0.21752 0 0.33334-0.1017 0.11583-0.10311 0.11583-0.29662 0-0.18362-0.11583-0.2938-0.11582-0.11017-0.31781-0.11441h-0.50284z"/><path d="m110.24 93.466q-0.0593-0.0099-0.12854-0.0099-0.25707 0-0.34889 0.21894v1.0848h-0.26131v-1.5283h0.25425l4e-3 0.17656q0.12854-0.20481 0.36442-0.20481 0.0763 0 0.11583 0.01977z"/><path d="m111.08 94.788q-0.31075 0-0.50567-0.2034-0.19492-0.20481-0.19492-0.54663v-0.04802q0-0.22741 0.0862-0.40538 0.0876-0.17939 0.24295-0.27967 0.15678-0.1017 0.33899-0.1017 0.29804 0 0.4633 0.19634t0.16526 0.56217v0.10876h-1.0354q6e-3 0.226 0.13136 0.36584 0.12712 0.13842 0.32205 0.13842 0.13842 0 0.23447-0.0565 0.0961-0.0565 0.16809-0.14972l0.15961 0.1243q-0.1921 0.29521-0.5763 0.29521zm-0.0325-1.3701q-0.1582 0-0.26554 0.11582-0.10735 0.11441-0.13278 0.32205h0.76557v-0.01978q-0.0113-0.19916-0.10735-0.30792-0.0961-0.11017-0.2599-0.11017z"/><path d="m112.47 94.406 0.37855-1.1738h0.26696l-0.54805 1.5283h-0.19916l-0.55369-1.5283h0.26696z"/><path d="m113.65 94.76h-0.26131v-1.5283h0.26131zm-0.28249-1.9337q0-0.06356 0.0381-0.10735 0.0396-0.04379 0.11583-0.04379 0.0763 0 0.11582 0.04379 0.0396 0.04379 0.0396 0.10735t-0.0396 0.10594q-0.0395 0.04238-0.11582 0.04238-0.0763 0-0.11583-0.04238-0.0381-0.04237-0.0381-0.10594z"/><path d="m114.7 94.788q-0.31075 0-0.50567-0.2034-0.19493-0.20481-0.19493-0.54663v-0.04802q0-0.22741 0.0862-0.40538 0.0876-0.17939 0.24295-0.27967 0.15679-0.1017 0.339-0.1017 0.29804 0 0.4633 0.19634t0.16526 0.56217v0.10876h-1.0354q6e-3 0.226 0.13137 0.36584 0.12712 0.13842 0.32204 0.13842 0.13843 0 0.23448-0.0565 0.0961-0.0565 0.16808-0.14972l0.15961 0.1243q-0.19209 0.29521-0.57629 0.29521zm-0.0325-1.3701q-0.1582 0-0.26555 0.11582-0.10735 0.11441-0.13277 0.32205h0.76557v-0.01978q-0.0113-0.19916-0.10735-0.30792-0.0961-0.11017-0.2599-0.11017z"/><path d="m116.95 94.4 0.2938-1.1681h0.26131l-0.44494 1.5283h-0.21187l-0.37149-1.1582-0.36159 1.1582h-0.21188l-0.44352-1.5283h0.2599l0.30086 1.1441 0.35595-1.1441h0.21046z"/></g><path d="m104.3 94.549 1.0583-1.0583-1.0583-1.0583" fill="none" stroke="#888" stroke-width=".3175"/><g><path d="m102.84 69.546h6.35v4.2333h-6.35z" fill="#393939" stroke="#333" stroke-width=".26458"/><g fill="#c9c9c9" style="font-variant-caps:normal;font-variant-ligatures:normal;font-variant-numeric:normal" aria-label="1"><path d="m104.79 72.569h-0.25632v-1.6991l-0.51401 0.18879v-0.23151l0.73036-0.27423h0.04z" fill="#c9c9c9" stroke-width=".26458"/></g><path d="m110.51 69.546h6.35v4.2333h-6.35z" fill="#393939" stroke="#333" stroke-width=".26458"/><g fill="#c9c9c9" style="font-variant-caps:normal;font-variant-ligatures:normal;font-variant-numeric:normal" aria-label="0"><path d="m112.89 71.713q0 0.44786-0.15296 0.66559t-0.47818 0.21773q-0.32108 0-0.47542-0.21222-0.15434-0.2136-0.15985-0.63665v-0.34038q0-0.44235 0.15296-0.65732t0.47956-0.21497q0.32383 0 0.4768 0.20808 0.15296 0.2067 0.15709 0.63941zm-0.25493-0.34864q0-0.32384-0.091-0.47129-0.0909-0.14883-0.28801-0.14883-0.19569 0-0.28526 0.14745-0.0896 0.14745-0.0923 0.45337v0.4079q0 0.32522 0.0937 0.48094 0.0951 0.15434 0.28663 0.15434 0.18879 0 0.27974-0.14607 0.0923-0.14607 0.0965-0.46026z" fill="#c9c9c9" stroke-width=".26458"/></g><path d="m118.19 69.546h6.0854v4.2333h-6.0854z" fill="#393939" stroke="#333" stroke-width=".26458"/><g fill="#c9c9c9" style="font-variant-caps:normal;font-variant-ligatures:normal;font-variant-numeric:normal" aria-label="0"><path d="m120.56 71.713q0 0.44786-0.15296 0.66559t-0.47818 0.21773q-0.32108 0-0.47542-0.21222-0.15434-0.2136-0.15985-0.63665v-0.34038q0-0.44235 0.15296-0.65732t0.47956-0.21497q0.32384 0 0.4768 0.20808 0.15296 0.2067 0.15709 0.63941zm-0.25493-0.34864q0-0.32384-0.091-0.47129-0.0909-0.14883-0.28801-0.14883-0.19568 0-0.28526 0.14745-0.0896 0.14745-0.0923 0.45337v0.4079q0 0.32522 0.0937 0.48094 0.0951 0.15434 0.28663 0.15434 0.18879 0 0.27974-0.14607 0.0923-0.14607 0.0965-0.46026z" fill="#c9c9c9" stroke-width=".26458"/></g><path d="m125.6 69.546h6.35v4.2333h-6.35z" fill="#393939" stroke="#333" stroke-width=".26458"/><g fill="#c9c9c9" style="font-variant-caps:normal;font-variant-ligatures:normal;font-variant-numeric:normal" aria-label="0"><path d="m127.97 71.713q0 0.44786-0.15296 0.66559-0.15297 0.21773-0.47818 0.21773-0.32109 0-0.47543-0.21222-0.15434-0.2136-0.15985-0.63665v-0.34038q0-0.44235 0.15296-0.65732 0.15297-0.21497 0.47956-0.21497 0.32384 0 0.4768 0.20808 0.15296 0.2067 0.1571 0.63941zm-0.25494-0.34864q0-0.32384-0.0909-0.47129-0.091-0.14883-0.28801-0.14883-0.19568 0-0.28525 0.14745-0.0896 0.14745-0.0923 0.45337v0.4079q0 0.32522 0.0937 0.48094 0.0951 0.15434 0.28663 0.15434 0.18879 0 0.27974-0.14607 0.0923-0.14607 0.0965-0.46026z" fill="#c9c9c9" stroke-width=".26458"/></g><path d="m133.27 69.546h6.35v4.2333h-6.35z" fill="#393939" stroke="#333" stroke-width=".26458"/><g fill="#c9c9c9" style="font-variant-caps:normal;font-variant-ligatures:normal;font-variant-numeric:normal" aria-label="0"><path d="m135.64 71.713q0 0.44786-0.15296 0.66559t-0.47818 0.21773q-0.32108 0-0.47542-0.21222-0.15434-0.2136-0.15985-0.63665v-0.34038q0-0.44235 0.15296-0.65732t0.47955-0.21497q0.32384 0 0.4768 0.20808 0.15297 0.2067 0.1571 0.63941zm-0.25494-0.34864q0-0.32384-0.0909-0.47129-0.0909-0.14883-0.28801-0.14883-0.19568 0-0.28525 0.14745-0.0896 0.14745-0.0923 0.45337v0.4079q0 0.32522 0.0937 0.48094 0.0951 0.15434 0.28663 0.15434 0.18879 0 0.27974-0.14607 0.0923-0.14607 0.0965-0.46026z" fill="#c9c9c9" stroke-width=".26458"/></g><path d="m102.84 75.102h6.35v4.2333h-6.35z" fill="#393939" stroke="#333" stroke-width=".26458"/><g fill="#c9c9c9" style="font-variant-caps:normal;font-variant-ligatures:normal;font-variant-numeric:normal" aria-label="0"><path d="m105.21 77.269q0 0.44786-0.15296 0.66559-0.15297 0.21773-0.47818 0.21773-0.32109 0-0.47543-0.21222-0.15434-0.2136-0.15985-0.63665v-0.34038q0-0.44235 0.15296-0.65732 0.15297-0.21497 0.47956-0.21497 0.32384 0 0.4768 0.20808 0.15296 0.2067 0.1571 0.63941zm-0.25494-0.34864q0-0.32384-0.091-0.47129-0.0909-0.14883-0.28801-0.14883-0.19568 0-0.28525 0.14745-0.0896 0.14745-0.0923 0.45337v0.4079q0 0.32522 0.0937 0.48094 0.0951 0.15434 0.28664 0.15434 0.18879 0 0.27974-0.14607 0.0923-0.14607 0.0965-0.46026z" fill="#c9c9c9" stroke-width=".26458"/></g><path d="m110.51 75.102h6.35v4.2333h-6.35z" fill="#393939" stroke="#333" stroke-width=".26458"/><g fill="#c9c9c9" style="font-variant-caps:normal;font-variant-ligatures:normal;font-variant-numeric:normal" aria-label="1"><path d="m112.47 78.125h-0.25631v-1.6991l-0.51401 0.18879v-0.23151l0.73036-0.27423h0.04z" fill="#c9c9c9" stroke-width=".26458"/></g><path d="m118.19 75.102h6.0854v4.2333h-6.0854z" fill="#393939" stroke="#333" stroke-width=".26458"/><g fill="#c9c9c9" style="font-variant-caps:normal;font-variant-ligatures:normal;font-variant-numeric:normal" aria-label="0"><path d="m120.56 77.269q0 0.44786-0.15296 0.66559t-0.47818 0.21773q-0.32108 0-0.47542-0.21222-0.15434-0.2136-0.15985-0.63665v-0.34038q0-0.44235 0.15296-0.65732t0.47956-0.21497q0.32384 0 0.4768 0.20808 0.15296 0.2067 0.15709 0.63941zm-0.25493-0.34864q0-0.32384-0.091-0.47129-0.0909-0.14883-0.28801-0.14883-0.19568 0-0.28526 0.14745-0.0896 0.14745-0.0923 0.45337v0.4079q0 0.32522 0.0937 0.48094 0.0951 0.15434 0.28663 0.15434 0.18879 0 0.27974-0.14607 0.0923-0.14607 0.0965-0.46026z" fill="#c9c9c9" stroke-width=".26458"/></g><path d="m125.6 75.102h6.35v4.2333h-6.35z" fill="#393939" stroke="#333" stroke-width=".26458"/><g fill="#c9c9c9" style="font-variant-caps:normal;font-variant-ligatures:normal;font-variant-numeric:normal" aria-label="0"><path d="m127.97 77.269q0 0.44786-0.15296 0.66559-0.15297 0.21773-0.47818 0.21773-0.32109 0-0.47543-0.21222-0.15434-0.2136-0.15985-0.63665v-0.34038q0-0.44235 0.15296-0.65732 0.15297-0.21497 0.47956-0.21497 0.32384 0 0.4768 0.20808 0.15296 0.2067 0.1571 0.63941zm-0.25494-0.34864q0-0.32384-0.0909-0.47129-0.091-0.14883-0.28801-0.14883-0.19568 0-0.28525 0.14745-0.0896 0.14745-0.0923 0.45337v0.4079q0 0.32522 0.0937 0.48094 0.0951 0.15434 0.28663 0.15434 0.18879 0 0.27974-0.14607 0.0923-0.14607 0.0965-0.46026z" fill="#c9c9c9" stroke-width=".26458"/></g><path d="m133.27 75.102h6.35v4.2333h-6.35z" fill="#393939" stroke="#333" stroke-width=".26458"/><g fill="#c9c9c9" style="font-variant-caps:normal;font-variant-ligatures:normal;font-variant-numeric:normal" aria-label="0"><path d="m135.64 77.269q0 0.44786-0.15296 0.66559t-0.47818 0.21773q-0.32108 0-0.47542-0.21222-0.15434-0.2136-0.15985-0.63665v-0.34038q0-0.44235 0.15296-0.65732t0.47955-0.21497q0.32384 0 0.4768 0.20808 0.15297 0.2067 0.1571 0.63941zm-0.25494-0.34864q0-0.32384-0.0909-0.47129-0.0909-0.14883-0.28801-0.14883-0.19568 0-0.28525 0.14745-0.0896 0.14745-0.0923 0.45337v0.4079q0 0.32522 0.0937 0.48094 0.0951 0.15434 0.28663 0.15434 0.18879 0 0.27974-0.14607 0.0923-0.14607 0.0965-0.46026z" fill="#c9c9c9" stroke-width=".26458"/></g><path d="m102.84 80.658h6.35v4.2333h-6.35z" fill="#393939" stroke="#333" stroke-width=".26458"/><g fill="#c9c9c9" style="font-variant-caps:normal;font-variant-ligatures:normal;font-variant-numeric:normal" aria-label="0"><path d="m105.21 82.826q0 0.44786-0.15296 0.66559-0.15297 0.21773-0.47818 0.21773-0.32109 0-0.47543-0.21222-0.15434-0.2136-0.15985-0.63665v-0.34038q0-0.44235 0.15296-0.65732 0.15297-0.21497 0.47956-0.21497 0.32384 0 0.4768 0.20808 0.15296 0.20671 0.1571 0.63941zm-0.25494-0.34864q0-0.32384-0.091-0.47129-0.0909-0.14883-0.28801-0.14883-0.19568 0-0.28525 0.14745-0.0896 0.14745-0.0923 0.45337v0.4079q0 0.32522 0.0937 0.48094 0.0951 0.15434 0.28664 0.15434 0.18879 0 0.27974-0.14607 0.0923-0.14607 0.0965-0.46026z" fill="#c9c9c9" stroke-width=".26458"/></g><path d="m110.51 80.658h6.35v4.2333h-6.35z" fill="#393939" stroke="#333" stroke-width=".26458"/><g fill="#c9c9c9" style="font-variant-caps:normal;font-variant-ligatures:normal;font-variant-numeric:normal" aria-label="0"><path d="m112.89 82.826q0 0.44786-0.15296 0.66559t-0.47818 0.21773q-0.32108 0-0.47542-0.21222-0.15434-0.2136-0.15985-0.63665v-0.34038q0-0.44235 0.15296-0.65732t0.47956-0.21497q0.32383 0 0.4768 0.20808 0.15296 0.20671 0.15709 0.63941zm-0.25493-0.34864q0-0.32384-0.091-0.47129-0.0909-0.14883-0.28801-0.14883-0.19569 0-0.28526 0.14745-0.0896 0.14745-0.0923 0.45337v0.4079q0 0.32522 0.0937 0.48094 0.0951 0.15434 0.28663 0.15434 0.18879 0 0.27974-0.14607 0.0923-0.14607 0.0965-0.46026z" fill="#c9c9c9" stroke-width=".26458"/></g><path d="m118.19 80.658h6.0854v4.2333h-6.0854z" fill="#393939" stroke="#333" stroke-width=".26458"/><g fill="#c9c9c9" style="font-variant-caps:normal;font-variant-ligatures:normal;font-variant-numeric:normal" aria-label="1"><path d="m120.14 83.681h-0.25631v-1.6991l-0.51401 0.18879v-0.23151l0.73036-0.27423h0.04z" fill="#c9c9c9" stroke-width=".26458"/></g><path d="m125.6 80.658h6.35v4.2333h-6.35z" fill="#393939" stroke="#333" stroke-width=".26458"/><g fill="#c9c9c9" style="font-variant-caps:normal;font-variant-ligatures:normal;font-variant-numeric:normal" aria-label="0"><path d="m127.97 82.826q0 0.44786-0.15296 0.66559-0.15297 0.21773-0.47818 0.21773-0.32109 0-0.47543-0.21222-0.15434-0.2136-0.15985-0.63665v-0.34038q0-0.44235 0.15296-0.65732 0.15297-0.21497 0.47956-0.21497 0.32384 0 0.4768 0.20808 0.15296 0.20671 0.1571 0.63941zm-0.25494-0.34864q0-0.32384-0.0909-0.47129-0.091-0.14883-0.28801-0.14883-0.19568 0-0.28525 0.14745-0.0896 0.14745-0.0923 0.45337v0.4079q0 0.32522 0.0937 0.48094 0.0951 0.15434 0.28663 0.15434 0.18879 0 0.27974-0.14607 0.0923-0.14607 0.0965-0.46026z" fill="#c9c9c9" stroke-width=".26458"/></g><path d="m133.27 80.658h6.35v4.2333h-6.35z" fill="#393939" stroke="#333" stroke-width=".26458"/><g fill="#c9c9c9" style="font-variant-caps:normal;font-variant-ligatures:normal;font-variant-numeric:normal" aria-label="0"><path d="m135.64 82.826q0 0.44786-0.15296 0.66559t-0.47818 0.21773q-0.32108 0-0.47542-0.21222-0.15434-0.2136-0.15985-0.63665v-0.34038q0-0.44235 0.15296-0.65732t0.47955-0.21497q0.32384 0 0.4768 0.20808 0.15297 0.20671 0.1571 0.63941zm-0.25494-0.34864q0-0.32384-0.0909-0.47129-0.0909-0.14883-0.28801-0.14883-0.19568 0-0.28525 0.14745-0.0896 0.14745-0.0923 0.45337v0.4079q0 0.32522 0.0937 0.48094 0.0951 0.15434 0.28663 0.15434 0.18879 0 0.27974-0.14607 0.0923-0.14607 0.0965-0.46026z" fill="#c9c9c9" stroke-width=".26458"/></g><path d="m102.84 86.215h6.35v4.2333h-6.35z" fill="#393939" stroke="#333" stroke-width=".26458"/><g fill="#c9c9c9" style="font-variant-caps:normal;font-variant-ligatures:normal;font-variant-numeric:normal" aria-label="0"><path d="m105.21 88.382q0 0.44786-0.15296 0.66559-0.15297 0.21773-0.47818 0.21773-0.32109 0-0.47543-0.21222-0.15434-0.2136-0.15985-0.63665v-0.34038q0-0.44235 0.15296-0.65732 0.15297-0.21497 0.47956-0.21497 0.32384 0 0.4768 0.20808 0.15296 0.20671 0.1571 0.63941zm-0.25494-0.34864q0-0.32384-0.091-0.47129-0.0909-0.14883-0.28801-0.14883-0.19568 0-0.28525 0.14745-0.0896 0.14745-0.0923 0.45337v0.4079q0 0.32522 0.0937 0.48094 0.0951 0.15434 0.28664 0.15434 0.18879 0 0.27974-0.14607 0.0923-0.14607 0.0965-0.46026z" fill="#c9c9c9" stroke-width=".26458"/></g><path d="m110.51 86.215h6.35v4.2333h-6.35z" fill="#393939" stroke="#333" stroke-width=".26458"/><g fill="#c9c9c9" style="font-variant-caps:normal;font-variant-ligatures:normal;font-variant-numeric:normal" aria-label="0"><path d="m112.89 88.382q0 0.44786-0.15296 0.66559t-0.47818 0.21773q-0.32108 0-0.47542-0.21222-0.15434-0.2136-0.15985-0.63665v-0.34038q0-0.44235 0.15296-0.65732 0.15296-0.21497 0.47956-0.21497 0.32383 0 0.4768 0.20808 0.15296 0.20671 0.15709 0.63941zm-0.25493-0.34864q0-0.32384-0.091-0.47129-0.0909-0.14883-0.28801-0.14883-0.19569 0-0.28526 0.14745-0.0896 0.14745-0.0923 0.45337v0.4079q0 0.32522 0.0937 0.48094 0.0951 0.15434 0.28663 0.15434 0.18879 0 0.27974-0.14607 0.0923-0.14607 0.0965-0.46026z" fill="#c9c9c9" stroke-width=".26458"/></g><path d="m118.19 86.215h6.0854v4.2333h-6.0854z" fill="#393939" stroke="#333" stroke-width=".26458"/><g fill="#c9c9c9" style="font-variant-caps:normal;font-variant-ligatures:normal;font-variant-numeric:normal" aria-label="0"><path d="m120.56 88.382q0 0.44786-0.15296 0.66559t-0.47818 0.21773q-0.32108 0-0.47542-0.21222-0.15434-0.2136-0.15985-0.63665v-0.34038q0-0.44235 0.15296-0.65732 0.15296-0.21497 0.47956-0.21497 0.32384 0 0.4768 0.20808 0.15296 0.20671 0.15709 0.63941zm-0.25493-0.34864q0-0.32384-0.091-0.47129-0.0909-0.14883-0.28801-0.14883-0.19568 0-0.28526 0.14745-0.0896 0.14745-0.0923 0.45337v0.4079q0 0.32522 0.0937 0.48094 0.0951 0.15434 0.28663 0.15434 0.18879 0 0.27974-0.14607 0.0923-0.14607 0.0965-0.46026z" fill="#c9c9c9" stroke-width=".26458"/></g><path d="m125.6 86.215h6.35v4.2333h-6.35z" fill="#393939" stroke="#333" stroke-width=".26458"/><g fill="#c9c9c9" style="font-variant-caps:normal;font-variant-ligatures:normal;font-variant-numeric:normal" aria-label="1"><path d="m127.55 89.238h-0.25632v-1.6991l-0.51401 0.18879v-0.23151l0.73036-0.27423h0.04z" fill="#c9c9c9" stroke-width=".26458"/></g><path d="m133.27 86.215h6.35v4.2333h-6.35z" fill="#393939" stroke="#333" stroke-width=".26458"/><g fill="#c9c9c9" style="font-variant-caps:normal;font-variant-ligatures:normal;font-variant-numeric:normal" aria-label="0"><path d="m135.64 88.382q0 0.44786-0.15296 0.66559t-0.47818 0.21773q-0.32108 0-0.47542-0.21222-0.15434-0.2136-0.15985-0.63665v-0.34038q0-0.44235 0.15296-0.65732 0.15296-0.21497 0.47955-0.21497 0.32384 0 0.4768 0.20808 0.15297 0.20671 0.1571 0.63941zm-0.25494-0.34864q0-0.32384-0.0909-0.47129-0.0909-0.14883-0.28801-0.14883-0.19568 0-0.28525 0.14745-0.0896 0.14745-0.0923 0.45337v0.4079q0 0.32522 0.0937 0.48094 0.0951 0.15434 0.28663 0.15434 0.18879 0 0.27974-0.14607 0.0923-0.14607 0.0965-0.46026z" fill="#c9c9c9" stroke-width=".26458"/></g></g></g><g transform="matrix(3.7795 0 0 3.7795 -189.33 -68.893)"><path d="m56.628 35.679c-0.73289 0-1.3229 0.59002-1.3229 1.3229v70.115h39.952v-70.115c0-0.73289-0.59002-1.3229-1.3229-1.3229z" fill="#515457" stroke="#222" stroke-width=".26458"/><path d="m55.438 40.309h39.688v66.675h-39.688z" fill="#3c3f43"/><path d="m95.125 40.177h-39.687" fill="none" stroke="#333" stroke-width=".26458px"/><g fill="#888" stroke-width=".26458" style="font-feature-settings:normal;font-variant-caps:normal;font-variant-ligatures:normal;font-variant-numeric:normal" aria-label="Output"><path d="m85.627 42.753q0 0.30227-0.1017 0.52827-0.1017 0.22459-0.28815 0.34324-0.18645 0.11865-0.43505 0.11865-0.24295 0-0.43081-0.11865-0.18786-0.12006-0.29239-0.34041-0.10311-0.22176-0.10594-0.51273v-0.14831q0-0.29662 0.10311-0.52403 0.10311-0.22741 0.29097-0.34747 0.18927-0.12147 0.43222-0.12147 0.24719 0 0.43505 0.12006 0.18927 0.11865 0.29097 0.34606 0.1017 0.226 0.1017 0.52686zm-0.26979-0.13277q0-0.36584-0.1469-0.56076-0.1469-0.19634-0.41104-0.19634-0.25707 0-0.40538 0.19634-0.1469 0.19492-0.15114 0.5424v0.15114q0 0.35454 0.14831 0.55793 0.14972 0.20199 0.41103 0.20199 0.26272 0 0.4068-0.19069 0.14407-0.1921 0.14831-0.54946z" style="font-feature-settings:normal;font-variant-caps:normal;font-variant-ligatures:normal;font-variant-numeric:normal"/><path d="m86.936 43.563q-0.15255 0.17939-0.44776 0.17939-0.24436 0-0.3729-0.14125-0.12712-0.14266-0.12854-0.42092v-0.99439h0.26131v0.98733q0 0.34747 0.2825 0.34747 0.29945 0 0.39832-0.22317v-1.1116h0.26131v1.5283h-0.2486z" style="font-feature-settings:normal;font-variant-caps:normal;font-variant-ligatures:normal;font-variant-numeric:normal"/><path d="m87.942 41.816v0.37007h0.28532v0.20199h-0.28532v0.94778q0 0.09181 0.03814 0.13842 0.03814 0.0452 0.12995 0.0452 0.0452 0 0.1243-0.01695v0.21187q-0.10311 0.02825-0.20057 0.02825-0.17515 0-0.26414-0.10594-0.08899-0.10594-0.08899-0.30086v-0.94778h-0.27826v-0.20199h0.27826v-0.37007z" style="font-feature-settings:normal;font-variant-caps:normal;font-variant-ligatures:normal;font-variant-numeric:normal"/><path d="m89.823 42.967q0 0.34888-0.15961 0.56217t-0.43222 0.21329q-0.27826 0-0.43787-0.17656v0.73591h-0.26131v-2.1159h0.23871l0.01271 0.1695q0.15961-0.19775 0.44352-0.19775 0.27544 0 0.43505 0.20764 0.16102 0.20764 0.16102 0.57771zm-0.26131-0.02966q0-0.25849-0.11018-0.40821-0.11017-0.14972-0.30227-0.14972-0.2373 0-0.35595 0.21046v0.73026q0.11724 0.20905 0.35877 0.20905 0.18786 0 0.29804-0.14831 0.11159-0.14972 0.11159-0.44352z" style="font-feature-settings:normal;font-variant-caps:normal;font-variant-ligatures:normal;font-variant-numeric:normal"/><path d="m91.099 43.563q-0.15255 0.17939-0.44776 0.17939-0.24436 0-0.3729-0.14125-0.12712-0.14266-0.12854-0.42092v-0.99439h0.26131v0.98733q0 0.34747 0.2825 0.34747 0.29945 0 0.39832-0.22317v-1.1116h0.26131v1.5283h-0.2486z" style="font-feature-settings:normal;font-variant-caps:normal;font-variant-ligatures:normal;font-variant-numeric:normal"/><path d="m92.105 41.816v0.37007h0.28532v0.20199h-0.28532v0.94778q0 0.09181 0.03814 0.13842 0.03814 0.0452 0.12995 0.0452 0.0452 0 0.1243-0.01695v0.21187q-0.10311 0.02825-0.20057 0.02825-0.17515 0-0.26414-0.10594-0.08899-0.10594-0.08899-0.30086v-0.94778h-0.27826v-0.20199h0.27826v-0.37007z" style="font-feature-settings:normal;font-variant-caps:normal;font-variant-ligatures:normal;font-variant-numeric:normal"/></g><path d="m94.069 42.69 1.0583 1.0583 1.0583-1.0583-1.0583-1.0583z" fill="#bbb" stroke="#222" stroke-width=".26458"/><g fill="#ddd" stroke-width=".26458" style="font-feature-settings:normal;font-variant-caps:normal;font-variant-ligatures:normal;font-variant-numeric:normal" aria-label="Component transfer"><path d="m64.098 38.036q-0.03814 0.32628-0.24154 0.50426-0.20199 0.17656-0.53816 0.17656-0.36442 0-0.58477-0.26131-0.21894-0.26131-0.21894-0.69918v-0.19775q0-0.28674 0.1017-0.50426 0.10311-0.21752 0.29097-0.33335 0.18786-0.11724 0.43505-0.11724 0.3277 0 0.52545 0.18362 0.19775 0.18221 0.23024 0.50567h-0.27261q-0.03531-0.24577-0.15396-0.35595-0.11724-0.11018-0.32911-0.11018-0.2599 0-0.40821 0.1921-0.1469 0.1921-0.1469 0.54663v0.19916q0 0.33476 0.13984 0.53251 0.13984 0.19775 0.39126 0.19775 0.226 0 0.34606-0.1017 0.12147-0.10311 0.16102-0.35736z" style="font-feature-settings:normal;font-variant-caps:normal;font-variant-ligatures:normal;font-variant-numeric:normal"/><path d="m64.358 37.91q0-0.22459 0.08757-0.40397 0.08899-0.17939 0.24577-0.27685 0.1582-0.09746 0.36018-0.09746 0.31216 0 0.50426 0.21611 0.19351 0.21611 0.19351 0.57488v0.01836q0 0.22317-0.08616 0.40115-0.08475 0.17656-0.24436 0.27544-0.1582 0.09887-0.36442 0.09887-0.31075 0-0.50426-0.21611-0.1921-0.21611-0.1921-0.57206zm0.26272 0.03108q0 0.25425 0.11724 0.40821 0.11865 0.15396 0.3164 0.15396 0.19916 0 0.3164-0.15537 0.11724-0.15679 0.11724-0.43787 0-0.25142-0.12006-0.4068-0.11865-0.15679-0.3164-0.15679-0.19351 0-0.31216 0.15396-0.11865 0.15396-0.11865 0.44069z" style="font-feature-settings:normal;font-variant-caps:normal;font-variant-ligatures:normal;font-variant-numeric:normal"/><path d="m66.323 37.16 0.0071 0.1695q0.16809-0.19775 0.45341-0.19775 0.32064 0 0.43646 0.24577 0.07627-0.11017 0.19775-0.17797 0.12289-0.0678 0.28956-0.0678 0.50285 0 0.51132 0.53251v1.0241h-0.26131v-1.0085q0-0.16385-0.07486-0.24436-0.07486-0.08192-0.25142-0.08192-0.14549 0-0.24154 0.08758-0.09605 0.08616-0.11159 0.23306v1.0142h-0.26272v-1.0015q0-0.33335-0.32629-0.33335-0.25707 0-0.35171 0.21894v1.1159h-0.26131v-1.5283z" style="font-feature-settings:normal;font-variant-caps:normal;font-variant-ligatures:normal;font-variant-numeric:normal"/><path d="m69.904 37.941q0 0.34888-0.15961 0.56217-0.15961 0.21329-0.43222 0.21329-0.27826 0-0.43787-0.17656v0.73591h-0.26131v-2.1159h0.23871l0.01271 0.1695q0.15961-0.19775 0.44352-0.19775 0.27544 0 0.43505 0.20764 0.16102 0.20764 0.16102 0.57771zm-0.26131-0.02966q0-0.25849-0.11017-0.40821t-0.30227-0.14972q-0.2373 0-0.35595 0.21046v0.73026q0.11724 0.20905 0.35877 0.20905 0.18786 0 0.29804-0.14831 0.11159-0.14972 0.11159-0.44352z" style="font-feature-settings:normal;font-variant-caps:normal;font-variant-ligatures:normal;font-variant-numeric:normal"/><path d="m70.166 37.91q0-0.22459 0.08758-0.40397 0.08899-0.17939 0.24577-0.27685 0.1582-0.09746 0.36018-0.09746 0.31216 0 0.50426 0.21611 0.19351 0.21611 0.19351 0.57488v0.01836q0 0.22317-0.08616 0.40115-0.08475 0.17656-0.24436 0.27544-0.1582 0.09887-0.36442 0.09887-0.31075 0-0.50426-0.21611-0.1921-0.21611-0.1921-0.57206zm0.26272 0.03108q0 0.25425 0.11724 0.40821 0.11865 0.15396 0.3164 0.15396 0.19916 0 0.3164-0.15537 0.11724-0.15679 0.11724-0.43787 0-0.25142-0.12006-0.4068-0.11865-0.15679-0.3164-0.15679-0.19351 0-0.31216 0.15396-0.11865 0.15396-0.11865 0.4407z" style="font-feature-settings:normal;font-variant-caps:normal;font-variant-ligatures:normal;font-variant-numeric:normal"/><path d="m72.133 37.16 0.0085 0.1921q0.17515-0.22035 0.45765-0.22035 0.48448 0 0.48872 0.54663v1.0099h-0.26131v-1.0113q-0.0014-0.16526-0.07627-0.24436-0.07345-0.0791-0.23024-0.0791-0.12712 0-0.22317 0.0678-0.09605 0.0678-0.14972 0.17797v1.089h-0.26131v-1.5283z" style="font-feature-settings:normal;font-variant-caps:normal;font-variant-ligatures:normal;font-variant-numeric:normal"/><path d="m74.116 38.716q-0.31075 0-0.50567-0.2034-0.19492-0.20481-0.19492-0.54663v-0.04802q0-0.22741 0.08616-0.40538 0.08758-0.17939 0.24295-0.27967 0.15679-0.1017 0.339-0.1017 0.29804 0 0.4633 0.19634 0.16526 0.19634 0.16526 0.56217v0.10876h-1.0354q0.0057 0.226 0.13136 0.36584 0.12712 0.13842 0.32205 0.13842 0.13842 0 0.23447-0.0565 0.09605-0.0565 0.16809-0.14972l0.15961 0.1243q-0.1921 0.29521-0.5763 0.29521zm-0.03249-1.3701q-0.1582 0-0.26555 0.11582-0.10735 0.11441-0.13277 0.32205h0.76557v-0.01978q-0.0113-0.19916-0.10735-0.30792-0.09605-0.11017-0.2599-0.11017z" style="font-feature-settings:normal;font-variant-caps:normal;font-variant-ligatures:normal;font-variant-numeric:normal"/><path d="m75.261 37.16 0.0085 0.1921q0.17515-0.22035 0.45765-0.22035 0.48448 0 0.48872 0.54663v1.0099h-0.26131v-1.0113q-0.0014-0.16526-0.07628-0.24436-0.07345-0.0791-0.23024-0.0791-0.12712 0-0.22317 0.0678-0.09605 0.0678-0.14972 0.17797v1.089h-0.26131v-1.5283z" style="font-feature-settings:normal;font-variant-caps:normal;font-variant-ligatures:normal;font-variant-numeric:normal"/><path d="m76.965 36.79v0.37007h0.28532v0.20199h-0.28532v0.94778q0 0.09181 0.03814 0.13842 0.03814 0.0452 0.12995 0.0452 0.0452 0 0.1243-0.01695v0.21187q-0.10311 0.02825-0.20057 0.02825-0.17515 0-0.26414-0.10594-0.08899-0.10594-0.08899-0.30086v-0.94778h-0.27826v-0.20199h0.27826v-0.37007z" style="font-feature-settings:normal;font-variant-caps:normal;font-variant-ligatures:normal;font-variant-numeric:normal"/><path d="m78.626 36.79v0.37007h0.28532v0.20199h-0.28532v0.94778q0 0.09181 0.03814 0.13842 0.03814 0.0452 0.12995 0.0452 0.0452 0 0.1243-0.01695v0.21187q-0.10311 0.02825-0.20057 0.02825-0.17515 0-0.26414-0.10594-0.08899-0.10594-0.08899-0.30086v-0.94778h-0.27826v-0.20199h0.27826v-0.37007z" style="font-feature-settings:normal;font-variant-caps:normal;font-variant-ligatures:normal;font-variant-numeric:normal"/><path d="m79.955 37.394q-0.05932-0.0099-0.12854-0.0099-0.25707 0-0.34888 0.21894v1.0848h-0.26131v-1.5283h0.25425l0.0042 0.17656q0.12854-0.20481 0.36442-0.20481 0.07627 0 0.11582 0.01977z" style="font-feature-settings:normal;font-variant-caps:normal;font-variant-ligatures:normal;font-variant-numeric:normal"/><path d="m81.082 38.688q-0.0226-0.0452-0.03672-0.16102-0.18221 0.18927-0.43505 0.18927-0.226 0-0.37148-0.12712-0.14407-0.12854-0.14407-0.32487 0-0.23871 0.1808-0.37007 0.18221-0.13277 0.51132-0.13277h0.25425v-0.12006q0-0.13701-0.08192-0.21752-0.08192-0.08193-0.24154-0.08193-0.13984 0-0.23447 0.07063-0.09464 0.07062-0.09464 0.17091h-0.26272q0-0.11441 0.08051-0.22035 0.08192-0.10735 0.22035-0.1695 0.13984-0.06215 0.30651-0.06215 0.26414 0 0.41386 0.13277 0.14972 0.13136 0.15537 0.36301v0.70342q0 0.21046 0.05367 0.33476v0.0226zm-0.43363-0.19916q0.12289 0 0.23306-0.06356 0.11017-0.06356 0.15961-0.16526v-0.31358h-0.20481q-0.48025 0-0.48025 0.28109 0 0.12289 0.08192 0.1921 0.08192 0.06921 0.21046 0.06921z" style="font-feature-settings:normal;font-variant-caps:normal;font-variant-ligatures:normal;font-variant-numeric:normal"/><path d="m81.959 37.16 0.0085 0.1921q0.17515-0.22035 0.45765-0.22035 0.48448 0 0.48872 0.54663v1.0099h-0.26131v-1.0113q-0.0014-0.16526-0.07627-0.24436-0.07345-0.0791-0.23024-0.0791-0.12712 0-0.22317 0.0678-0.09605 0.0678-0.14972 0.17797v1.089h-0.26131v-1.5283z" style="font-feature-settings:normal;font-variant-caps:normal;font-variant-ligatures:normal;font-variant-numeric:normal"/><path d="m84.198 38.283q0-0.10594-0.08051-0.16385-0.0791-0.05933-0.27826-0.1017-0.19775-0.04237-0.31498-0.1017-0.11582-0.05932-0.17232-0.14125-0.05509-0.08192-0.05509-0.19492 0-0.18786 0.1582-0.31781 0.15961-0.12995 0.4068-0.12995 0.2599 0 0.42092 0.13419 0.16244 0.13419 0.16244 0.34324h-0.26272q0-0.10735-0.09181-0.18504-0.0904-0.07769-0.22882-0.07769-0.14266 0-0.22317 0.06215-0.08051 0.06215-0.08051 0.16244 0 0.09464 0.07486 0.14266 0.07486 0.04802 0.26978 0.09181 0.19634 0.04379 0.31781 0.10452 0.12147 0.06074 0.17939 0.1469 0.05933 0.08475 0.05933 0.20764 0 0.20481-0.16385 0.32911-0.16385 0.12289-0.42516 0.12289-0.18362 0-0.32487-0.06497-0.14125-0.06498-0.22176-0.1808-0.0791-0.11724-0.0791-0.25284h0.26131q0.0071 0.13136 0.10452 0.20905 0.09887 0.07627 0.2599 0.07627 0.14831 0 0.2373-0.05932 0.0904-0.06074 0.0904-0.16102z" style="font-feature-settings:normal;font-variant-caps:normal;font-variant-ligatures:normal;font-variant-numeric:normal"/><path d="m84.928 38.688v-1.3263h-0.24154v-0.20199h0.24154v-0.15679q0-0.24577 0.13136-0.37996 0.13136-0.13419 0.37148-0.13419 0.0904 0 0.17939 0.02401l-0.01413 0.21187q-0.06639-0.01271-0.14125-0.01271-0.12712 0-0.19634 0.07486-0.06921 0.07345-0.06921 0.21187v0.16102h0.32628v0.20199h-0.32628v1.3263z" style="font-feature-settings:normal;font-variant-caps:normal;font-variant-ligatures:normal;font-variant-numeric:normal"/><path d="m86.404 38.716q-0.31075 0-0.50567-0.2034-0.19492-0.20481-0.19492-0.54663v-0.04802q0-0.22741 0.08616-0.40538 0.08758-0.17939 0.24295-0.27967 0.15679-0.1017 0.339-0.1017 0.29804 0 0.4633 0.19634t0.16526 0.56217v0.10876h-1.0354q0.0057 0.226 0.13136 0.36584 0.12712 0.13842 0.32205 0.13842 0.13842 0 0.23447-0.0565t0.16809-0.14972l0.15961 0.1243q-0.1921 0.29521-0.5763 0.29521zm-0.03249-1.3701q-0.1582 0-0.26555 0.11582-0.10735 0.11441-0.13277 0.32205h0.76557v-0.01978q-0.0113-0.19916-0.10735-0.30792-0.09605-0.11017-0.2599-0.11017z" style="font-feature-settings:normal;font-variant-caps:normal;font-variant-ligatures:normal;font-variant-numeric:normal"/><path d="m88.041 37.394q-0.05932-0.0099-0.12854-0.0099-0.25707 0-0.34888 0.21894v1.0848h-0.26131v-1.5283h0.25425l0.0042 0.17656q0.12854-0.20481 0.36442-0.20481 0.07627 0 0.11582 0.01977z" style="font-feature-settings:normal;font-variant-caps:normal;font-variant-ligatures:normal;font-variant-numeric:normal"/></g><path d="m54.645 42.691 1.0583 1.0583 1.0583-1.0583-1.0583-1.0583z" fill="#bbb" stroke="#222" stroke-width=".26458"/><g stroke-width=".26458"><g fill="#888" style="font-feature-settings:normal;font-variant-caps:normal;font-variant-ligatures:normal;font-variant-numeric:normal" aria-label="Input"><path d="m58.62 43.7h-0.2712v-2.0566h0.2712z" style="font-feature-settings:normal;font-variant-caps:normal;font-variant-ligatures:normal;font-variant-numeric:normal"/><path d="m59.323 42.172 0.0085 0.1921q0.17515-0.22035 0.45765-0.22035 0.48448 0 0.48872 0.54663v1.0099h-0.26131v-1.0113q-0.0014-0.16526-0.07628-0.24436-0.07345-0.0791-0.23024-0.0791-0.12712 0-0.22317 0.0678-0.09605 0.0678-0.14972 0.17797v1.089h-0.26131v-1.5283z" style="font-feature-settings:normal;font-variant-caps:normal;font-variant-ligatures:normal;font-variant-numeric:normal"/><path d="m61.962 42.953q0 0.34888-0.15961 0.56217t-0.43222 0.21329q-0.27826 0-0.43787-0.17656v0.73591h-0.26131v-2.1159h0.23871l0.01271 0.1695q0.15961-0.19775 0.44352-0.19775 0.27544 0 0.43505 0.20764 0.16102 0.20764 0.16102 0.57771zm-0.26131-0.02966q0-0.25848-0.11018-0.40821-0.11017-0.14972-0.30227-0.14972-0.2373 0-0.35595 0.21046v0.73026q0.11724 0.20905 0.35877 0.20905 0.18786 0 0.29804-0.14831 0.11159-0.14972 0.11159-0.44352z" style="font-feature-settings:normal;font-variant-caps:normal;font-variant-ligatures:normal;font-variant-numeric:normal"/><path d="m63.238 43.549q-0.15255 0.17939-0.44776 0.17939-0.24436 0-0.3729-0.14125-0.12712-0.14266-0.12854-0.42092v-0.99439h0.26131v0.98733q0 0.34747 0.2825 0.34747 0.29945 0 0.39832-0.22317v-1.1116h0.26131v1.5283h-0.2486z" style="font-feature-settings:normal;font-variant-caps:normal;font-variant-ligatures:normal;font-variant-numeric:normal"/><path d="m64.244 41.802v0.37007h0.28532v0.20199h-0.28532v0.94778q0 0.09181 0.03814 0.13842 0.03814 0.0452 0.12995 0.0452 0.0452 0 0.1243-0.01695v0.21187q-0.10311 0.02825-0.20057 0.02825-0.17515 0-0.26414-0.10594-0.08899-0.10594-0.08899-0.30086v-0.94778h-0.27826v-0.20199h0.27826v-0.37007z" style="font-feature-settings:normal;font-variant-caps:normal;font-variant-ligatures:normal;font-variant-numeric:normal"/></g><path d="m56.893 51.29h36.777v5.2917h-36.777z" fill="#3b3b3b" stroke="#333"/><g fill="#888" style="font-variant-caps:normal;font-variant-ligatures:normal;font-variant-numeric:normal" aria-label="type:"><path d="m58.374 52.901v0.37007h0.28532v0.20199h-0.28532v0.94778q0 0.09181 0.03814 0.13842 0.03814 0.0452 0.12995 0.0452 0.0452 0 0.1243-0.01695v0.21187q-0.10311 0.02825-0.20057 0.02825-0.17515 0-0.26414-0.10594-0.08899-0.10594-0.08899-0.30086v-0.94778h-0.27826v-0.20199h0.27826v-0.37007z"/><path d="m59.464 54.417 0.35595-1.1455h0.27967l-0.61443 1.7642q-0.14266 0.38137-0.45341 0.38137l-0.04944-0.0042-0.09746-0.01836v-0.21187l0.07062 0.0057q0.13278 0 0.20622-0.05367 0.07486-0.05368 0.12289-0.19634l0.05791-0.15537-0.54522-1.5114h0.28532z"/><path d="m61.624 54.053q0 0.34888-0.15961 0.56217-0.15961 0.21329-0.43222 0.21329-0.27826 0-0.43787-0.17656v0.73591h-0.26131v-2.1159h0.23871l0.01271 0.1695q0.15961-0.19775 0.44352-0.19775 0.27544 0 0.43505 0.20764 0.16102 0.20764 0.16102 0.57771zm-0.26131-0.02966q0-0.25849-0.11017-0.40821t-0.30227-0.14972q-0.2373 0-0.35595 0.21046v0.73026q0.11724 0.20905 0.35877 0.20905 0.18786 0 0.29804-0.14831 0.11159-0.14972 0.11159-0.44352z"/><path d="m62.59 54.828q-0.31075 0-0.50567-0.2034-0.19492-0.20481-0.19492-0.54663v-0.04802q0-0.22741 0.08616-0.40538 0.08757-0.17939 0.24295-0.27967 0.15679-0.1017 0.339-0.1017 0.29804 0 0.4633 0.19634 0.16526 0.19634 0.16526 0.56217v0.10876h-1.0354q0.0057 0.226 0.13136 0.36584 0.12712 0.13842 0.32205 0.13842 0.13842 0 0.23447-0.0565 0.09605-0.0565 0.16809-0.14972l0.15961 0.1243q-0.1921 0.29521-0.5763 0.29521zm-0.03249-1.3701q-0.1582 0-0.26555 0.11582-0.10735 0.11441-0.13278 0.32205h0.76557v-0.01978q-0.0113-0.19916-0.10735-0.30792-0.09605-0.11017-0.2599-0.11017z"/><path d="m63.48 54.663q0-0.0678 0.03955-0.113 0.04096-0.0452 0.12147-0.0452 0.08051 0 0.12147 0.0452 0.04237 0.0452 0.04237 0.113 0 0.06497-0.04237 0.10876-0.04096 0.04379-0.12147 0.04379-0.08051 0-0.12147-0.04379-0.03955-0.04379-0.03955-0.10876zm0.0014-1.2472q0-0.0678 0.03955-0.113 0.04096-0.0452 0.12147-0.0452 0.08051 0 0.12147 0.0452 0.04237 0.0452 0.04237 0.113 0 0.06497-0.04237 0.10876-0.04096 0.04379-0.12147 0.04379-0.08051 0-0.12147-0.04379-0.03955-0.04379-0.03955-0.10876z"/></g><g fill="#ddd" style="font-variant-caps:normal;font-variant-ligatures:normal;font-variant-numeric:normal" aria-label="discrete"><path d="m64.878 54.025q0-0.35171 0.16667-0.565 0.16667-0.2147 0.43646-0.2147 0.26837 0 0.42516 0.18362v-0.79664h0.26131v2.1696h-0.24012l-0.01271-0.16385q-0.15679 0.1921-0.43646 0.1921-0.26555 0-0.43363-0.21752-0.16667-0.21752-0.16667-0.56782zm0.26131 0.02966q0 0.2599 0.10735 0.4068t0.29662 0.1469q0.2486 0 0.36301-0.22317v-0.70201q-0.11724-0.21611-0.36018-0.21611-0.1921 0-0.29945 0.14831-0.10735 0.14831-0.10735 0.43928z"/><path d="m66.857 54.802h-0.26131v-1.5283h0.26131zm-0.2825-1.9337q0-0.06356 0.03814-0.10735 0.03955-0.04379 0.11582-0.04379 0.07628 0 0.11582 0.04379 0.03955 0.04379 0.03955 0.10735 0 0.06356-0.03955 0.10594-0.03955 0.04237-0.11582 0.04237-0.07627 0-0.11582-0.04237-0.03814-0.04237-0.03814-0.10594z"/><path d="m68.165 54.397q0-0.10594-0.08051-0.16385-0.0791-0.05933-0.27826-0.1017-0.19775-0.04237-0.31498-0.1017-0.11582-0.05933-0.17232-0.14125-0.05509-0.08192-0.05509-0.19492 0-0.18786 0.1582-0.31781 0.15961-0.12995 0.4068-0.12995 0.2599 0 0.42092 0.13419 0.16244 0.13419 0.16244 0.34324h-0.26272q0-0.10735-0.09181-0.18504-0.0904-0.07769-0.22882-0.07769-0.14266 0-0.22317 0.06215-0.08051 0.06215-0.08051 0.16244 0 0.09464 0.07486 0.14266 0.07486 0.04802 0.26978 0.09181 0.19634 0.04379 0.31781 0.10452 0.12147 0.06074 0.17939 0.1469 0.05932 0.08475 0.05932 0.20764 0 0.20481-0.16385 0.32911-0.16385 0.12289-0.42516 0.12289-0.18362 0-0.32487-0.06498-0.14125-0.06497-0.22176-0.1808-0.0791-0.11724-0.0791-0.25284h0.26131q0.0071 0.13136 0.10452 0.20905 0.09887 0.07627 0.2599 0.07627 0.14831 0 0.2373-0.05933 0.0904-0.06074 0.0904-0.16102z"/><path d="m69.38 54.617q0.13984 0 0.24436-0.08475t0.11582-0.21187h0.24719q-0.0071 0.13136-0.0904 0.25001-0.08334 0.11865-0.22317 0.18927-0.13842 0.07062-0.2938 0.07062-0.31216 0-0.4972-0.20764-0.18362-0.20905-0.18362-0.57065v-0.04379q0-0.22317 0.08192-0.39691t0.23447-0.26979q0.15396-0.09605 0.36301-0.09605 0.25707 0 0.42657 0.15396 0.17091 0.15396 0.18221 0.39974h-0.24719q-0.0113-0.14831-0.113-0.24295-0.10029-0.09605-0.2486-0.09605-0.19916 0-0.30934 0.14407-0.10876 0.14266-0.10876 0.41386v0.04944q0 0.26414 0.10876 0.4068 0.10876 0.14266 0.31075 0.14266z"/><path d="m71.02 53.508q-0.05932-0.0099-0.12854-0.0099-0.25707 0-0.34888 0.21894v1.0848h-0.26131v-1.5283h0.25425l0.0042 0.17656q0.12854-0.20481 0.36442-0.20481 0.07627 0 0.11582 0.01978z"/><path d="m71.867 54.83q-0.31075 0-0.50567-0.2034-0.19492-0.20481-0.19492-0.54663v-0.04802q0-0.22741 0.08616-0.40538 0.08758-0.17939 0.24295-0.27967 0.15679-0.1017 0.339-0.1017 0.29804 0 0.4633 0.19634 0.16526 0.19634 0.16526 0.56217v0.10876h-1.0354q0.0056 0.226 0.13136 0.36584 0.12712 0.13842 0.32205 0.13842 0.13842 0 0.23447-0.0565 0.09605-0.0565 0.16809-0.14972l0.15961 0.1243q-0.1921 0.29521-0.5763 0.29521zm-0.03249-1.3701q-0.1582 0-0.26555 0.11582-0.10735 0.11441-0.13277 0.32205h0.76557v-0.01977q-0.0113-0.19916-0.10735-0.30792-0.09605-0.11018-0.2599-0.11018z"/><path d="m73.12 52.904v0.37007h0.28532v0.20199h-0.28532v0.94778q0 0.09181 0.03814 0.13842 0.03814 0.0452 0.12995 0.0452 0.0452 0 0.1243-0.01695v0.21187q-0.10311 0.02825-0.20057 0.02825-0.17515 0-0.26414-0.10594-0.08899-0.10594-0.08899-0.30086v-0.94778h-0.27826v-0.20199h0.27826v-0.37007z"/><path d="m74.345 54.83q-0.31075 0-0.50567-0.2034-0.19492-0.20481-0.19492-0.54663v-0.04802q0-0.22741 0.08616-0.40538 0.08757-0.17939 0.24295-0.27967 0.15679-0.1017 0.339-0.1017 0.29804 0 0.4633 0.19634 0.16526 0.19634 0.16526 0.56217v0.10876h-1.0354q0.0057 0.226 0.13136 0.36584 0.12712 0.13842 0.32205 0.13842 0.13842 0 0.23447-0.0565 0.09605-0.0565 0.16809-0.14972l0.15961 0.1243q-0.1921 0.29521-0.5763 0.29521zm-0.03249-1.3701q-0.1582 0-0.26555 0.11582-0.10735 0.11441-0.13277 0.32205h0.76557v-0.01977q-0.0113-0.19916-0.10735-0.30792-0.09605-0.11018-0.2599-0.11018z"/></g></g><path d="m90.099 53.274 1.0583 1.3229 1.0583-1.3229" fill="none" stroke="#aaa" stroke-width=".3175"/><g fill="#888" stroke-width=".26458" style="font-variant-caps:normal;font-variant-ligatures:normal;font-variant-numeric:normal" aria-label="Red"><path d="m62.521 48.155h-0.48307v0.83196h-0.27261v-2.0566h0.68082q0.34747 0 0.53392 0.1582 0.18786 0.1582 0.18786 0.46047 0 0.1921-0.10452 0.33476-0.10311 0.14266-0.28815 0.21329l0.48307 0.87292v0.01695h-0.29097zm-0.48307-0.22176h0.41668q0.20199 0 0.32064-0.10452 0.12006-0.10452 0.12006-0.27967 0-0.19069-0.11441-0.29238-0.113-0.1017-0.3277-0.10311h-0.41527z"/><path d="m64.141 49.016q-0.31075 0-0.50567-0.2034-0.19492-0.20481-0.19492-0.54663v-0.04803q0-0.22741 0.08616-0.40538 0.08757-0.17939 0.24295-0.27967 0.15679-0.1017 0.339-0.1017 0.29804 0 0.4633 0.19634 0.16526 0.19634 0.16526 0.56217v0.10876h-1.0354q0.0056 0.226 0.13136 0.36584 0.12712 0.13842 0.32205 0.13842 0.13842 0 0.23447-0.0565t0.16809-0.14972l0.15961 0.1243q-0.1921 0.29521-0.5763 0.29521zm-0.03249-1.3701q-0.1582 0-0.26555 0.11582-0.10735 0.11441-0.13277 0.32205h0.76557v-0.01978q-0.0113-0.19916-0.10735-0.30792-0.09605-0.11018-0.2599-0.11018z"/><path d="m64.976 48.21q0-0.35171 0.16667-0.565 0.16667-0.2147 0.43646-0.2147 0.26837 0 0.42516 0.18362v-0.79664h0.26131v2.1696h-0.24012l-0.01271-0.16385q-0.15679 0.1921-0.43646 0.1921-0.26555 0-0.43363-0.21752-0.16667-0.21752-0.16667-0.56782zm0.26131 0.02966q0 0.2599 0.10735 0.4068t0.29662 0.1469q0.2486 0 0.36301-0.22317v-0.70201q-0.11724-0.21611-0.36018-0.21611-0.1921 0-0.29945 0.14831-0.10735 0.14831-0.10735 0.43928z"/></g><path d="m57.82 47.189 1.0583 1.0583 1.0583-1.0583" fill="none" stroke="#888" stroke-width=".3175"/><g fill="#888" stroke-width=".26458" style="font-variant-caps:normal;font-variant-ligatures:normal;font-variant-numeric:normal" aria-label="Preview"><path d="m62.038 103.48v0.80512h-0.2712v-2.0566h0.75851q0.33759 0 0.52827 0.17233 0.1921 0.17232 0.1921 0.45623 0 0.29945-0.18786 0.46189-0.18645 0.16102-0.53533 0.16102zm0-0.22176h0.48731q0.21752 0 0.33335-0.1017 0.11582-0.10311 0.11582-0.29662 0-0.18363-0.11582-0.2938t-0.31781-0.11441h-0.50285z"/><path d="m64.289 102.99q-0.05933-0.01-0.12854-0.01-0.25707 0-0.34888 0.21894v1.0848h-0.26131v-1.5283h0.25425l0.0042 0.17656q0.12854-0.20481 0.36442-0.20481 0.07627 0 0.11582 0.0198z"/><path d="m65.137 104.31q-0.31075 0-0.50567-0.2034-0.19492-0.20481-0.19492-0.54663v-0.048q0-0.22741 0.08616-0.40538 0.08757-0.17939 0.24295-0.27967 0.15679-0.1017 0.339-0.1017 0.29804 0 0.4633 0.19633 0.16526 0.19634 0.16526 0.56217v0.10876h-1.0354q0.0057 0.226 0.13136 0.36584 0.12712 0.13842 0.32205 0.13842 0.13842 0 0.23447-0.0565 0.09605-0.0565 0.16809-0.14972l0.15961 0.1243q-0.1921 0.29521-0.5763 0.29521zm-0.03249-1.3701q-0.1582 0-0.26555 0.11583-0.10735 0.11441-0.13277 0.32205h0.76557v-0.0198q-0.0113-0.19916-0.10735-0.30792-0.09605-0.11018-0.2599-0.11018z"/><path d="m66.521 103.93 0.37855-1.1738h0.26696l-0.54805 1.5283h-0.19916l-0.5537-1.5283h0.26696z"/><path d="m67.702 104.29h-0.26131v-1.5283h0.26131zm-0.2825-1.9337q0-0.0636 0.03814-0.10735 0.03955-0.0438 0.11582-0.0438 0.07627 0 0.11582 0.0438 0.03955 0.0438 0.03955 0.10735 0 0.0636-0.03955 0.10594-0.03955 0.0424-0.11582 0.0424-0.07628 0-0.11582-0.0424-0.03814-0.0424-0.03814-0.10594z"/><path d="m68.754 104.31q-0.31075 0-0.50567-0.2034-0.19492-0.20481-0.19492-0.54663v-0.048q0-0.22741 0.08616-0.40538 0.08758-0.17939 0.24295-0.27967 0.15679-0.1017 0.339-0.1017 0.29804 0 0.4633 0.19633 0.16526 0.19634 0.16526 0.56217v0.10876h-1.0354q0.0056 0.226 0.13136 0.36584 0.12712 0.13842 0.32205 0.13842 0.13842 0 0.23447-0.0565t0.16809-0.14972l0.15961 0.1243q-0.1921 0.29521-0.5763 0.29521zm-0.03249-1.3701q-0.1582 0-0.26555 0.11583-0.10735 0.11441-0.13277 0.32205h0.76557v-0.0198q-0.0113-0.19916-0.10735-0.30792-0.09605-0.11018-0.2599-0.11018z"/><path d="m71.005 103.93 0.2938-1.1681h0.26131l-0.44494 1.5283h-0.21187l-0.37148-1.1582-0.3616 1.1582h-0.21187l-0.44352-1.5283h0.2599l0.30086 1.1441 0.35595-1.1441h0.21046z"/></g><path d="m58.349 104.07 1.0583-1.0583-1.0583-1.0583" fill="none" stroke="#888" stroke-width=".3175"/><g fill="#888" stroke-width=".26458" style="font-variant-caps:normal;font-variant-ligatures:normal;font-variant-numeric:normal" aria-label="Alpha"><path d="m62.902 96.34h-0.86162l-0.19351 0.53675h-0.27967l0.78534-2.0566h0.2373l0.78676 2.0566h-0.27826zm-0.77969-0.22317h0.69918l-0.3503-0.96191z"/><path d="m63.896 96.877h-0.26131v-2.1696h0.26131z"/><path d="m65.606 96.13q0 0.34888-0.15961 0.56217-0.15961 0.21329-0.43222 0.21329-0.27826 0-0.43787-0.17656v0.73591h-0.26131v-2.1159h0.23871l0.01271 0.1695q0.15961-0.19775 0.44352-0.19775 0.27544 0 0.43505 0.20764 0.16102 0.20764 0.16102 0.57771zm-0.26131-0.02966q0-0.25849-0.11017-0.40821-0.11018-0.14972-0.30227-0.14972-0.2373 0-0.35595 0.21046v0.73026q0.11724 0.20905 0.35877 0.20905 0.18786 0 0.29804-0.14831 0.11159-0.14972 0.11159-0.44352z"/><path d="m66.199 95.534q0.17374-0.21329 0.452-0.21329 0.48448 0 0.48872 0.54663v1.0099h-0.26131v-1.0113q-0.0014-0.16526-0.07627-0.24436-0.07345-0.0791-0.23024-0.0791-0.12712 0-0.22317 0.0678t-0.14972 0.17797v1.089h-0.26131v-2.1696h0.26131z"/><path d="m68.474 96.877q-0.0226-0.0452-0.03672-0.16102-0.18221 0.18927-0.43505 0.18927-0.226 0-0.37148-0.12712-0.14407-0.12854-0.14407-0.32487 0-0.23871 0.1808-0.37007 0.18221-0.13277 0.51132-0.13277h0.25425v-0.12006q0-0.13701-0.08192-0.21752-0.08192-0.08192-0.24154-0.08192-0.13984 0-0.23447 0.07063-0.09464 0.07062-0.09464 0.17091h-0.26272q0-0.11441 0.08051-0.22035 0.08192-0.10735 0.22035-0.1695 0.13984-0.06215 0.30651-0.06215 0.26414 0 0.41386 0.13278 0.14972 0.13136 0.15537 0.36301v0.70342q0 0.21046 0.05367 0.33476v0.0226zm-0.43363-0.19916q0.12289 0 0.23306-0.06356t0.15961-0.16526v-0.31357h-0.20481q-0.48025 0-0.48025 0.28109 0 0.12289 0.08192 0.1921 0.08192 0.06921 0.21046 0.06921z"/></g><path d="m58.349 96.666 1.0583-1.0583-1.0583-1.0583" fill="none" stroke="#888" stroke-width=".3175"/><g fill="#888" stroke-width=".26458" style="font-variant-caps:normal;font-variant-ligatures:normal;font-variant-numeric:normal" aria-label="Blue"><path d="m61.766 91.321v-2.0566h0.67234q0.33476 0 0.50285 0.13842 0.1695 0.13842 0.1695 0.40962 0 0.14407-0.08193 0.25566-0.08192 0.11017-0.22317 0.17091 0.16667 0.04661 0.26272 0.17797 0.09746 0.12995 0.09746 0.31075 0 0.27685-0.17939 0.43505-0.17939 0.1582-0.50708 0.1582zm0.2712-0.96191v0.74014h0.44776q0.18927 0 0.29804-0.09746 0.11017-0.09887 0.11017-0.2712 0-0.37148-0.40397-0.37148zm0-0.21752h0.40962q0.17797 0 0.28391-0.08899 0.10735-0.08899 0.10735-0.24154 0-0.1695-0.09887-0.24577-0.09887-0.07769-0.30086-0.07769h-0.40115z"/><path d="m63.81 91.321h-0.26131v-2.1696h0.26131z"/><path d="m65.172 91.169q-0.15255 0.17939-0.44776 0.17939-0.24436 0-0.3729-0.14125-0.12712-0.14266-0.12854-0.42092v-0.99439h0.26131v0.98733q0 0.34747 0.2825 0.34747 0.29945 0 0.39832-0.22317v-1.1116h0.26131v1.5283h-0.2486z"/><path d="m66.457 91.349q-0.31075 0-0.50567-0.2034-0.19492-0.20481-0.19492-0.54663v-0.04802q0-0.22741 0.08616-0.40538 0.08757-0.17939 0.24295-0.27967 0.15679-0.1017 0.339-0.1017 0.29804 0 0.4633 0.19634t0.16526 0.56217v0.10876h-1.0354q0.0057 0.226 0.13136 0.36584 0.12712 0.13842 0.32205 0.13842 0.13842 0 0.23447-0.0565t0.16809-0.14972l0.15961 0.1243q-0.1921 0.29521-0.5763 0.29521zm-0.03249-1.3701q-0.1582 0-0.26555 0.11582-0.10735 0.11441-0.13277 0.32205h0.76557v-0.01978q-0.0113-0.19916-0.10735-0.30792-0.09605-0.11017-0.2599-0.11017z"/></g><path d="m58.349 91.109 1.0583-1.0583-1.0583-1.0583" fill="none" stroke="#888" stroke-width=".3175"/><g fill="#888" stroke-width=".26458" style="font-variant-caps:normal;font-variant-ligatures:normal;font-variant-numeric:normal" aria-label="Green"><path d="m63.285 85.495q-0.10452 0.14972-0.29238 0.22459-0.18645 0.07345-0.43505 0.07345-0.25142 0-0.44635-0.11724-0.19492-0.11865-0.30227-0.33617-0.10594-0.21752-0.10876-0.50426v-0.17939q0-0.46471 0.21611-0.72037 0.21752-0.25566 0.6102-0.25566 0.32205 0 0.51838 0.16526 0.19634 0.16385 0.24012 0.46612h-0.2712q-0.07627-0.40821-0.4859-0.40821-0.27261 0-0.41386 0.1921-0.13984 0.19069-0.14125 0.5537v0.16809q0 0.34606 0.1582 0.55087 0.1582 0.2034 0.42798 0.2034 0.15255 0 0.26696-0.0339t0.18927-0.11441v-0.46188h-0.47601v-0.22035h0.7458z"/><path d="m64.435 84.471q-0.05932-0.0099-0.12854-0.0099-0.25707 0-0.34888 0.21894v1.0848h-0.26131v-1.5283h0.25425l0.0042 0.17656q0.12854-0.20481 0.36442-0.20481 0.07627 0 0.11582 0.01977z"/><path d="m65.282 85.793q-0.31075 0-0.50567-0.2034-0.19492-0.20481-0.19492-0.54663v-0.04802q0-0.22741 0.08616-0.40538 0.08758-0.17939 0.24295-0.27967 0.15679-0.1017 0.339-0.1017 0.29804 0 0.4633 0.19634t0.16526 0.56217v0.10876h-1.0354q0.0057 0.226 0.13136 0.36584 0.12712 0.13842 0.32205 0.13842 0.13842 0 0.23447-0.0565t0.16809-0.14972l0.15961 0.1243q-0.1921 0.29521-0.5763 0.29521zm-0.03249-1.3701q-0.1582 0-0.26555 0.11582-0.10735 0.11441-0.13277 0.32205h0.76557v-0.01978q-0.0113-0.19916-0.10735-0.30792-0.09605-0.11017-0.2599-0.11017z"/><path d="m66.815 85.793q-0.31075 0-0.50567-0.2034-0.19492-0.20481-0.19492-0.54663v-0.04802q0-0.22741 0.08616-0.40538 0.08757-0.17939 0.24295-0.27967 0.15679-0.1017 0.339-0.1017 0.29804 0 0.4633 0.19634 0.16526 0.19634 0.16526 0.56217v0.10876h-1.0354q0.0057 0.226 0.13136 0.36584 0.12712 0.13842 0.32205 0.13842 0.13842 0 0.23447-0.0565t0.16809-0.14972l0.15961 0.1243q-0.1921 0.29521-0.5763 0.29521zm-0.03249-1.3701q-0.1582 0-0.26555 0.11582-0.10735 0.11441-0.13277 0.32205h0.76557v-0.01978q-0.0113-0.19916-0.10735-0.30792-0.09605-0.11017-0.2599-0.11017z"/><path d="m67.96 84.236 0.0085 0.1921q0.17515-0.22035 0.45765-0.22035 0.48448 0 0.48872 0.54663v1.0099h-0.26131v-1.0113q-0.0014-0.16526-0.07627-0.24436-0.07345-0.0791-0.23024-0.0791-0.12712 0-0.22317 0.0678-0.09605 0.0678-0.14972 0.17797v1.089h-0.26131v-1.5283z"/></g><g fill="none"><path d="m58.349 85.553 1.0583-1.0583-1.0583-1.0583" stroke="#888" stroke-width=".3175"/><path d="m56.761 99.973h37.042" stroke="#555" stroke-width=".26458px"/><g stroke="#aaa" stroke-width=".26458px"><path d="m57.026 58.698h1.0583"/><path d="m57.026 60.55h1.0583"/><path d="m57.026 62.402h1.0583"/><path d="m57.026 64.254h1.0583"/><path d="m57.026 66.106h1.0583"/><path d="m57.026 67.958h1.0583"/><path d="m57.026 69.81h1.0583"/><path d="m57.026 71.663h1.0583"/><path d="m57.026 73.515h1.0583"/><path d="m57.026 75.367h1.0583"/><path d="m57.026 77.219h35.719"/><path d="m57.952 78.145v-19.579"/><path d="m80.971 77.351v0.79375"/><path d="m69.593 77.351v0.79375"/></g></g><g fill="#888"><g style="font-variant-caps:normal;font-variant-ligatures:normal;font-variant-numeric:normal" aria-label="+"><path d="m63.995 78.94h0.57347v0.24719h-0.57347v0.64974h-0.26272v-0.64974h-0.57347v-0.24719h0.57347v-0.60031h0.26272z" fill="#888" stroke-width=".26458"/></g><g style="font-variant-caps:normal;font-variant-ligatures:normal;font-variant-numeric:normal" aria-label="+"><path d="m75.637 78.94h0.57347v0.24719h-0.57347v0.64974h-0.26272v-0.64974h-0.57347v-0.24719h0.57347v-0.60031h0.26272z" fill="#888" stroke-width=".26458"/></g><g style="font-variant-caps:normal;font-variant-ligatures:normal;font-variant-numeric:normal" aria-label="+"><path d="m87.047 78.94h0.57347v0.24719h-0.57347v0.64974h-0.26272v-0.64974h-0.57347v-0.24719h0.57347v-0.60031h0.26272z" fill="#888" stroke-width=".26458"/></g></g><g fill="none" stroke="#555" stroke-width=".26458px"><path d="m58.084 58.698h34.66"/><path d="m58.084 60.55h34.66"/><path d="m92.745 62.402h-34.66"/><path d="m58.084 64.254h34.66"/><path d="m92.745 66.106h-34.66"/><path d="m58.084 67.958h34.66"/><path d="m92.745 69.81h-34.66"/><path d="m58.084 71.663h34.66"/><path d="m92.745 73.515h-34.66"/><path d="m58.084 75.367h34.66"/></g><path d="m70.52 62.534a0.79375 0.79375 0 0 1-0.79375 0.79375 0.79375 0.79375 0 0 1-0.79375-0.79375 0.79375 0.79375 0 0 1 0.79375-0.79375 0.79375 0.79375 0 0 1 0.79375 0.79375" fill="#ffa500"/><path d="m69.726 62.534h11.112" fill="none" stroke="#ffa500" stroke-width=".52917"/><path d="m81.897 60.682a0.79375 0.79375 0 0 1-0.79375 0.79375 0.79375 0.79375 0 0 1-0.79375-0.79375 0.79375 0.79375 0 0 1 0.79375-0.79375 0.79375 0.79375 0 0 1 0.79375 0.79375" fill="#ffa500"/><path d="m81.103 60.682h11.112" fill="none" stroke="#ffa500" stroke-width=".52917"/><path d="m58.878 73.647a0.79375 0.79375 0 0 1-0.79375 0.79375 0.79375 0.79375 0 0 1-0.79375-0.79375 0.79375 0.79375 0 0 1 0.79375-0.79375 0.79375 0.79375 0 0 1 0.79375 0.79375" fill="#ffa500"/><path d="m58.084 73.647h11.112" fill="none" stroke="#ffa500" stroke-width=".52917"/></g></g></svg>
