<?xml version="1.0" encoding="UTF-8"?>
<svg width="5.2899in" height=".82292in" version="1.1" viewBox="0 0 507.83 79" xmlns="http://www.w3.org/2000/svg" xmlns:cc="http://creativecommons.org/ns#" xmlns:dc="http://purl.org/dc/elements/1.1/" xmlns:rdf="http://www.w3.org/1999/02/22-rdf-syntax-ns#" xmlns:xlink="http://www.w3.org/1999/xlink"><metadata><rdf:RDF><cc:Work rdf:about=""><dc:format>image/svg+xml</dc:format><dc:type rdf:resource="http://purl.org/dc/dcmitype/StillImage"/><dc:title/></cc:Work></rdf:RDF></metadata><g transform="translate(-1.2504 -46.376)"><g transform="matrix(3.7795 0 0 3.7795 -369.8 -144.25)"><path d="m100.34 50.569c-0.73289 0-1.3229 0.59002-1.3229 1.3229v19.315h39.952v-19.315c0-0.73289-0.59002-1.3229-1.3229-1.3229z" fill="#515457" stroke="#222" stroke-width=".26458"/><path d="m99.154 55.198h39.687v15.876h-39.687z" fill="#3c3f43"/><path d="m138.84 55.066h-39.687" fill="none" stroke="#333" stroke-width=".26458px"/><g fill="#888" stroke-width=".26458" style="font-feature-settings:normal;font-variant-caps:normal;font-variant-ligatures:normal;font-variant-numeric:normal" aria-label="Output"><path d="m129.34 57.642q0 0.30227-0.1017 0.52827-0.1017 0.22459-0.28815 0.34324t-0.43505 0.11865q-0.24295 0-0.43081-0.11865-0.18786-0.12006-0.29238-0.34041-0.10311-0.22176-0.10594-0.51273v-0.14831q0-0.29662 0.10311-0.52403t0.29097-0.34747q0.18928-0.12147 0.43223-0.12147 0.24718 0 0.43504 0.12006 0.18928 0.11865 0.29098 0.34606 0.1017 0.226 0.1017 0.52686zm-0.26979-0.13277q0-0.36584-0.1469-0.56076-0.1469-0.19634-0.41103-0.19634-0.25708 0-0.40539 0.19634-0.1469 0.19492-0.15113 0.5424v0.15114q0 0.35454 0.14831 0.55793 0.14972 0.20199 0.41103 0.20199 0.26273 0 0.4068-0.19069 0.14407-0.1921 0.14831-0.54946z" style="font-feature-settings:normal;font-variant-caps:normal;font-variant-ligatures:normal;font-variant-numeric:normal"/><path d="m130.65 58.453q-0.15254 0.17939-0.44775 0.17939-0.24437 0-0.3729-0.14125-0.12713-0.14266-0.12854-0.42092v-0.99439h0.26131v0.98733q0 0.34747 0.2825 0.34747 0.29945 0 0.39832-0.22317v-1.1116h0.26131v1.5283h-0.2486z" style="font-feature-settings:normal;font-variant-caps:normal;font-variant-ligatures:normal;font-variant-numeric:normal"/><path d="m131.66 56.706v0.37007h0.28532v0.20199h-0.28532v0.94778q0 0.09181 0.0381 0.13842 0.0381 0.0452 0.12994 0.0452 0.0452 0 0.1243-0.01695v0.21187q-0.10311 0.02825-0.20057 0.02825-0.17515 0-0.26414-0.10594-0.089-0.10594-0.089-0.30086v-0.94778h-0.27826v-0.20199h0.27826v-0.37007z" style="font-feature-settings:normal;font-variant-caps:normal;font-variant-ligatures:normal;font-variant-numeric:normal"/><path d="m133.54 57.857q0 0.34888-0.15961 0.56217t-0.43222 0.21329q-0.27826 0-0.43787-0.17656v0.73591h-0.26131v-2.1159h0.23871l0.0127 0.1695q0.15961-0.19775 0.44352-0.19775 0.27544 0 0.43505 0.20764 0.16102 0.20764 0.16102 0.57771zm-0.26131-0.02966q0-0.25849-0.11017-0.40821t-0.30227-0.14972q-0.2373 0-0.35595 0.21046v0.73026q0.11724 0.20905 0.35877 0.20905 0.18786 0 0.29804-0.14831 0.11158-0.14972 0.11158-0.44352z" style="font-feature-settings:normal;font-variant-caps:normal;font-variant-ligatures:normal;font-variant-numeric:normal"/><path d="m134.81 58.453q-0.15255 0.17939-0.44776 0.17939-0.24436 0-0.37289-0.14125-0.12713-0.14266-0.12854-0.42092v-0.99439h0.26131v0.98733q0 0.34747 0.2825 0.34747 0.29945 0 0.39832-0.22317v-1.1116h0.26131v1.5283h-0.2486z" style="font-feature-settings:normal;font-variant-caps:normal;font-variant-ligatures:normal;font-variant-numeric:normal"/><path d="m135.82 56.706v0.37007h0.28532v0.20199h-0.28532v0.94778q0 0.09181 0.0381 0.13842 0.0381 0.0452 0.12995 0.0452 0.0452 0 0.1243-0.01695v0.21187q-0.10311 0.02825-0.20057 0.02825-0.17515 0-0.26414-0.10594-0.089-0.10594-0.089-0.30086v-0.94778h-0.27826v-0.20199h0.27826v-0.37007z" style="font-feature-settings:normal;font-variant-caps:normal;font-variant-ligatures:normal;font-variant-numeric:normal"/></g><path d="m137.79 57.58 1.0583 1.0583 1.0583-1.0583-1.0583-1.0583z" fill="#bbb" stroke="#222" stroke-width=".26458"/><g fill="#ddd" stroke-width=".26458" style="font-feature-settings:normal;font-variant-caps:normal;font-variant-ligatures:normal;font-variant-numeric:normal" aria-label="Blend"><path d="m115.59 53.578v-2.0566h0.67234q0.33476 0 0.50285 0.13842 0.1695 0.13842 0.1695 0.40962 0 0.14407-0.0819 0.25566-0.0819 0.11017-0.22317 0.17091 0.16668 0.04661 0.26272 0.17797 0.0975 0.12995 0.0975 0.31075 0 0.27685-0.17939 0.43505t-0.50708 0.1582zm0.2712-0.96191v0.74014h0.44776q0.18927 0 0.29803-0.09746 0.11018-0.09887 0.11018-0.2712 0-0.37148-0.40398-0.37148zm0-0.21752h0.40962q0.17797 0 0.28391-0.08899 0.10735-0.08899 0.10735-0.24154 0-0.1695-0.0989-0.24577-0.0989-0.07769-0.30086-0.07769h-0.40114z" style="font-feature-settings:normal;font-variant-caps:normal;font-variant-ligatures:normal;font-variant-numeric:normal"/><path d="m117.63 53.578h-0.26131v-2.1696h0.26131z" style="font-feature-settings:normal;font-variant-caps:normal;font-variant-ligatures:normal;font-variant-numeric:normal"/><path d="m118.68 53.606q-0.31075 0-0.50567-0.2034-0.19493-0.20481-0.19493-0.54663v-0.04802q0-0.22741 0.0862-0.40538 0.0876-0.17939 0.24295-0.27967 0.15679-0.1017 0.339-0.1017 0.29804 0 0.4633 0.19634 0.16526 0.19634 0.16526 0.56217v0.10876h-1.0354q6e-3 0.226 0.13136 0.36584 0.12713 0.13842 0.32205 0.13842 0.13843 0 0.23448-0.0565 0.096-0.0565 0.16808-0.14972l0.15961 0.1243q-0.1921 0.29521-0.57629 0.29521zm-0.0325-1.3701q-0.1582 0-0.26555 0.11582-0.10735 0.11441-0.13277 0.32205h0.76557v-0.01978q-0.0113-0.19916-0.10735-0.30792-0.096-0.11017-0.2599-0.11017z" style="font-feature-settings:normal;font-variant-caps:normal;font-variant-ligatures:normal;font-variant-numeric:normal"/><path d="m119.83 52.049 8e-3 0.1921q0.17515-0.22035 0.45765-0.22035 0.48448 0 0.48872 0.54663v1.0099h-0.26131v-1.0113q-1e-3 -0.16526-0.0763-0.24436-0.0734-0.0791-0.23023-0.0791-0.12713 0-0.22317 0.0678-0.096 0.0678-0.14973 0.17797v1.089h-0.26131v-1.5283z" style="font-feature-settings:normal;font-variant-caps:normal;font-variant-ligatures:normal;font-variant-numeric:normal"/><path d="m121.11 52.801q0-0.35171 0.16668-0.565 0.16667-0.2147 0.43646-0.2147 0.26837 0 0.42516 0.18362v-0.79664h0.26131v2.1696h-0.24013l-0.0127-0.16385q-0.15679 0.1921-0.43646 0.1921-0.26555 0-0.43363-0.21752-0.16668-0.21752-0.16668-0.56782zm0.26131 0.02966q0 0.2599 0.10735 0.4068t0.29663 0.1469q0.24859 0 0.36301-0.22317v-0.70201q-0.11724-0.21611-0.36019-0.21611-0.1921 0-0.29945 0.14831-0.10735 0.14831-0.10735 0.43928z" style="font-feature-settings:normal;font-variant-caps:normal;font-variant-ligatures:normal;font-variant-numeric:normal"/></g><path d="m98.36 57.58 1.0583 1.0583 1.0583-1.0583-1.0583-1.0583z" fill="#bbb" stroke="#222" stroke-width=".26458"/><g fill="#888" stroke-width=".26458" style="font-feature-settings:normal;font-variant-caps:normal;font-variant-ligatures:normal;font-variant-numeric:normal" aria-label="Input 1"><path d="m102.34 58.59h-0.27119v-2.0566h0.27119z" style="font-feature-settings:normal;font-variant-caps:normal;font-variant-ligatures:normal;font-variant-numeric:normal"/><path d="m103.04 57.062 8e-3 0.1921q0.17515-0.22035 0.45764-0.22035 0.48449 0 0.48873 0.54663v1.0099h-0.26131v-1.0113q-1e-3 -0.16526-0.0763-0.24436-0.0735-0.0791-0.23024-0.0791-0.12712 0-0.22317 0.0678-0.0961 0.0678-0.14972 0.17797v1.089h-0.26131v-1.5283z" style="font-feature-settings:normal;font-variant-caps:normal;font-variant-ligatures:normal;font-variant-numeric:normal"/><path d="m105.68 57.843q0 0.34888-0.15961 0.56217-0.15962 0.21329-0.43223 0.21329-0.27826 0-0.43787-0.17656v0.73591h-0.26131v-2.1159h0.23871l0.0127 0.1695q0.15962-0.19775 0.44353-0.19775 0.27543 0 0.43504 0.20764 0.16103 0.20764 0.16103 0.57771zm-0.26131-0.02966q0-0.25848-0.11018-0.40821-0.11017-0.14972-0.30227-0.14972-0.2373 0-0.35595 0.21046v0.73026q0.11724 0.20905 0.35877 0.20905 0.18787 0 0.29804-0.14831 0.11159-0.14972 0.11159-0.44352z" style="font-feature-settings:normal;font-variant-caps:normal;font-variant-ligatures:normal;font-variant-numeric:normal"/><path d="m106.95 58.439q-0.15255 0.17939-0.44776 0.17939-0.24436 0-0.3729-0.14125-0.12713-0.14266-0.12854-0.42092v-0.99439h0.26131v0.98733q0 0.34747 0.2825 0.34747 0.29945 0 0.39832-0.22317v-1.1116h0.26131v1.5283h-0.24859z" style="font-feature-settings:normal;font-variant-caps:normal;font-variant-ligatures:normal;font-variant-numeric:normal"/><path d="m107.96 56.692v0.37007h0.28532v0.20199h-0.28532v0.94778q0 0.09181 0.0381 0.13842 0.0381 0.0452 0.12994 0.0452 0.0452 0 0.1243-0.01695v0.21187q-0.10311 0.02825-0.20057 0.02825-0.17515 0-0.26414-0.10594-0.089-0.10594-0.089-0.30086v-0.94778h-0.27826v-0.20199h0.27826v-0.37007z" style="font-feature-settings:normal;font-variant-caps:normal;font-variant-ligatures:normal;font-variant-numeric:normal"/><path d="m110.1 58.59h-0.26272v-1.7416l-0.52686 0.19351v-0.2373l0.74862-0.28108h0.041z" style="font-feature-settings:normal;font-variant-caps:normal;font-variant-ligatures:normal;font-variant-numeric:normal"/></g><path d="m98.36 61.02 1.0583 1.0583 1.0583-1.0583-1.0583-1.0583z" fill="#bbb" stroke="#222" stroke-width=".26458"/><g stroke-width=".26458"><g fill="#888" style="font-feature-settings:normal;font-variant-caps:normal;font-variant-ligatures:normal;font-variant-numeric:normal" aria-label="Input 2"><path d="m102.34 62.03h-0.2712v-2.0566h0.2712z" style="font-feature-settings:normal;font-variant-caps:normal;font-variant-ligatures:normal;font-variant-numeric:normal"/><path d="m103.04 60.501 8e-3 0.1921q0.17515-0.22035 0.45765-0.22035 0.48448 0 0.48872 0.54663v1.0099h-0.26131v-1.0113q-1e-3 -0.16526-0.0763-0.24436-0.0734-0.0791-0.23023-0.0791-0.12713 0-0.22318 0.0678-0.0961 0.0678-0.14972 0.17797v1.089h-0.26131v-1.5283z" style="font-feature-settings:normal;font-variant-caps:normal;font-variant-ligatures:normal;font-variant-numeric:normal"/><path d="m105.68 61.283q0 0.34888-0.15961 0.56217t-0.43222 0.21329q-0.27826 0-0.43788-0.17656v0.73591h-0.26131v-2.1159h0.23871l0.0127 0.1695q0.15961-0.19775 0.44352-0.19775 0.27543 0 0.43505 0.20764 0.16102 0.20764 0.16102 0.57771zm-0.26131-0.02966q0-0.25849-0.11018-0.40821-0.11017-0.14972-0.30227-0.14972-0.2373 0-0.35595 0.21046v0.73026q0.11724 0.20905 0.35878 0.20905 0.18786 0 0.29803-0.14831 0.11159-0.14972 0.11159-0.44352z" style="font-feature-settings:normal;font-variant-caps:normal;font-variant-ligatures:normal;font-variant-numeric:normal"/><path d="m106.95 61.879q-0.15255 0.17939-0.44776 0.17939-0.24436 0-0.3729-0.14125-0.12712-0.14266-0.12854-0.42092v-0.99439h0.26131v0.98733q0 0.34747 0.2825 0.34747 0.29945 0 0.39833-0.22317v-1.1116h0.26131v1.5283h-0.2486z" style="font-feature-settings:normal;font-variant-caps:normal;font-variant-ligatures:normal;font-variant-numeric:normal"/><path d="m107.96 60.131v0.37007h0.28532v0.20199h-0.28532v0.94778q0 0.09181 0.0381 0.13842 0.0381 0.0452 0.12995 0.0452 0.0452 0 0.1243-0.01695v0.21187q-0.10312 0.02825-0.20058 0.02825-0.17515 0-0.26413-0.10594-0.089-0.10594-0.089-0.30086v-0.94778h-0.27826v-0.20199h0.27826v-0.37007z" style="font-feature-settings:normal;font-variant-caps:normal;font-variant-ligatures:normal;font-variant-numeric:normal"/><path d="m110.59 62.03h-1.3475v-0.18786l0.71189-0.79099q0.1582-0.17939 0.21753-0.29097 0.0607-0.113 0.0607-0.23306 0-0.16102-0.0975-0.26414t-0.2599-0.10311q-0.19492 0-0.30368 0.11159-0.10735 0.11017-0.10735 0.30792h-0.26131q0-0.28391 0.18221-0.45906 0.18362-0.17515 0.49013-0.17515 0.28674 0 0.45341 0.15114 0.16668 0.14972 0.16668 0.39974 0 0.30369-0.38703 0.7232l-0.55087 0.59748h1.0325z" style="font-feature-settings:normal;font-variant-caps:normal;font-variant-ligatures:normal;font-variant-numeric:normal"/></g><path d="m100.61 64.327h36.777v5.2917h-36.777z" fill="#3b3b3b" stroke="#333"/><g fill="#888" style="font-variant-caps:normal;font-variant-ligatures:normal;font-variant-numeric:normal" aria-label="mode:"><path d="m101.98 66.309 7e-3 0.1695q0.16809-0.19775 0.45341-0.19775 0.32064 0 0.43646 0.24577 0.0763-0.11017 0.19775-0.17797 0.12289-0.0678 0.28956-0.0678 0.50285 0 0.51132 0.53251v1.0241h-0.26131v-1.0085q0-0.16385-0.0749-0.24436-0.0749-0.08192-0.25143-0.08192-0.14548 0-0.24153 0.08757-0.0961 0.08616-0.11159 0.23306v1.0142h-0.26272v-1.0015q0-0.33335-0.32629-0.33335-0.25707 0-0.35171 0.21894v1.1159h-0.26131v-1.5283z"/><path d="m104.2 67.059q0-0.22459 0.0876-0.40397 0.089-0.17939 0.24577-0.27685 0.1582-0.09746 0.36019-0.09746 0.31216 0 0.50426 0.21611 0.19351 0.21611 0.19351 0.57488v0.01836q0 0.22317-0.0862 0.40115-0.0847 0.17656-0.24436 0.27544-0.1582 0.09887-0.36442 0.09887-0.31075 0-0.50426-0.21611-0.1921-0.21611-0.1921-0.57206zm0.26273 0.03107q0 0.25425 0.11723 0.40821 0.11865 0.15396 0.3164 0.15396 0.19916 0 0.3164-0.15537 0.11724-0.15679 0.11724-0.43787 0-0.25142-0.12007-0.4068-0.11865-0.15679-0.31639-0.15679-0.19351 0-0.31216 0.15396-0.11865 0.15396-0.11865 0.4407z"/><path d="m105.86 67.06q0-0.35171 0.16668-0.565 0.16667-0.2147 0.43646-0.2147 0.26837 0 0.42515 0.18362v-0.79664h0.26132v2.1696h-0.24013l-0.0127-0.16385q-0.15679 0.1921-0.43646 0.1921-0.26555 0-0.43363-0.21752-0.16668-0.21752-0.16668-0.56782zm0.26131 0.02966q0 0.2599 0.10735 0.4068t0.29662 0.1469q0.2486 0 0.36301-0.22317v-0.70201q-0.11723-0.21611-0.36018-0.21611-0.1921 0-0.29945 0.14831-0.10735 0.14831-0.10735 0.43928z"/><path d="m108.19 67.865q-0.31075 0-0.50567-0.2034-0.19493-0.20481-0.19493-0.54663v-0.04803q0-0.22741 0.0862-0.40538 0.0876-0.17939 0.24294-0.27967 0.15679-0.1017 0.339-0.1017 0.29804 0 0.4633 0.19634t0.16526 0.56217v0.10876h-1.0354q6e-3 0.226 0.13137 0.36584 0.12712 0.13842 0.32204 0.13842 0.13843 0 0.23448-0.0565 0.0961-0.0565 0.16808-0.14972l0.15961 0.1243q-0.19209 0.29521-0.57629 0.29521zm-0.0325-1.3701q-0.1582 0-0.26555 0.11582-0.10735 0.11441-0.13277 0.32205h0.76557v-0.01977q-0.0113-0.19916-0.10735-0.30792-0.0961-0.11017-0.2599-0.11017z"/><path d="m109.08 67.7q0-0.0678 0.0395-0.113 0.041-0.0452 0.12147-0.0452 0.0805 0 0.12148 0.0452 0.0424 0.0452 0.0424 0.113 0 0.06497-0.0424 0.10876-0.041 0.04379-0.12148 0.04379-0.0805 0-0.12147-0.04379-0.0395-0.04379-0.0395-0.10876zm1e-3 -1.2472q0-0.0678 0.0396-0.113 0.041-0.0452 0.12147-0.0452 0.0805 0 0.12148 0.0452 0.0424 0.0452 0.0424 0.113 0 0.06497-0.0424 0.10876-0.041 0.04379-0.12148 0.04379-0.0805 0-0.12147-0.04379-0.0396-0.04379-0.0396-0.10876z"/></g><g fill="#ddd" style="font-variant-caps:normal;font-variant-ligatures:normal;font-variant-numeric:normal" aria-label="normal"><path d="m110.78 66.311 8e-3 0.1921q0.17514-0.22035 0.45764-0.22035 0.48449 0 0.48872 0.54663v1.0099h-0.26131v-1.0113q-1e-3 -0.16526-0.0763-0.24436-0.0735-0.0791-0.23024-0.0791-0.12712 0-0.22317 0.0678-0.096 0.0678-0.14972 0.17797v1.089h-0.26132v-1.5283z"/><path d="m112.06 67.061q0-0.22459 0.0876-0.40397 0.089-0.17939 0.24577-0.27685 0.1582-0.09746 0.36019-0.09746 0.31216 0 0.50426 0.21611 0.19351 0.21611 0.19351 0.57488v0.01836q0 0.22317-0.0862 0.40115-0.0847 0.17656-0.24436 0.27544-0.1582 0.09887-0.36443 0.09887-0.31074 0-0.50425-0.21611-0.1921-0.21611-0.1921-0.57206zm0.26272 0.03108q0 0.25425 0.11724 0.40821 0.11865 0.15396 0.31639 0.15396 0.19917 0 0.3164-0.15537 0.11724-0.15679 0.11724-0.43787 0-0.25142-0.12006-0.4068-0.11865-0.15679-0.3164-0.15679-0.19351 0-0.31216 0.15396-0.11865 0.15396-0.11865 0.4407z"/><path d="m114.51 66.545q-0.0593-0.0099-0.12854-0.0099-0.25707 0-0.34888 0.21894v1.0848h-0.26131v-1.5283h0.25425l4e-3 0.17656q0.12854-0.20481 0.36443-0.20481 0.0763 0 0.11582 0.01978z"/><path d="m115 66.311 7e-3 0.1695q0.16809-0.19775 0.45341-0.19775 0.32063 0 0.43646 0.24577 0.0763-0.11017 0.19775-0.17797 0.12288-0.0678 0.28956-0.0678 0.50284 0 0.51132 0.53251v1.0241h-0.26131v-1.0085q0-0.16385-0.0749-0.24436-0.0749-0.08192-0.25143-0.08192-0.14548 0-0.24153 0.08757-0.096 0.08616-0.11159 0.23306v1.0142h-0.26272v-1.0015q0-0.33335-0.32629-0.33335-0.25707 0-0.35171 0.21894v1.1159h-0.26131v-1.5283z"/><path d="m118.23 67.839q-0.0226-0.0452-0.0367-0.16102-0.18221 0.18927-0.43504 0.18927-0.226 0-0.37149-0.12712-0.14407-0.12854-0.14407-0.32487 0-0.23871 0.18079-0.37007 0.18222-0.13277 0.51133-0.13277h0.25424v-0.12006q0-0.13701-0.0819-0.21752-0.0819-0.08192-0.24154-0.08192-0.13983 0-0.23447 0.07062-0.0946 0.07062-0.0946 0.17091h-0.26272q0-0.11441 0.0805-0.22035 0.0819-0.10735 0.22035-0.1695 0.13984-0.06215 0.30651-0.06215 0.26414 0 0.41386 0.13277 0.14973 0.13136 0.15538 0.36301v0.70342q0 0.21046 0.0537 0.33476v0.0226zm-0.43364-0.19916q0.12289 0 0.23306-0.06356 0.11018-0.06356 0.15961-0.16526v-0.31357h-0.20481q-0.48024 0-0.48024 0.28108 0 0.12289 0.0819 0.1921 0.0819 0.06921 0.21046 0.06921z"/><path d="m119.15 67.839h-0.26131v-2.1696h0.26131z"/></g></g><path d="m133.82 66.311 1.0583 1.3229 1.0583-1.3229" fill="none" stroke="#aaa" stroke-width=".3175"/></g><g transform="matrix(3.7795 0 0 3.7795 -17.681 -343.23)"><path d="m53.403 103.21c-0.7329 0-1.3229 0.59002-1.3229 1.3229v19.315h39.952v-19.315c0-0.73289-0.59002-1.3229-1.3229-1.3229z" fill="#515457" stroke="#222" stroke-width=".26458"/><path d="m52.214 107.84h39.687v15.876h-39.687z" fill="#3c3f43"/><path d="m91.903 107.71h-39.687" fill="none" stroke="#333" stroke-width=".26458px"/><g fill="#888" stroke-width=".26458" style="font-feature-settings:normal;font-variant-caps:normal;font-variant-ligatures:normal;font-variant-numeric:normal" aria-label="Output"><path d="m82.403 110.29q0 0.30227-0.1017 0.52827-0.1017 0.22459-0.28815 0.34324t-0.43505 0.11865q-0.24295 0-0.43081-0.11865-0.18786-0.12006-0.29238-0.34041-0.10311-0.22176-0.10594-0.51274v-0.14831q0-0.29662 0.10311-0.52403t0.29097-0.34747q0.18927-0.12148 0.43222-0.12148 0.24719 0 0.43505 0.12006 0.18927 0.11865 0.29097 0.34606 0.1017 0.226 0.1017 0.52686zm-0.26978-0.13277q0-0.36584-0.1469-0.56076-0.1469-0.19634-0.41104-0.19634-0.25707 0-0.40538 0.19634-0.1469 0.19492-0.15114 0.54239v0.15114q0 0.35454 0.14831 0.55793 0.14972 0.20199 0.41104 0.20199 0.26272 0 0.4068-0.19069 0.14407-0.19209 0.14831-0.54945z" style="font-feature-settings:normal;font-variant-caps:normal;font-variant-ligatures:normal;font-variant-numeric:normal"/><path d="m83.712 111.1q-0.15255 0.17939-0.44776 0.17939-0.24436 0-0.3729-0.14125-0.12712-0.14266-0.12854-0.42092v-0.9944h0.26131v0.98733q0 0.34748 0.2825 0.34748 0.29945 0 0.39832-0.22318v-1.1116h0.26131v1.5283h-0.2486z" style="font-feature-settings:normal;font-variant-caps:normal;font-variant-ligatures:normal;font-variant-numeric:normal"/><path d="m84.718 109.35v0.37007h0.28532v0.20199h-0.28532v0.94778q0 0.0918 0.03814 0.13842 0.03814 0.0452 0.12995 0.0452 0.0452 0 0.1243-0.0169v0.21188q-0.10311 0.0282-0.20057 0.0282-0.17515 0-0.26414-0.10594-0.08899-0.10594-0.08899-0.30086v-0.94778h-0.27826v-0.20199h0.27826v-0.37007z" style="font-feature-settings:normal;font-variant-caps:normal;font-variant-ligatures:normal;font-variant-numeric:normal"/><path d="m86.599 110.5q0 0.34888-0.15961 0.56217-0.15961 0.21329-0.43222 0.21329-0.27826 0-0.43787-0.17656v0.7359h-0.26131v-2.1159h0.23871l0.01271 0.1695q0.15961-0.19775 0.44352-0.19775 0.27544 0 0.43505 0.20764 0.16102 0.20763 0.16102 0.57771zm-0.26131-0.0297q0-0.25849-0.11017-0.40821-0.11017-0.14973-0.30227-0.14973-0.2373 0-0.35595 0.21046v0.73026q0.11724 0.20905 0.35877 0.20905 0.18786 0 0.29804-0.14831 0.11159-0.14972 0.11159-0.44352z" style="font-feature-settings:normal;font-variant-caps:normal;font-variant-ligatures:normal;font-variant-numeric:normal"/><path d="m87.874 111.1q-0.15255 0.17939-0.44776 0.17939-0.24436 0-0.3729-0.14125-0.12712-0.14266-0.12854-0.42092v-0.9944h0.26131v0.98733q0 0.34748 0.2825 0.34748 0.29945 0 0.39832-0.22318v-1.1116h0.26131v1.5283h-0.2486z" style="font-feature-settings:normal;font-variant-caps:normal;font-variant-ligatures:normal;font-variant-numeric:normal"/><path d="m88.88 109.35v0.37007h0.28532v0.20199h-0.28532v0.94778q0 0.0918 0.03814 0.13842 0.03814 0.0452 0.12995 0.0452 0.0452 0 0.1243-0.0169v0.21188q-0.10311 0.0282-0.20057 0.0282-0.17515 0-0.26414-0.10594-0.08899-0.10594-0.08899-0.30086v-0.94778h-0.27826v-0.20199h0.27826v-0.37007z" style="font-feature-settings:normal;font-variant-caps:normal;font-variant-ligatures:normal;font-variant-numeric:normal"/></g><path d="m90.845 110.23 1.0583 1.0583 1.0583-1.0583-1.0583-1.0583z" fill="#bbb" stroke="#222" stroke-width=".26458"/><g fill="#ddd" stroke-width=".26458" style="font-feature-settings:normal;font-variant-caps:normal;font-variant-ligatures:normal;font-variant-numeric:normal" aria-label="Composite"><path d="m66.772 105.57q-0.03814 0.32629-0.24154 0.50426-0.20199 0.17656-0.53816 0.17656-0.36442 0-0.58477-0.26131-0.21894-0.26131-0.21894-0.69918v-0.19775q0-0.28673 0.1017-0.50426 0.10311-0.21752 0.29097-0.33335 0.18786-0.11723 0.43505-0.11723 0.3277 0 0.52545 0.18362 0.19775 0.18221 0.23024 0.50567h-0.27261q-0.03531-0.24577-0.15396-0.35595-0.11724-0.11017-0.32911-0.11017-0.2599 0-0.40821 0.1921-0.1469 0.1921-0.1469 0.54663v0.19916q0 0.33476 0.13984 0.53251 0.13984 0.19775 0.39126 0.19775 0.226 0 0.34606-0.1017 0.12147-0.10311 0.16102-0.35736z" style="font-feature-settings:normal;font-variant-caps:normal;font-variant-ligatures:normal;font-variant-numeric:normal"/><path d="m67.032 105.45q0-0.22459 0.08757-0.40397 0.08899-0.17939 0.24577-0.27685 0.1582-0.0975 0.36018-0.0975 0.31216 0 0.50426 0.21611 0.19351 0.21611 0.19351 0.57488v0.0184q0 0.22317-0.08616 0.40114-0.08475 0.17656-0.24436 0.27544-0.1582 0.0989-0.36442 0.0989-0.31075 0-0.50426-0.21611-0.1921-0.21611-0.1921-0.57206zm0.26272 0.0311q0 0.25424 0.11724 0.40821 0.11865 0.15396 0.3164 0.15396 0.19916 0 0.3164-0.15538 0.11724-0.15678 0.11724-0.43787 0-0.25142-0.12006-0.4068-0.11865-0.15678-0.3164-0.15678-0.19351 0-0.31216 0.15396t-0.11865 0.4407z" style="font-feature-settings:normal;font-variant-caps:normal;font-variant-ligatures:normal;font-variant-numeric:normal"/><path d="m68.997 104.7 0.0071 0.1695q0.16809-0.19775 0.45341-0.19775 0.32064 0 0.43646 0.24577 0.07627-0.11017 0.19775-0.17797 0.12289-0.0678 0.28956-0.0678 0.50285 0 0.51132 0.53251v1.024h-0.26131v-1.0085q0-0.16384-0.07486-0.24436-0.07486-0.0819-0.25142-0.0819-0.14549 0-0.24154 0.0876-0.09605 0.0862-0.11159 0.23306v1.0142h-0.26272v-1.0014q0-0.33335-0.32629-0.33335-0.25707 0-0.35171 0.21894v1.1159h-0.26131v-1.5283z" style="font-feature-settings:normal;font-variant-caps:normal;font-variant-ligatures:normal;font-variant-numeric:normal"/><path d="m72.578 105.48q0 0.34888-0.15961 0.56217-0.15961 0.21328-0.43222 0.21328-0.27826 0-0.43787-0.17656v0.73591h-0.26131v-2.1159h0.23871l0.01271 0.1695q0.15961-0.19775 0.44352-0.19775 0.27544 0 0.43505 0.20763 0.16102 0.20764 0.16102 0.57771zm-0.26131-0.0297q0-0.25848-0.11017-0.40821-0.11017-0.14972-0.30227-0.14972-0.2373 0-0.35595 0.21046v0.73026q0.11724 0.20905 0.35877 0.20905 0.18786 0 0.29804-0.14831 0.11159-0.14973 0.11159-0.44353z" style="font-feature-settings:normal;font-variant-caps:normal;font-variant-ligatures:normal;font-variant-numeric:normal"/><path d="m72.84 105.45q0-0.22459 0.08758-0.40397 0.08899-0.17939 0.24577-0.27685 0.1582-0.0975 0.36018-0.0975 0.31216 0 0.50426 0.21611 0.19351 0.21611 0.19351 0.57488v0.0184q0 0.22317-0.08616 0.40114-0.08475 0.17656-0.24436 0.27544-0.1582 0.0989-0.36442 0.0989-0.31075 0-0.50426-0.21611-0.1921-0.21611-0.1921-0.57206zm0.26272 0.0311q0 0.25424 0.11724 0.40821 0.11865 0.15396 0.3164 0.15396 0.19916 0 0.3164-0.15538 0.11724-0.15678 0.11724-0.43787 0-0.25142-0.12006-0.4068-0.11865-0.15678-0.3164-0.15678-0.19351 0-0.31216 0.15396t-0.11865 0.4407z" style="font-feature-settings:normal;font-variant-caps:normal;font-variant-ligatures:normal;font-variant-numeric:normal"/><path d="m75.449 105.82q0-0.10594-0.08051-0.16385-0.0791-0.0593-0.27826-0.1017-0.19775-0.0424-0.31499-0.1017-0.11582-0.0593-0.17232-0.14125-0.05509-0.0819-0.05509-0.19492 0-0.18786 0.1582-0.31781 0.15961-0.12995 0.4068-0.12995 0.2599 0 0.42092 0.13419 0.16244 0.13418 0.16244 0.34323h-0.26272q0-0.10735-0.09181-0.18504-0.0904-0.0777-0.22882-0.0777-0.14266 0-0.22317 0.0622-0.08051 0.0622-0.08051 0.16243 0 0.0946 0.07486 0.14266 0.07486 0.048 0.26979 0.0918 0.19634 0.0438 0.31781 0.10452 0.12147 0.0607 0.17939 0.1469 0.05933 0.0847 0.05933 0.20764 0 0.20481-0.16385 0.32911-0.16385 0.12288-0.42516 0.12288-0.18362 0-0.32487-0.065t-0.22176-0.1808q-0.0791-0.11724-0.0791-0.25284h0.26131q0.0071 0.13137 0.10452 0.20905 0.09887 0.0763 0.2599 0.0763 0.14831 0 0.2373-0.0593 0.0904-0.0607 0.0904-0.16102z" style="font-feature-settings:normal;font-variant-caps:normal;font-variant-ligatures:normal;font-variant-numeric:normal"/><path d="m76.335 106.22h-0.26131v-1.5283h0.26131zm-0.2825-1.9337q0-0.0636 0.03814-0.10735 0.03955-0.0438 0.11582-0.0438 0.07627 0 0.11582 0.0438 0.03955 0.0438 0.03955 0.10735 0 0.0636-0.03955 0.10594-0.03955 0.0424-0.11582 0.0424-0.07628 0-0.11582-0.0424-0.03814-0.0424-0.03814-0.10594z" style="font-feature-settings:normal;font-variant-caps:normal;font-variant-ligatures:normal;font-variant-numeric:normal"/><path d="m77.108 104.32v0.37007h0.28532v0.20198h-0.28532v0.94779q0 0.0918 0.03814 0.13842 0.03814 0.0452 0.12995 0.0452 0.0452 0 0.1243-0.0169v0.21187q-0.10311 0.0282-0.20057 0.0282-0.17515 0-0.26414-0.10593-0.08899-0.10594-0.08899-0.30086v-0.94779h-0.27826v-0.20198h0.27826v-0.37007z" style="font-feature-settings:normal;font-variant-caps:normal;font-variant-ligatures:normal;font-variant-numeric:normal"/><path d="m78.332 106.25q-0.31075 0-0.50567-0.2034-0.19492-0.20481-0.19492-0.54663v-0.048q0-0.22742 0.08616-0.40539 0.08757-0.17939 0.24295-0.27967 0.15679-0.1017 0.339-0.1017 0.29804 0 0.4633 0.19633 0.16526 0.19634 0.16526 0.56218v0.10876h-1.0354q0.0057 0.226 0.13136 0.36583 0.12712 0.13843 0.32205 0.13843 0.13842 0 0.23447-0.0565 0.09605-0.0565 0.16809-0.14973l0.15961 0.1243q-0.1921 0.29521-0.5763 0.29521zm-0.03249-1.3701q-0.1582 0-0.26555 0.11582-0.10735 0.11441-0.13277 0.32205h0.76557v-0.0198q-0.0113-0.19916-0.10735-0.30792-0.09605-0.11017-0.2599-0.11017z" style="font-feature-settings:normal;font-variant-caps:normal;font-variant-ligatures:normal;font-variant-numeric:normal"/></g><path d="m51.42 110.23 1.0583 1.0583 1.0583-1.0583-1.0583-1.0583z" fill="#bbb" stroke="#222" stroke-width=".26458"/><g fill="#888" stroke-width=".26458" style="font-feature-settings:normal;font-variant-caps:normal;font-variant-ligatures:normal;font-variant-numeric:normal" aria-label="Input 1"><path d="m55.396 111.24h-0.2712v-2.0566h0.2712z" style="font-feature-settings:normal;font-variant-caps:normal;font-variant-ligatures:normal;font-variant-numeric:normal"/><path d="m56.098 109.71 0.0085 0.1921q0.17515-0.22035 0.45765-0.22035 0.48448 0 0.48872 0.54663v1.0099h-0.26131v-1.0113q-0.0014-0.16526-0.07627-0.24436-0.07345-0.0791-0.23024-0.0791-0.12712 0-0.22317 0.0678t-0.14972 0.17797v1.089h-0.26131v-1.5283z" style="font-feature-settings:normal;font-variant-caps:normal;font-variant-ligatures:normal;font-variant-numeric:normal"/><path d="m58.738 110.49q0 0.34888-0.15961 0.56217-0.15961 0.21328-0.43222 0.21328-0.27826 0-0.43787-0.17656v0.73591h-0.26131v-2.1159h0.23871l0.01271 0.1695q0.15961-0.19775 0.44352-0.19775 0.27544 0 0.43505 0.20763 0.16102 0.20764 0.16102 0.57771zm-0.26131-0.0297q0-0.25848-0.11017-0.40821-0.11017-0.14972-0.30227-0.14972-0.2373 0-0.35595 0.21046v0.73026q0.11724 0.20905 0.35877 0.20905 0.18786 0 0.29804-0.14832 0.11159-0.14972 0.11159-0.44352z" style="font-feature-settings:normal;font-variant-caps:normal;font-variant-ligatures:normal;font-variant-numeric:normal"/><path d="m60.014 111.08q-0.15255 0.17938-0.44776 0.17938-0.24436 0-0.3729-0.14125-0.12712-0.14266-0.12854-0.42092v-0.99439h0.26131v0.98733q0 0.34747 0.2825 0.34747 0.29945 0 0.39832-0.22317v-1.1116h0.26131v1.5283h-0.2486z" style="font-feature-settings:normal;font-variant-caps:normal;font-variant-ligatures:normal;font-variant-numeric:normal"/><path d="m61.019 109.34v0.37007h0.28532v0.20198h-0.28532v0.94779q0 0.0918 0.03814 0.13842 0.03814 0.0452 0.12995 0.0452 0.0452 0 0.1243-0.0169v0.21187q-0.10311 0.0282-0.20057 0.0282-0.17515 0-0.26414-0.10593-0.08899-0.10594-0.08899-0.30086v-0.94779h-0.27826v-0.20198h0.27826v-0.37007z" style="font-feature-settings:normal;font-variant-caps:normal;font-variant-ligatures:normal;font-variant-numeric:normal"/><path d="m63.158 111.24h-0.26272v-1.7416l-0.52686 0.19351v-0.2373l0.74862-0.28108h0.04096z" style="font-feature-settings:normal;font-variant-caps:normal;font-variant-ligatures:normal;font-variant-numeric:normal"/></g><path d="m51.42 113.67 1.0583 1.0583 1.0583-1.0583-1.0583-1.0583z" fill="#bbb" stroke="#222" stroke-width=".26458"/><g stroke-width=".26458"><g fill="#888" style="font-feature-settings:normal;font-variant-caps:normal;font-variant-ligatures:normal;font-variant-numeric:normal" aria-label="Input 2"><path d="m55.396 114.68h-0.2712v-2.0566h0.2712z" style="font-feature-settings:normal;font-variant-caps:normal;font-variant-ligatures:normal;font-variant-numeric:normal"/><path d="m56.098 113.15 0.0085 0.1921q0.17515-0.22035 0.45765-0.22035 0.48448 0 0.48872 0.54664v1.0099h-0.26131v-1.0114q-0.0014-0.16526-0.07627-0.24436-0.07345-0.0791-0.23024-0.0791-0.12712 0-0.22317 0.0678t-0.14972 0.17798v1.089h-0.26131v-1.5283z" style="font-feature-settings:normal;font-variant-caps:normal;font-variant-ligatures:normal;font-variant-numeric:normal"/><path d="m58.738 113.93q0 0.34888-0.15961 0.56217-0.15961 0.21329-0.43222 0.21329-0.27826 0-0.43787-0.17656v0.7359h-0.26131v-2.1159h0.23871l0.01271 0.1695q0.15961-0.19775 0.44352-0.19775 0.27544 0 0.43505 0.20764 0.16102 0.20763 0.16102 0.57771zm-0.26131-0.0297q0-0.25849-0.11017-0.40821-0.11017-0.14973-0.30227-0.14973-0.2373 0-0.35595 0.21046v0.73026q0.11724 0.20905 0.35877 0.20905 0.18786 0 0.29804-0.14831 0.11159-0.14972 0.11159-0.44352z" style="font-feature-settings:normal;font-variant-caps:normal;font-variant-ligatures:normal;font-variant-numeric:normal"/><path d="m60.013 114.52q-0.15255 0.17939-0.44776 0.17939-0.24436 0-0.3729-0.14125-0.12712-0.14266-0.12854-0.42092v-0.9944h0.26131v0.98733q0 0.34748 0.2825 0.34748 0.29945 0 0.39832-0.22318v-1.1116h0.26131v1.5283h-0.2486z" style="font-feature-settings:normal;font-variant-caps:normal;font-variant-ligatures:normal;font-variant-numeric:normal"/><path d="m61.019 112.78v0.37007h0.28532v0.20199h-0.28532v0.94778q0 0.0918 0.03814 0.13842 0.03814 0.0452 0.12995 0.0452 0.0452 0 0.1243-0.0169v0.21188q-0.10311 0.0282-0.20057 0.0282-0.17515 0-0.26414-0.10594-0.08899-0.10594-0.08899-0.30086v-0.94778h-0.27826v-0.20199h0.27826v-0.37007z" style="font-feature-settings:normal;font-variant-caps:normal;font-variant-ligatures:normal;font-variant-numeric:normal"/><path d="m63.646 114.68h-1.3475v-0.18786l0.7119-0.791q0.1582-0.17938 0.21752-0.29097 0.06074-0.113 0.06074-0.23306 0-0.16103-0.09746-0.26414t-0.2599-0.10311q-0.19492 0-0.30368 0.11159-0.10735 0.11017-0.10735 0.30792h-0.26131q0-0.28391 0.18221-0.45906 0.18362-0.17515 0.49013-0.17515 0.28674 0 0.45341 0.15114 0.16667 0.14972 0.16667 0.39973 0 0.30369-0.38702 0.7232l-0.55087 0.59748h1.0325z" style="font-feature-settings:normal;font-variant-caps:normal;font-variant-ligatures:normal;font-variant-numeric:normal"/></g><path d="m53.67 116.97h36.777v5.2917h-36.777z" fill="#3b3b3b" stroke="#333"/><g fill="#888" style="font-variant-caps:normal;font-variant-ligatures:normal;font-variant-numeric:normal" aria-label="operator:"><path d="m54.727 119.7q0-0.22459 0.08757-0.40397 0.08899-0.17939 0.24577-0.27685 0.1582-0.0975 0.36018-0.0975 0.31216 0 0.50426 0.21611 0.19351 0.21611 0.19351 0.57488v0.0184q0 0.22318-0.08616 0.40115-0.08475 0.17656-0.24436 0.27544-0.1582 0.0989-0.36442 0.0989-0.31075 0-0.50426-0.21611-0.1921-0.21611-0.1921-0.57206zm0.26272 0.0311q0 0.25425 0.11724 0.40821 0.11865 0.15396 0.3164 0.15396 0.19916 0 0.3164-0.15537 0.11724-0.15679 0.11724-0.43787 0-0.25143-0.12006-0.4068-0.11865-0.15679-0.3164-0.15679-0.19351 0-0.31216 0.15397-0.11865 0.15396-0.11865 0.44069z"/><path d="m57.737 119.74q0 0.34889-0.15961 0.56217-0.15961 0.21329-0.43222 0.21329-0.27826 0-0.43787-0.17656v0.73591h-0.26131v-2.1159h0.23871l0.01271 0.16949q0.15961-0.19774 0.44352-0.19774 0.27544 0 0.43505 0.20763 0.16102 0.20764 0.16102 0.57771zm-0.26131-0.0297q0-0.25849-0.11017-0.40821-0.11018-0.14972-0.30227-0.14972-0.2373 0-0.35595 0.21046v0.73025q0.11724 0.20905 0.35877 0.20905 0.18786 0 0.29804-0.14831 0.11159-0.14972 0.11159-0.44352z"/><path d="m58.703 120.51q-0.31075 0-0.50567-0.2034-0.19492-0.20481-0.19492-0.54663v-0.048q0-0.22741 0.08616-0.40538 0.08757-0.17939 0.24295-0.27968 0.15679-0.10169 0.339-0.10169 0.29804 0 0.4633 0.19633 0.16526 0.19634 0.16526 0.56217v0.10876h-1.0354q0.0057 0.226 0.13136 0.36584 0.12712 0.13842 0.32205 0.13842 0.13842 0 0.23447-0.0565 0.09605-0.0565 0.16809-0.14972l0.15961 0.1243q-0.1921 0.29521-0.5763 0.29521zm-0.03249-1.3701q-0.1582 0-0.26555 0.11583-0.10735 0.11441-0.13277 0.32205h0.76557v-0.0198q-0.0113-0.19916-0.10735-0.30792-0.09605-0.11018-0.2599-0.11018z"/><path d="m60.34 119.19q-0.05933-0.01-0.12854-0.01-0.25707 0-0.34888 0.21894v1.0848h-0.26131v-1.5283h0.25425l0.0042 0.17656q0.12854-0.20481 0.36442-0.20481 0.07627 0 0.11582 0.0198z"/><path d="m61.467 120.48q-0.0226-0.0452-0.03672-0.16102-0.18221 0.18927-0.43505 0.18927-0.226 0-0.37148-0.12712-0.14407-0.12854-0.14407-0.32488 0-0.23871 0.1808-0.37007 0.18221-0.13277 0.51132-0.13277h0.25425v-0.12007q0-0.13701-0.08192-0.21752-0.08192-0.0819-0.24154-0.0819-0.13984 0-0.23447 0.0706-0.09464 0.0706-0.09464 0.17091h-0.26272q0-0.11441 0.08051-0.22035 0.08192-0.10735 0.22035-0.16949 0.13984-0.0622 0.30651-0.0622 0.26414 0 0.41386 0.13277 0.14972 0.13136 0.15537 0.36301v0.70342q0 0.21046 0.05367 0.33476v0.0226zm-0.43363-0.19916q0.12289 0 0.23306-0.0636 0.11018-0.0636 0.15961-0.16526v-0.31358h-0.20481q-0.48025 0-0.48025 0.28109 0 0.12288 0.08192 0.1921 0.08192 0.0692 0.21046 0.0692z"/><path d="m62.451 118.58v0.37008h0.28532v0.20198h-0.28532v0.94778q0 0.0918 0.03814 0.13843 0.03814 0.0452 0.12995 0.0452 0.0452 0 0.1243-0.017v0.21187q-0.10311 0.0282-0.20057 0.0282-0.17515 0-0.26414-0.10594-0.08899-0.10593-0.08899-0.30086v-0.94778h-0.27826v-0.20198h0.27826v-0.37008z"/><path d="m62.944 119.7q0-0.22459 0.08757-0.40397 0.08899-0.17939 0.24577-0.27685 0.1582-0.0975 0.36018-0.0975 0.31216 0 0.50426 0.21611 0.19351 0.21611 0.19351 0.57488v0.0184q0 0.22318-0.08616 0.40115-0.08475 0.17656-0.24436 0.27544-0.1582 0.0989-0.36442 0.0989-0.31075 0-0.50426-0.21611-0.1921-0.21611-0.1921-0.57206zm0.26272 0.0311q0 0.25425 0.11724 0.40821 0.11865 0.15396 0.3164 0.15396 0.19916 0 0.3164-0.15537 0.11724-0.15679 0.11724-0.43787 0-0.25143-0.12006-0.4068-0.11865-0.15679-0.3164-0.15679-0.19351 0-0.31216 0.15397-0.11865 0.15396-0.11865 0.44069z"/><path d="m65.402 119.19q-0.05933-0.01-0.12854-0.01-0.25707 0-0.34888 0.21894v1.0848h-0.26131v-1.5283h0.25425l0.0042 0.17656q0.12854-0.20481 0.36442-0.20481 0.07627 0 0.11582 0.0198z"/><path d="m65.634 120.35q0-0.0678 0.03955-0.113 0.04096-0.0452 0.12148-0.0452 0.08051 0 0.12147 0.0452 0.04237 0.0452 0.04237 0.113 0 0.065-0.04237 0.10876-0.04096 0.0438-0.12147 0.0438-0.08051 0-0.12148-0.0438-0.03955-0.0438-0.03955-0.10876zm0.0014-1.2472q0-0.0678 0.03955-0.113 0.04096-0.0452 0.12147-0.0452 0.08051 0 0.12147 0.0452 0.04238 0.0452 0.04238 0.113 0 0.065-0.04238 0.10876-0.04096 0.0438-0.12147 0.0438-0.08051 0-0.12147-0.0438-0.03955-0.0438-0.03955-0.10876z"/></g><g fill="#ddd" style="font-variant-caps:normal;font-variant-ligatures:normal;font-variant-numeric:normal" aria-label="over"><path d="m67.058 119.71q0-0.22459 0.08757-0.40397 0.08899-0.17939 0.24577-0.27685 0.1582-0.0975 0.36018-0.0975 0.31216 0 0.50426 0.21611 0.19351 0.21611 0.19351 0.57488v0.0184q0 0.22318-0.08616 0.40115-0.08475 0.17656-0.24436 0.27544-0.1582 0.0989-0.36442 0.0989-0.31075 0-0.50426-0.21611-0.1921-0.21611-0.1921-0.57206zm0.26272 0.0311q0 0.25425 0.11724 0.40821 0.11865 0.15396 0.3164 0.15396 0.19916 0 0.3164-0.15537 0.11724-0.15679 0.11724-0.43787 0-0.25143-0.12006-0.4068-0.11865-0.15679-0.3164-0.15679-0.19351 0-0.31216 0.15397-0.11865 0.15396-0.11865 0.44069z"/><path d="m69.26 120.13 0.37855-1.1738h0.26696l-0.54805 1.5283h-0.19916l-0.5537-1.5283h0.26696z"/><path d="m70.773 120.51q-0.31075 0-0.50567-0.2034-0.19492-0.20481-0.19492-0.54663v-0.048q0-0.22741 0.08616-0.40538 0.08758-0.17939 0.24295-0.27968 0.15679-0.10169 0.339-0.10169 0.29804 0 0.4633 0.19633 0.16526 0.19634 0.16526 0.56217v0.10876h-1.0354q0.0056 0.226 0.13136 0.36584 0.12712 0.13842 0.32205 0.13842 0.13842 0 0.23447-0.0565t0.16809-0.14972l0.15961 0.1243q-0.1921 0.29521-0.5763 0.29521zm-0.03249-1.3701q-0.1582 0-0.26555 0.11583-0.10735 0.11441-0.13277 0.32205h0.76557v-0.0198q-0.0113-0.19916-0.10735-0.30792-0.09605-0.11018-0.2599-0.11018z"/><path d="m72.41 119.19q-0.05932-0.01-0.12854-0.01-0.25707 0-0.34888 0.21894v1.0848h-0.26131v-1.5283h0.25425l0.0042 0.17656q0.12854-0.20481 0.36442-0.20481 0.07628 0 0.11582 0.0198z"/></g></g><path d="m86.875 118.96 1.0583 1.3229 1.0583-1.3229" fill="none" stroke="#aaa" stroke-width=".3175"/></g><g transform="matrix(3.7795 0 0 3.7795 168.93 -216.41)"><path d="m50.253 69.66c-0.7329 0-1.3229 0.59002-1.3229 1.3229v10.319h39.952v-10.319c0-0.73289-0.59001-1.3229-1.3229-1.3229z" fill="#515457" stroke="#222" stroke-width=".26458"/><path d="m49.063 74.29h39.688v6.8798h-39.688z" fill="#3c3f43"/><path d="m88.753 74.158h-39.687" fill="none" stroke="#333" stroke-width=".26458px"/><g fill="#888" stroke-width=".26458" style="font-feature-settings:normal;font-variant-caps:normal;font-variant-ligatures:normal;font-variant-numeric:normal" aria-label="Output"><path d="m79.252 76.734q0 0.30227-0.1017 0.52827-0.1017 0.22459-0.28815 0.34324-0.18645 0.11865-0.43505 0.11865-0.24295 0-0.43081-0.11865-0.18786-0.12006-0.29239-0.34041-0.10311-0.22176-0.10594-0.51273v-0.14831q0-0.29662 0.10311-0.52403 0.10311-0.22741 0.29097-0.34747 0.18927-0.12147 0.43222-0.12147 0.24719 0 0.43505 0.12006 0.18927 0.11865 0.29097 0.34606 0.1017 0.226 0.1017 0.52686zm-0.26979-0.13277q0-0.36584-0.1469-0.56076-0.1469-0.19634-0.41104-0.19634-0.25707 0-0.40538 0.19634-0.1469 0.19492-0.15114 0.5424v0.15114q0 0.35454 0.14831 0.55793 0.14972 0.20199 0.41103 0.20199 0.26272 0 0.4068-0.19069 0.14407-0.1921 0.14831-0.54946z" style="font-feature-settings:normal;font-variant-caps:normal;font-variant-ligatures:normal;font-variant-numeric:normal"/><path d="m80.561 77.545q-0.15255 0.17939-0.44776 0.17939-0.24436 0-0.3729-0.14125-0.12712-0.14266-0.12854-0.42092v-0.99439h0.26131v0.98733q0 0.34747 0.2825 0.34747 0.29945 0 0.39832-0.22317v-1.1116h0.26131v1.5283h-0.2486z" style="font-feature-settings:normal;font-variant-caps:normal;font-variant-ligatures:normal;font-variant-numeric:normal"/><path d="m81.567 75.797v0.37007h0.28532v0.20199h-0.28532v0.94778q0 0.09181 0.03814 0.13842 0.03814 0.0452 0.12995 0.0452 0.0452 0 0.1243-0.01695v0.21187q-0.10311 0.02825-0.20057 0.02825-0.17515 0-0.26414-0.10594-0.08899-0.10594-0.08899-0.30086v-0.94778h-0.27826v-0.20199h0.27826v-0.37007z" style="font-feature-settings:normal;font-variant-caps:normal;font-variant-ligatures:normal;font-variant-numeric:normal"/><path d="m83.449 76.949q0 0.34889-0.15961 0.56217-0.15961 0.21329-0.43222 0.21329-0.27826 0-0.43787-0.17656v0.73591h-0.26131v-2.1159h0.23871l0.01271 0.1695q0.15961-0.19775 0.44352-0.19775 0.27544 0 0.43505 0.20764 0.16102 0.20764 0.16102 0.57771zm-0.26131-0.02966q0-0.25849-0.11018-0.40821-0.11017-0.14972-0.30227-0.14972-0.2373 0-0.35595 0.21046v0.73026q0.11724 0.20905 0.35877 0.20905 0.18786 0 0.29804-0.14831 0.11159-0.14972 0.11159-0.44352z" style="font-feature-settings:normal;font-variant-caps:normal;font-variant-ligatures:normal;font-variant-numeric:normal"/><path d="m84.724 77.545q-0.15255 0.17939-0.44776 0.17939-0.24436 0-0.3729-0.14125-0.12712-0.14266-0.12854-0.42092v-0.99439h0.26131v0.98733q0 0.34747 0.2825 0.34747 0.29945 0 0.39832-0.22317v-1.1116h0.26131v1.5283h-0.2486z" style="font-feature-settings:normal;font-variant-caps:normal;font-variant-ligatures:normal;font-variant-numeric:normal"/><path d="m85.73 75.797v0.37007h0.28532v0.20199h-0.28532v0.94778q0 0.09181 0.03814 0.13842 0.03814 0.0452 0.12995 0.0452 0.0452 0 0.1243-0.01695v0.21187q-0.10311 0.02825-0.20057 0.02825-0.17515 0-0.26414-0.10594-0.08899-0.10594-0.08899-0.30086v-0.94778h-0.27826v-0.20199h0.27826v-0.37007z" style="font-feature-settings:normal;font-variant-caps:normal;font-variant-ligatures:normal;font-variant-numeric:normal"/></g><path d="m87.695 76.672 1.0584 1.0583 1.0583-1.0583-1.0583-1.0583z" fill="#bbb" stroke="#222" stroke-width=".26458"/><g fill="#ddd" stroke-width=".26458" style="font-feature-settings:normal;font-variant-caps:normal;font-variant-ligatures:normal;font-variant-numeric:normal" aria-label="Merge"><path d="m65.348 70.613 0.67234 1.678 0.67235-1.678h0.35171v2.0566h-0.2712v-0.80088l0.02542-0.86444-0.67517 1.6653h-0.20764l-0.67376-1.6611 0.02684 0.86021v0.80088h-0.2712v-2.0566z" style="font-feature-settings:normal;font-variant-caps:normal;font-variant-ligatures:normal;font-variant-numeric:normal"/><path d="m68.117 72.698q-0.31075 0-0.50567-0.2034-0.19492-0.20481-0.19492-0.54663v-0.04802q0-0.22741 0.08616-0.40538 0.08758-0.17939 0.24295-0.27967 0.15679-0.1017 0.339-0.1017 0.29804 0 0.4633 0.19634 0.16526 0.19634 0.16526 0.56217v0.10876h-1.0354q0.0057 0.226 0.13136 0.36584 0.12712 0.13842 0.32205 0.13842 0.13842 0 0.23447-0.0565 0.09605-0.0565 0.16809-0.14972l0.15961 0.1243q-0.1921 0.29521-0.5763 0.29521zm-0.03249-1.3701q-0.1582 0-0.26555 0.11582-0.10735 0.11441-0.13277 0.32205h0.76557v-0.01977q-0.0113-0.19916-0.10735-0.30792-0.09605-0.11017-0.2599-0.11017z" style="font-feature-settings:normal;font-variant-caps:normal;font-variant-ligatures:normal;font-variant-numeric:normal"/><path d="m69.754 71.375q-0.05933-0.0099-0.12854-0.0099-0.25707 0-0.34888 0.21894v1.0848h-0.26131v-1.5283h0.25425l0.0042 0.17656q0.12854-0.20481 0.36442-0.20481 0.07627 0 0.11582 0.01977z" style="font-feature-settings:normal;font-variant-caps:normal;font-variant-ligatures:normal;font-variant-numeric:normal"/><path d="m69.905 71.892q0-0.35736 0.16526-0.56782 0.16526-0.21187 0.43787-0.21187 0.27967 0 0.43646 0.19775l0.01271-0.1695h0.23871v1.4916q0 0.29662-0.17656 0.46753-0.17515 0.17091-0.47177 0.17091-0.16526 0-0.32346-0.07062t-0.24154-0.19351l0.1356-0.15679q0.16809 0.20764 0.41104 0.20764 0.19069 0 0.29662-0.10735 0.10735-0.10735 0.10735-0.30227v-0.13136q-0.15679 0.1808-0.42798 0.1808-0.26837 0-0.43505-0.21611-0.16526-0.21611-0.16526-0.58901zm0.26272 0.02966q0 0.25849 0.10594 0.4068 0.10594 0.1469 0.29662 0.1469 0.24719 0 0.36301-0.22459v-0.69777q-0.12006-0.21894-0.36018-0.21894-0.19069 0-0.29804 0.14831-0.10735 0.14831-0.10735 0.43928z" style="font-feature-settings:normal;font-variant-caps:normal;font-variant-ligatures:normal;font-variant-numeric:normal"/><path d="m72.224 72.698q-0.31075 0-0.50567-0.2034-0.19492-0.20481-0.19492-0.54663v-0.04802q0-0.22741 0.08616-0.40538 0.08758-0.17939 0.24295-0.27967 0.15679-0.1017 0.339-0.1017 0.29804 0 0.4633 0.19634t0.16526 0.56217v0.10876h-1.0354q0.0057 0.226 0.13136 0.36584 0.12712 0.13842 0.32205 0.13842 0.13842 0 0.23447-0.0565t0.16809-0.14972l0.15961 0.1243q-0.1921 0.29521-0.5763 0.29521zm-0.03249-1.3701q-0.1582 0-0.26555 0.11582-0.10735 0.11441-0.13277 0.32205h0.76557v-0.01977q-0.0113-0.19916-0.10735-0.30792-0.09605-0.11017-0.2599-0.11017z" style="font-feature-settings:normal;font-variant-caps:normal;font-variant-ligatures:normal;font-variant-numeric:normal"/></g><path d="m48.27 76.672 1.0583 1.0583 1.0583-1.0583-1.0583-1.0583z" fill="#bbb" stroke="#222" stroke-width=".26458"/><g fill="#888" stroke-width=".26458" style="font-feature-settings:normal;font-variant-caps:normal;font-variant-ligatures:normal;font-variant-numeric:normal" aria-label="Input 1"><path d="m52.246 77.682h-0.2712v-2.0566h0.2712z" style="font-feature-settings:normal;font-variant-caps:normal;font-variant-ligatures:normal;font-variant-numeric:normal"/><path d="m52.948 76.153 0.0085 0.1921q0.17515-0.22035 0.45765-0.22035 0.48448 0 0.48872 0.54663v1.0099h-0.26131v-1.0113q-0.0014-0.16526-0.07627-0.24436-0.07345-0.0791-0.23024-0.0791-0.12712 0-0.22317 0.0678t-0.14972 0.17797v1.089h-0.26131v-1.5283z" style="font-feature-settings:normal;font-variant-caps:normal;font-variant-ligatures:normal;font-variant-numeric:normal"/><path d="m55.588 76.934q0 0.34888-0.15961 0.56217-0.15961 0.21329-0.43222 0.21329-0.27826 0-0.43787-0.17656v0.73591h-0.26131v-2.1159h0.23871l0.01271 0.1695q0.15961-0.19775 0.44352-0.19775 0.27544 0 0.43505 0.20764 0.16102 0.20764 0.16102 0.57771zm-0.26131-0.02966q0-0.25849-0.11017-0.40821t-0.30227-0.14972q-0.2373 0-0.35595 0.21046v0.73026q0.11724 0.20905 0.35877 0.20905 0.18786 0 0.29804-0.14831 0.11159-0.14972 0.11159-0.44352z" style="font-feature-settings:normal;font-variant-caps:normal;font-variant-ligatures:normal;font-variant-numeric:normal"/><path d="m56.863 77.531q-0.15255 0.17939-0.44776 0.17939-0.24436 0-0.3729-0.14125-0.12712-0.14266-0.12854-0.42092v-0.99439h0.26131v0.98733q0 0.34747 0.2825 0.34747 0.29945 0 0.39832-0.22317v-1.1116h0.26131v1.5283h-0.2486z" style="font-feature-settings:normal;font-variant-caps:normal;font-variant-ligatures:normal;font-variant-numeric:normal"/><path d="m57.869 75.783v0.37007h0.28532v0.20199h-0.28532v0.94778q0 0.09181 0.03814 0.13842 0.03814 0.0452 0.12995 0.0452 0.0452 0 0.1243-0.01695v0.21187q-0.10311 0.02825-0.20057 0.02825-0.17515 0-0.26414-0.10594-0.08899-0.10594-0.08899-0.30086v-0.94778h-0.27826v-0.20199h0.27826v-0.37007z" style="font-feature-settings:normal;font-variant-caps:normal;font-variant-ligatures:normal;font-variant-numeric:normal"/><path d="m60.007 77.682h-0.26272v-1.7416l-0.52686 0.19351v-0.2373l0.74862-0.28109h0.04096z" style="font-feature-settings:normal;font-variant-caps:normal;font-variant-ligatures:normal;font-variant-numeric:normal"/></g></g></g></svg>
