<?xml version="1.0" encoding="UTF-8"?>
<svg width="3.4702in" height="1.9583in" version="1.1" viewBox="0 0 333.14 188" xmlns="http://www.w3.org/2000/svg" xmlns:cc="http://creativecommons.org/ns#" xmlns:dc="http://purl.org/dc/elements/1.1/" xmlns:rdf="http://www.w3.org/1999/02/22-rdf-syntax-ns#" xmlns:xlink="http://www.w3.org/1999/xlink"><metadata><rdf:RDF><cc:Work rdf:about=""><dc:format>image/svg+xml</dc:format><dc:type rdf:resource="http://purl.org/dc/dcmitype/StillImage"/><dc:title/></cc:Work></rdf:RDF></metadata><g transform="translate(-1.2504 -46.376)"><g transform="matrix(3.7795 0 0 3.7795 -102.4 -338.29)"><path d="m29.596 101.91c-0.7329 0-1.3229 0.7222-1.3229 1.4551l-1e-3 37.968 39.953-7e-5 -0.13229-30.427 0.1333-7.673c0-0.7329-0.59003-1.3228-1.3229-1.3228z" fill="#515457" stroke="#222" stroke-width=".26458"/><path d="m28.404 106.54h39.688v34.661h-39.688z" fill="#3c3f43"/><path d="m68.093 106.41h-39.687" fill="none" stroke="#333" stroke-width=".26458px"/><g fill="#888" stroke-width=".26458" style="font-feature-settings:normal;font-variant-caps:normal;font-variant-ligatures:normal;font-variant-numeric:normal" aria-label="Output"><path d="m58.593 108.98q0 0.30227-0.1017 0.52827-0.1017 0.22458-0.28815 0.34323t-0.43505 0.11865q-0.24295 0-0.43081-0.11865-0.18786-0.12006-0.29239-0.34041-0.10311-0.22176-0.10594-0.51273v-0.14831q0-0.29663 0.10311-0.52404t0.29097-0.34747q0.18927-0.12147 0.43222-0.12147 0.24719 0 0.43505 0.12006 0.18927 0.11865 0.29097 0.34606 0.1017 0.226 0.1017 0.52686zm-0.26979-0.13278q0-0.36583-0.1469-0.56076-0.1469-0.19633-0.41104-0.19633-0.25707 0-0.40538 0.19633-0.1469 0.19493-0.15114 0.5424v0.15114q0 0.35453 0.14831 0.55793 0.14972 0.20199 0.41103 0.20199 0.26272 0 0.4068-0.19069 0.14407-0.1921 0.14831-0.54946z" style="font-feature-settings:normal;font-variant-caps:normal;font-variant-ligatures:normal;font-variant-numeric:normal"/><path d="m59.902 109.79q-0.15255 0.17938-0.44776 0.17938-0.24436 0-0.3729-0.14125-0.12712-0.14266-0.12854-0.42092v-0.99439h0.26131v0.98733q0 0.34747 0.2825 0.34747 0.29945 0 0.39832-0.22317v-1.1116h0.26131v1.5283h-0.2486z" style="font-feature-settings:normal;font-variant-caps:normal;font-variant-ligatures:normal;font-variant-numeric:normal"/><path d="m60.908 108.05v0.37007h0.28532v0.20198h-0.28532v0.94779q0 0.0918 0.03814 0.13842 0.03814 0.0452 0.12995 0.0452 0.0452 0 0.1243-0.017v0.21187q-0.10311 0.0282-0.20057 0.0282-0.17515 0-0.26414-0.10593-0.08899-0.10594-0.08899-0.30086v-0.94779h-0.27826v-0.20198h0.27826v-0.37007z" style="font-feature-settings:normal;font-variant-caps:normal;font-variant-ligatures:normal;font-variant-numeric:normal"/><path d="m62.789 109.2q0 0.34888-0.15961 0.56217-0.15961 0.21328-0.43222 0.21328-0.27826 0-0.43787-0.17656v0.73591h-0.26131v-2.1159h0.23871l0.01271 0.1695q0.15961-0.19775 0.44352-0.19775 0.27544 0 0.43505 0.20763 0.16102 0.20764 0.16102 0.57771zm-0.26131-0.0297q0-0.25848-0.11017-0.40821-0.11017-0.14972-0.30227-0.14972-0.2373 0-0.35595 0.21046v0.73026q0.11724 0.20905 0.35877 0.20905 0.18786 0 0.29804-0.14831 0.11159-0.14973 0.11159-0.44353z" style="font-feature-settings:normal;font-variant-caps:normal;font-variant-ligatures:normal;font-variant-numeric:normal"/><path d="m64.065 109.79q-0.15255 0.17938-0.44776 0.17938-0.24436 0-0.3729-0.14125-0.12712-0.14266-0.12854-0.42092v-0.99439h0.26131v0.98733q0 0.34747 0.2825 0.34747 0.29945 0 0.39832-0.22317v-1.1116h0.26131v1.5283h-0.2486z" style="font-feature-settings:normal;font-variant-caps:normal;font-variant-ligatures:normal;font-variant-numeric:normal"/><path d="m65.07 108.05v0.37007h0.28532v0.20198h-0.28532v0.94779q0 0.0918 0.03814 0.13842 0.03814 0.0452 0.12995 0.0452 0.0452 0 0.1243-0.017v0.21187q-0.10311 0.0282-0.20057 0.0282-0.17515 0-0.26414-0.10593-0.08899-0.10594-0.08899-0.30086v-0.94779h-0.27826v-0.20198h0.27826v-0.37007z" style="font-feature-settings:normal;font-variant-caps:normal;font-variant-ligatures:normal;font-variant-numeric:normal"/></g><path d="m67.035 108.92 1.0583 1.0583 1.0583-1.0583-1.0583-1.0583z" fill="#bbb" stroke="#222" stroke-width=".26458"/><g fill="#ddd" stroke-width=".26458" style="font-feature-settings:normal;font-variant-caps:normal;font-variant-ligatures:normal;font-variant-numeric:normal" aria-label="Diffuse lighting"><path d="m38.753 104.92v-2.0566h0.58053q0.26837 0 0.4746 0.11865 0.20622 0.11865 0.31781 0.33758 0.113 0.21894 0.11441 0.50285v0.13136q0 0.29097-0.113 0.50991-0.11159 0.21894-0.32064 0.33617-0.20764 0.11724-0.48448 0.12006zm0.2712-1.8334v1.6116h0.28532q0.31357 0 0.48731-0.19492 0.17515-0.19492 0.17515-0.55511v-0.12006q0-0.3503-0.16526-0.54381-0.16385-0.19492-0.46612-0.19775z" style="font-feature-settings:normal;font-variant-caps:normal;font-variant-ligatures:normal;font-variant-numeric:normal"/><path d="m40.893 104.92h-0.26131v-1.5283h0.26131zm-0.2825-1.9337q0-0.0636 0.03814-0.10734 0.03955-0.0438 0.11582-0.0438 0.07628 0 0.11582 0.0438 0.03955 0.0438 0.03955 0.10734 0 0.0636-0.03955 0.10594-0.03955 0.0424-0.11582 0.0424-0.07627 0-0.11582-0.0424-0.03814-0.0424-0.03814-0.10594z" style="font-feature-settings:normal;font-variant-caps:normal;font-variant-ligatures:normal;font-variant-numeric:normal"/><path d="m41.44 104.92v-1.3263h-0.24154v-0.20199h0.24154v-0.15679q0-0.24577 0.13136-0.37996 0.13136-0.13418 0.37148-0.13418 0.0904 0 0.17939 0.024l-0.01412 0.21187q-0.06639-0.0127-0.14125-0.0127-0.12712 0-0.19634 0.0749-0.06921 0.0735-0.06921 0.21188v0.16102h0.32629v0.20199h-0.32629v1.3263z" style="font-feature-settings:normal;font-variant-caps:normal;font-variant-ligatures:normal;font-variant-numeric:normal"/><path d="m42.444 104.92v-1.3263h-0.24154v-0.20199h0.24154v-0.15679q0-0.24577 0.13136-0.37996 0.13136-0.13418 0.37148-0.13418 0.0904 0 0.17939 0.024l-0.01412 0.21187q-0.06639-0.0127-0.14125-0.0127-0.12712 0-0.19634 0.0749-0.06921 0.0735-0.06921 0.21188v0.16102h0.32628v0.20199h-0.32628v1.3263z" style="font-feature-settings:normal;font-variant-caps:normal;font-variant-ligatures:normal;font-variant-numeric:normal"/><path d="m44.263 104.77q-0.15255 0.17938-0.44776 0.17938-0.24436 0-0.3729-0.14125-0.12712-0.14266-0.12854-0.42092v-0.99439h0.26131v0.98733q0 0.34747 0.2825 0.34747 0.29945 0 0.39832-0.22317v-1.1116h0.26131v1.5283h-0.2486z" style="font-feature-settings:normal;font-variant-caps:normal;font-variant-ligatures:normal;font-variant-numeric:normal"/><path d="m45.804 104.51q0-0.10594-0.08051-0.16385-0.0791-0.0593-0.27826-0.1017-0.19775-0.0424-0.31498-0.1017-0.11582-0.0593-0.17232-0.14125-0.05509-0.0819-0.05509-0.19492 0-0.18786 0.1582-0.31781 0.15961-0.12995 0.4068-0.12995 0.2599 0 0.42092 0.13419 0.16244 0.13418 0.16244 0.34323h-0.26272q0-0.10735-0.09181-0.18504-0.0904-0.0777-0.22882-0.0777-0.14266 0-0.22317 0.0622-0.08051 0.0622-0.08051 0.16243 0 0.0946 0.07486 0.14267 0.07486 0.048 0.26978 0.0918 0.19634 0.0438 0.31781 0.10452 0.12148 0.0607 0.17939 0.1469 0.05932 0.0847 0.05932 0.20764 0 0.20481-0.16385 0.32911-0.16385 0.12288-0.42516 0.12288-0.18362 0-0.32487-0.065t-0.22176-0.1808q-0.0791-0.11724-0.0791-0.25284h0.26131q0.0071 0.13137 0.10452 0.20905 0.09887 0.0763 0.2599 0.0763 0.14831 0 0.2373-0.0593 0.0904-0.0607 0.0904-0.16102z" style="font-feature-settings:normal;font-variant-caps:normal;font-variant-ligatures:normal;font-variant-numeric:normal"/><path d="m47.04 104.95q-0.31075 0-0.50567-0.2034-0.19492-0.20481-0.19492-0.54663v-0.048q0-0.22741 0.08616-0.40539 0.08757-0.17938 0.24295-0.27967 0.15679-0.1017 0.339-0.1017 0.29804 0 0.4633 0.19634 0.16526 0.19633 0.16526 0.56217v0.10876h-1.0354q0.0056 0.226 0.13136 0.36583 0.12712 0.13843 0.32205 0.13843 0.13842 0 0.23447-0.0565t0.16809-0.14973l0.15961 0.1243q-0.1921 0.29521-0.5763 0.29521zm-0.03249-1.3701q-0.1582 0-0.26555 0.11582-0.10735 0.11441-0.13277 0.32205h0.76557v-0.0198q-0.0113-0.19916-0.10735-0.30792-0.09605-0.11017-0.2599-0.11017z" style="font-feature-settings:normal;font-variant-caps:normal;font-variant-ligatures:normal;font-variant-numeric:normal"/><path d="m48.939 104.92h-0.26131v-2.1696h0.26131z" style="font-feature-settings:normal;font-variant-caps:normal;font-variant-ligatures:normal;font-variant-numeric:normal"/><path d="m49.641 104.92h-0.26131v-1.5283h0.26131zm-0.2825-1.9337q0-0.0636 0.03814-0.10734 0.03955-0.0438 0.11582-0.0438 0.07628 0 0.11582 0.0438 0.03955 0.0438 0.03955 0.10734 0 0.0636-0.03955 0.10594-0.03955 0.0424-0.11582 0.0424-0.07627 0-0.11582-0.0424-0.03814-0.0424-0.03814-0.10594z" style="font-feature-settings:normal;font-variant-caps:normal;font-variant-ligatures:normal;font-variant-numeric:normal"/><path d="m49.997 104.14q0-0.35736 0.16526-0.56782 0.16526-0.21187 0.43787-0.21187 0.27967 0 0.43646 0.19775l0.01271-0.1695h0.23871v1.4916q0 0.29662-0.17656 0.46753-0.17515 0.17091-0.47177 0.17091-0.16526 0-0.32346-0.0706t-0.24154-0.19351l0.1356-0.15679q0.16809 0.20764 0.41104 0.20764 0.19069 0 0.29662-0.10735 0.10735-0.10735 0.10735-0.30227v-0.13137q-0.15679 0.1808-0.42798 0.1808-0.26837 0-0.43505-0.21611-0.16526-0.21611-0.16526-0.58901zm0.26272 0.0297q0 0.25848 0.10594 0.40679 0.10594 0.1469 0.29662 0.1469 0.24719 0 0.36301-0.22458v-0.69777q-0.12006-0.21894-0.36018-0.21894-0.19069 0-0.29804 0.14831-0.10735 0.14831-0.10735 0.43929z" style="font-feature-settings:normal;font-variant-caps:normal;font-variant-ligatures:normal;font-variant-numeric:normal"/><path d="m51.943 103.57q0.17374-0.21329 0.452-0.21329 0.48448 0 0.48872 0.54663v1.0099h-0.26131v-1.0113q-0.0014-0.16526-0.07627-0.24436-0.07345-0.0791-0.23024-0.0791-0.12712 0-0.22317 0.0678-0.09605 0.0678-0.14972 0.17797v1.089h-0.26132v-2.1696h0.26131z" style="font-feature-settings:normal;font-variant-caps:normal;font-variant-ligatures:normal;font-variant-numeric:normal"/><path d="m53.63 103.02v0.37007h0.28532v0.20199h-0.28532v0.94778q0 0.0918 0.03814 0.13842 0.03814 0.0452 0.12995 0.0452 0.0452 0 0.1243-0.0169v0.21187q-0.10311 0.0282-0.20057 0.0282-0.17515 0-0.26414-0.10593-0.08899-0.10594-0.08899-0.30086v-0.94778h-0.27826v-0.20199h0.27826v-0.37007z" style="font-feature-settings:normal;font-variant-caps:normal;font-variant-ligatures:normal;font-variant-numeric:normal"/><path d="m54.504 104.92h-0.26131v-1.5283h0.26131zm-0.2825-1.9337q0-0.0636 0.03814-0.10734 0.03955-0.0438 0.11582-0.0438 0.07627 0 0.11582 0.0438 0.03955 0.0438 0.03955 0.10734 0 0.0636-0.03955 0.10594-0.03955 0.0424-0.11582 0.0424-0.07627 0-0.11582-0.0424-0.03814-0.0424-0.03814-0.10594z" style="font-feature-settings:normal;font-variant-caps:normal;font-variant-ligatures:normal;font-variant-numeric:normal"/><path d="m55.169 103.39 0.0085 0.1921q0.17515-0.22035 0.45765-0.22035 0.48448 0 0.48872 0.54663v1.0099h-0.26131v-1.0113q-0.0014-0.16526-0.07627-0.24436-0.07345-0.0791-0.23024-0.0791-0.12712 0-0.22317 0.0678t-0.14972 0.17797v1.089h-0.26131v-1.5283z" style="font-feature-settings:normal;font-variant-caps:normal;font-variant-ligatures:normal;font-variant-numeric:normal"/><path d="m56.456 104.14q0-0.35736 0.16526-0.56782 0.16526-0.21187 0.43787-0.21187 0.27967 0 0.43646 0.19775l0.01271-0.1695h0.23871v1.4916q0 0.29662-0.17656 0.46753-0.17515 0.17091-0.47177 0.17091-0.16526 0-0.32346-0.0706t-0.24154-0.19351l0.1356-0.15679q0.16809 0.20764 0.41104 0.20764 0.19069 0 0.29662-0.10735 0.10735-0.10735 0.10735-0.30227v-0.13137q-0.15679 0.1808-0.42798 0.1808-0.26837 0-0.43505-0.21611-0.16526-0.21611-0.16526-0.58901zm0.26272 0.0297q0 0.25848 0.10594 0.40679 0.10594 0.1469 0.29662 0.1469 0.24719 0 0.36301-0.22458v-0.69777q-0.12006-0.21894-0.36018-0.21894-0.19069 0-0.29804 0.14831t-0.10735 0.43929z" style="font-feature-settings:normal;font-variant-caps:normal;font-variant-ligatures:normal;font-variant-numeric:normal"/></g><path d="m27.61 108.92 1.0583 1.0583 1.0583-1.0583-1.0583-1.0583z" fill="#bbb" stroke="#222" stroke-width=".26458"/><g fill="#888" stroke-width=".26458"><g style="font-feature-settings:normal;font-variant-caps:normal;font-variant-ligatures:normal;font-variant-numeric:normal" aria-label="Input"><path d="m31.586 109.93h-0.2712v-2.0566h0.2712z" style="font-feature-settings:normal;font-variant-caps:normal;font-variant-ligatures:normal;font-variant-numeric:normal"/><path d="m32.288 108.4 0.0085 0.19209q0.17515-0.22034 0.45765-0.22034 0.48448 0 0.48872 0.54663v1.0099h-0.26131v-1.0113q-0.0014-0.16526-0.07627-0.24436-0.07345-0.0791-0.23024-0.0791-0.12712 0-0.22317 0.0678t-0.14972 0.17797v1.089h-0.26131v-1.5283z" style="font-feature-settings:normal;font-variant-caps:normal;font-variant-ligatures:normal;font-variant-numeric:normal"/><path d="m34.928 109.18q0 0.34889-0.15961 0.56217-0.15961 0.21329-0.43222 0.21329-0.27826 0-0.43787-0.17656v0.73591h-0.26131v-2.1159h0.23871l0.01271 0.1695q0.15961-0.19775 0.44352-0.19775 0.27544 0 0.43505 0.20763 0.16102 0.20764 0.16102 0.57771zm-0.26131-0.0297q0-0.25848-0.11017-0.40821-0.11017-0.14972-0.30227-0.14972-0.2373 0-0.35595 0.21046v0.73026q0.11724 0.20904 0.35877 0.20904 0.18786 0 0.29804-0.14831 0.11159-0.14972 0.11159-0.44352z" style="font-feature-settings:normal;font-variant-caps:normal;font-variant-ligatures:normal;font-variant-numeric:normal"/><path d="m36.204 109.78q-0.15255 0.17939-0.44776 0.17939-0.24436 0-0.3729-0.14125-0.12712-0.14266-0.12854-0.42092v-0.99439h0.26131v0.98733q0 0.34747 0.2825 0.34747 0.29945 0 0.39832-0.22317v-1.1116h0.26131v1.5283h-0.2486z" style="font-feature-settings:normal;font-variant-caps:normal;font-variant-ligatures:normal;font-variant-numeric:normal"/><path d="m37.209 108.03v0.37008h0.28532v0.20198h-0.28532v0.94778q0 0.0918 0.03814 0.13843 0.03814 0.0452 0.12995 0.0452 0.0452 0 0.1243-0.0169v0.21187q-0.10311 0.0282-0.20057 0.0282-0.17515 0-0.26414-0.10594-0.08899-0.10593-0.08899-0.30086v-0.94778h-0.27826v-0.20198h0.27826v-0.37008z" style="font-feature-settings:normal;font-variant-caps:normal;font-variant-ligatures:normal;font-variant-numeric:normal"/></g><g style="font-variant-caps:normal;font-variant-ligatures:normal;font-variant-numeric:normal" aria-label="surface scale:"><path d="m30.827 114.81q0-0.10594-0.08051-0.16385-0.0791-0.0593-0.27826-0.1017-0.19775-0.0424-0.31498-0.1017-0.11582-0.0593-0.17232-0.14125-0.05509-0.0819-0.05509-0.19492 0-0.18786 0.1582-0.31781 0.15961-0.12995 0.4068-0.12995 0.2599 0 0.42092 0.13419 0.16244 0.13418 0.16244 0.34323h-0.26272q0-0.10735-0.09181-0.18504-0.0904-0.0777-0.22882-0.0777-0.14266 0-0.22317 0.0622-0.08051 0.0622-0.08051 0.16243 0 0.0946 0.07486 0.14266 0.07486 0.048 0.26979 0.0918 0.19634 0.0438 0.31781 0.10452 0.12148 0.0607 0.17939 0.1469 0.05932 0.0847 0.05932 0.20764 0 0.20481-0.16385 0.32911-0.16385 0.12288-0.42516 0.12288-0.18362 0-0.32487-0.065t-0.22176-0.1808q-0.0791-0.11724-0.0791-0.25284h0.26131q0.0071 0.13137 0.10452 0.20905 0.09887 0.0763 0.2599 0.0763 0.14831 0 0.2373-0.0593 0.0904-0.0607 0.0904-0.16102z"/><path d="m32.373 115.07q-0.15255 0.17938-0.44776 0.17938-0.24436 0-0.3729-0.14125-0.12712-0.14266-0.12854-0.42092v-0.99439h0.26131v0.98733q0 0.34747 0.2825 0.34747 0.29945 0 0.39832-0.22317v-1.1116h0.26131v1.5283h-0.2486z"/><path d="m33.763 113.92q-0.05932-0.01-0.12854-0.01-0.25707 0-0.34888 0.21894v1.0848h-0.26131v-1.5283h0.25425l0.0042 0.17656q0.12854-0.20481 0.36442-0.20481 0.07628 0 0.11582 0.0198z"/><path d="m34.152 115.22v-1.3263h-0.24154v-0.20198h0.24154v-0.15679q0-0.24577 0.13136-0.37996 0.13136-0.13418 0.37148-0.13418 0.0904 0 0.17939 0.024l-0.01412 0.21187q-0.06639-0.0127-0.14125-0.0127-0.12712 0-0.19634 0.0749-0.06921 0.0734-0.06921 0.21187v0.16103h0.32628v0.20198h-0.32628v1.3263z"/><path d="m35.972 115.22q-0.0226-0.0452-0.03672-0.16102-0.18221 0.18927-0.43505 0.18927-0.226 0-0.37148-0.12712-0.14407-0.12854-0.14407-0.32487 0-0.23872 0.1808-0.37008 0.18221-0.13277 0.51132-0.13277h0.25425v-0.12006q0-0.13701-0.08192-0.21753-0.08192-0.0819-0.24154-0.0819-0.13984 0-0.23447 0.0706-0.09464 0.0706-0.09464 0.17092h-0.26272q0-0.11442 0.08051-0.22035 0.08192-0.10735 0.22035-0.1695 0.13984-0.0622 0.30651-0.0622 0.26414 0 0.41386 0.13277 0.14972 0.13136 0.15537 0.36301v0.70342q0 0.21046 0.05367 0.33476v0.0226zm-0.43364-0.19916q0.12289 0 0.23306-0.0636 0.11018-0.0636 0.15961-0.16526v-0.31357h-0.20481q-0.48025 0-0.48025 0.28108 0 0.12289 0.08192 0.1921 0.08192 0.0692 0.21046 0.0692z"/><path d="m37.215 115.03q0.13984 0 0.24436-0.0847 0.10452-0.0847 0.11582-0.21188h0.24718q-0.0071 0.13137-0.0904 0.25001-0.08334 0.11865-0.22317 0.18928-0.13842 0.0706-0.2938 0.0706-0.31216 0-0.4972-0.20763-0.18362-0.20905-0.18362-0.57065v-0.0438q0-0.22317 0.08193-0.39691 0.08192-0.17373 0.23447-0.26978 0.15396-0.0961 0.36301-0.0961 0.25707 0 0.42657 0.15396 0.17091 0.15396 0.18221 0.39973h-0.24718q-0.0113-0.14831-0.113-0.24294-0.10029-0.0961-0.2486-0.0961-0.19916 0-0.30934 0.14407-0.10876 0.14266-0.10876 0.41386v0.0494q0 0.26413 0.10876 0.4068 0.10876 0.14266 0.31075 0.14266z"/><path d="m38.75 115.24q-0.31075 0-0.50567-0.2034-0.19492-0.20481-0.19492-0.54663v-0.048q0-0.22742 0.08616-0.40539 0.08758-0.17939 0.24295-0.27967 0.15679-0.1017 0.339-0.1017 0.29804 0 0.4633 0.19633 0.16526 0.19634 0.16526 0.56218v0.10876h-1.0354q0.0057 0.226 0.13136 0.36583 0.12712 0.13843 0.32205 0.13843 0.13842 0 0.23447-0.0565 0.09605-0.0565 0.16809-0.14973l0.15961 0.1243q-0.1921 0.29521-0.5763 0.29521zm-0.03249-1.3701q-0.1582 0-0.26555 0.11582-0.10735 0.11441-0.13277 0.32205h0.76557v-0.0198q-0.0113-0.19916-0.10735-0.30792-0.09605-0.11017-0.2599-0.11017z"/><path d="m41.254 114.81q0-0.10594-0.08051-0.16385-0.0791-0.0593-0.27826-0.1017-0.19775-0.0424-0.31498-0.1017-0.11582-0.0593-0.17232-0.14125-0.05509-0.0819-0.05509-0.19492 0-0.18786 0.1582-0.31781 0.15961-0.12995 0.4068-0.12995 0.2599 0 0.42092 0.13419 0.16244 0.13418 0.16244 0.34323h-0.26272q0-0.10735-0.09181-0.18504-0.0904-0.0777-0.22882-0.0777-0.14266 0-0.22317 0.0622-0.08051 0.0622-0.08051 0.16243 0 0.0946 0.07486 0.14266 0.07486 0.048 0.26979 0.0918 0.19634 0.0438 0.31781 0.10452 0.12147 0.0607 0.17939 0.1469 0.05932 0.0847 0.05932 0.20764 0 0.20481-0.16385 0.32911-0.16385 0.12288-0.42516 0.12288-0.18362 0-0.32487-0.065t-0.22176-0.1808q-0.0791-0.11724-0.0791-0.25284h0.26131q0.0071 0.13137 0.10452 0.20905 0.09887 0.0763 0.2599 0.0763 0.14831 0 0.2373-0.0593 0.0904-0.0607 0.0904-0.16102z"/><path d="m42.469 115.03q0.13984 0 0.24436-0.0847 0.10452-0.0847 0.11582-0.21188h0.24719q-0.0071 0.13137-0.0904 0.25001-0.08334 0.11865-0.22317 0.18928-0.13842 0.0706-0.2938 0.0706-0.31216 0-0.4972-0.20763-0.18362-0.20905-0.18362-0.57065v-0.0438q0-0.22317 0.08192-0.39691 0.08192-0.17373 0.23447-0.26978 0.15396-0.0961 0.36301-0.0961 0.25707 0 0.42657 0.15396 0.17091 0.15396 0.18221 0.39973h-0.24719q-0.0113-0.14831-0.113-0.24294-0.10029-0.0961-0.2486-0.0961-0.19916 0-0.30934 0.14407-0.10876 0.14266-0.10876 0.41386v0.0494q0 0.26413 0.10876 0.4068 0.10876 0.14266 0.31075 0.14266z"/><path d="m44.314 115.22q-0.0226-0.0452-0.03672-0.16102-0.18221 0.18927-0.43505 0.18927-0.226 0-0.37148-0.12712-0.14407-0.12854-0.14407-0.32487 0-0.23872 0.1808-0.37008 0.18221-0.13277 0.51132-0.13277h0.25425v-0.12006q0-0.13701-0.08192-0.21753-0.08192-0.0819-0.24154-0.0819-0.13984 0-0.23447 0.0706-0.09464 0.0706-0.09464 0.17092h-0.26272q0-0.11442 0.08051-0.22035 0.08193-0.10735 0.22035-0.1695 0.13984-0.0622 0.30651-0.0622 0.26414 0 0.41386 0.13277 0.14972 0.13136 0.15537 0.36301v0.70342q0 0.21046 0.05367 0.33476v0.0226zm-0.43363-0.19916q0.12289 0 0.23306-0.0636 0.11017-0.0636 0.15961-0.16526v-0.31357h-0.20481q-0.48025 0-0.48025 0.28108 0 0.12289 0.08192 0.1921 0.08192 0.0692 0.21046 0.0692z"/><path d="m45.228 115.22h-0.26131v-2.1696h0.26131z"/><path d="m46.28 115.24q-0.31075 0-0.50567-0.2034-0.19492-0.20481-0.19492-0.54663v-0.048q0-0.22742 0.08616-0.40539 0.08757-0.17939 0.24295-0.27967 0.15679-0.1017 0.339-0.1017 0.29804 0 0.4633 0.19633 0.16526 0.19634 0.16526 0.56218v0.10876h-1.0354q0.0057 0.226 0.13136 0.36583 0.12712 0.13843 0.32205 0.13843 0.13842 0 0.23447-0.0565 0.09605-0.0565 0.16809-0.14973l0.15961 0.1243q-0.1921 0.29521-0.5763 0.29521zm-0.03249-1.3701q-0.1582 0-0.26555 0.11582-0.10735 0.11441-0.13277 0.32205h0.76557v-0.0198q-0.0113-0.19916-0.10735-0.30792-0.09605-0.11017-0.2599-0.11017z"/><path d="m47.17 115.08q0-0.0678 0.03955-0.113 0.04096-0.0452 0.12147-0.0452 0.08051 0 0.12147 0.0452 0.04237 0.0452 0.04237 0.113 0 0.065-0.04237 0.10876-0.04096 0.0438-0.12147 0.0438-0.08051 0-0.12147-0.0438-0.03955-0.0438-0.03955-0.10876zm0.0014-1.2472q0-0.0678 0.03955-0.113 0.04096-0.0452 0.12147-0.0452 0.08051 0 0.12147 0.0452 0.04237 0.0452 0.04237 0.113 0 0.065-0.04237 0.10876-0.04096 0.0438-0.12147 0.0438-0.08051 0-0.12147-0.0438-0.03955-0.0438-0.03955-0.10876z"/></g><g style="font-variant-caps:normal;font-variant-ligatures:normal;font-variant-numeric:normal" aria-label="difuse const.:"><path d="m29.874 119.98q0-0.35171 0.16667-0.565 0.16667-0.2147 0.43646-0.2147 0.26837 0 0.42516 0.18363v-0.79665h0.26131v2.1696h-0.24012l-0.01271-0.16385q-0.15679 0.1921-0.43646 0.1921-0.26555 0-0.43364-0.21753-0.16667-0.21752-0.16667-0.56782zm0.26131 0.0297q0 0.2599 0.10735 0.4068 0.10735 0.1469 0.29662 0.1469 0.2486 0 0.36301-0.22318v-0.702q-0.11724-0.21612-0.36018-0.21612-0.1921 0-0.29945 0.14832-0.10735 0.14831-0.10735 0.43928z"/><path d="m31.853 120.75h-0.26131v-1.5283h0.26131zm-0.2825-1.9337q0-0.0636 0.03814-0.10735 0.03955-0.0438 0.11582-0.0438 0.07627 0 0.11582 0.0438 0.03955 0.0438 0.03955 0.10735 0 0.0636-0.03955 0.10593-0.03955 0.0424-0.11582 0.0424-0.07627 0-0.11582-0.0424-0.03814-0.0424-0.03814-0.10593z"/><path d="m32.399 120.75v-1.3263h-0.24154v-0.20199h0.24154v-0.15678q0-0.24578 0.13136-0.37996 0.13136-0.13419 0.37148-0.13419 0.0904 0 0.17939 0.024l-0.01412 0.21188q-0.06639-0.0127-0.14125-0.0127-0.12712 0-0.19634 0.0749-0.06921 0.0734-0.06921 0.21187v0.16102h0.32628v0.20199h-0.32628v1.3263z"/><path d="m34.219 120.6q-0.15255 0.17939-0.44776 0.17939-0.24436 0-0.3729-0.14125-0.12712-0.14266-0.12854-0.42092v-0.9944h0.26131v0.98733q0 0.34748 0.2825 0.34748 0.29945 0 0.39832-0.22318v-1.1116h0.26131v1.5283h-0.2486z"/><path d="m35.76 120.35q0-0.10593-0.08051-0.16385-0.0791-0.0593-0.27826-0.1017-0.19775-0.0424-0.31498-0.10169-0.11582-0.0593-0.17232-0.14125-0.05509-0.0819-0.05509-0.19493 0-0.18786 0.1582-0.31781 0.15961-0.12995 0.4068-0.12995 0.2599 0 0.42092 0.13419 0.16244 0.13419 0.16244 0.34323h-0.26272q0-0.10734-0.09181-0.18503-0.0904-0.0777-0.22882-0.0777-0.14266 0-0.22317 0.0622-0.08051 0.0622-0.08051 0.16244 0 0.0946 0.07486 0.14266 0.07486 0.048 0.26979 0.0918 0.19634 0.0438 0.31781 0.10453 0.12147 0.0607 0.17939 0.14689 0.05932 0.0847 0.05932 0.20764 0 0.20481-0.16385 0.32911-0.16385 0.12289-0.42516 0.12289-0.18362 0-0.32487-0.065t-0.22176-0.1808q-0.0791-0.11723-0.0791-0.25283h0.26131q0.0071 0.13136 0.10452 0.20905 0.09887 0.0763 0.2599 0.0763 0.14831 0 0.2373-0.0593 0.0904-0.0607 0.0904-0.16103z"/><path d="m36.996 120.78q-0.31075 0-0.50567-0.2034-0.19492-0.20481-0.19492-0.54664v-0.048q0-0.22741 0.08616-0.40538 0.08757-0.17939 0.24295-0.27968 0.15679-0.1017 0.339-0.1017 0.29804 0 0.4633 0.19634 0.16526 0.19634 0.16526 0.56217v0.10876h-1.0354q0.0056 0.226 0.13136 0.36584 0.12712 0.13842 0.32205 0.13842 0.13842 0 0.23447-0.0565t0.16809-0.14972l0.15961 0.1243q-0.1921 0.29521-0.5763 0.29521zm-0.03249-1.3701q-0.1582 0-0.26555 0.11583-0.10735 0.11441-0.13277 0.32204h0.76557v-0.0198q-0.0113-0.19916-0.10735-0.30792-0.09605-0.11018-0.2599-0.11018z"/><path d="m39.223 120.57q0.13984 0 0.24436-0.0847 0.10452-0.0847 0.11582-0.21187h0.24719q-0.0071 0.13136-0.0904 0.25001-0.08334 0.11865-0.22317 0.18927-0.13842 0.0706-0.2938 0.0706-0.31216 0-0.4972-0.20764-0.18362-0.20905-0.18362-0.57064v-0.0438q0-0.22318 0.08193-0.39691 0.08192-0.17374 0.23447-0.26979 0.15396-0.0961 0.36301-0.0961 0.25707 0 0.42657 0.15396 0.17091 0.15397 0.18221 0.39974h-0.24719q-0.0113-0.14831-0.113-0.24295-0.10029-0.0961-0.2486-0.0961-0.19916 0-0.30934 0.14408-0.10876 0.14266-0.10876 0.41386v0.0494q0 0.26414 0.10876 0.4068t0.31075 0.14266z"/><path d="m40.055 119.97q0-0.22459 0.08757-0.40398 0.08899-0.17938 0.24577-0.27685 0.1582-0.0975 0.36018-0.0975 0.31216 0 0.50426 0.21611 0.19351 0.21612 0.19351 0.57489v0.0184q0 0.22317-0.08616 0.40115-0.08475 0.17656-0.24436 0.27543-0.1582 0.0989-0.36442 0.0989-0.31075 0-0.50426-0.21611-0.1921-0.21611-0.1921-0.57206zm0.26272 0.0311q0 0.25425 0.11724 0.40821 0.11865 0.15396 0.3164 0.15396 0.19916 0 0.3164-0.15537 0.11724-0.15679 0.11724-0.43787 0-0.25143-0.12006-0.4068-0.11865-0.15679-0.3164-0.15679-0.19351 0-0.31216 0.15396t-0.11865 0.4407z"/><path d="m42.021 119.22 0.0085 0.1921q0.17515-0.22035 0.45765-0.22035 0.48448 0 0.48872 0.54664v1.0099h-0.26131v-1.0114q-0.0014-0.16526-0.07627-0.24436-0.07345-0.0791-0.23024-0.0791-0.12712 0-0.22317 0.0678t-0.14972 0.17798v1.089h-0.26131v-1.5283z"/><path d="m44.26 120.35q0-0.10593-0.08051-0.16385-0.0791-0.0593-0.27826-0.1017-0.19775-0.0424-0.31498-0.10169-0.11582-0.0593-0.17232-0.14125-0.05509-0.0819-0.05509-0.19493 0-0.18786 0.1582-0.31781 0.15961-0.12995 0.4068-0.12995 0.2599 0 0.42092 0.13419 0.16244 0.13419 0.16244 0.34323h-0.26272q0-0.10734-0.09181-0.18503-0.0904-0.0777-0.22882-0.0777-0.14266 0-0.22317 0.0622-0.08051 0.0622-0.08051 0.16244 0 0.0946 0.07486 0.14266 0.07486 0.048 0.26978 0.0918 0.19634 0.0438 0.31781 0.10453 0.12147 0.0607 0.17939 0.14689 0.05932 0.0847 0.05932 0.20764 0 0.20481-0.16385 0.32911-0.16385 0.12289-0.42516 0.12289-0.18362 0-0.32487-0.065t-0.22176-0.1808q-0.0791-0.11723-0.0791-0.25283h0.26131q0.0071 0.13136 0.10452 0.20905 0.09887 0.0763 0.2599 0.0763 0.14831 0 0.2373-0.0593 0.0904-0.0607 0.0904-0.16103z"/><path d="m45.216 118.85v0.37007h0.28532v0.20199h-0.28532v0.94778q0 0.0918 0.03814 0.13842 0.03814 0.0452 0.12995 0.0452 0.0452 0 0.1243-0.0169v0.21188q-0.10311 0.0282-0.20057 0.0282-0.17515 0-0.26414-0.10594-0.08899-0.10594-0.08899-0.30086v-0.94778h-0.27826v-0.20199h0.27826v-0.37007z"/><path d="m45.812 120.61q0-0.0678 0.03955-0.113 0.04096-0.0452 0.12147-0.0452 0.08051 0 0.12147 0.0452 0.04237 0.0452 0.04237 0.113 0 0.065-0.04237 0.10876-0.04096 0.0438-0.12147 0.0438-0.08051 0-0.12147-0.0438-0.03955-0.0438-0.03955-0.10876z"/><path d="m46.56 120.61q0-0.0678 0.03955-0.113 0.04096-0.0452 0.12148-0.0452 0.08051 0 0.12147 0.0452 0.04237 0.0452 0.04237 0.113 0 0.065-0.04237 0.10876-0.04096 0.0438-0.12147 0.0438-0.08051 0-0.12148-0.0438-0.03955-0.0438-0.03955-0.10876zm0.0014-1.2472q0-0.0678 0.03955-0.113 0.04096-0.0452 0.12147-0.0452 0.08051 0 0.12147 0.0452 0.04237 0.0452 0.04237 0.113 0 0.065-0.04237 0.10876-0.04096 0.0438-0.12147 0.0438-0.08051 0-0.12147-0.0438-0.03955-0.0438-0.03955-0.10876z"/></g><g style="font-variant-caps:normal;font-variant-ligatures:normal;font-variant-numeric:normal" aria-label="kernel unit:"><path d="m30.299 125.63-0.16385 0.17091v0.53675h-0.26131v-2.1696h0.26131v1.3122l0.13984-0.16808 0.47601-0.50285h0.31781l-0.59466 0.63845 0.66387 0.88987h-0.30651z"/><path d="m31.945 126.37q-0.31075 0-0.50567-0.2034-0.19492-0.20481-0.19492-0.54664v-0.048q0-0.22741 0.08616-0.40539 0.08757-0.17938 0.24295-0.27967 0.15679-0.1017 0.339-0.1017 0.29804 0 0.4633 0.19634 0.16526 0.19633 0.16526 0.56217v0.10876h-1.0354q0.0056 0.226 0.13136 0.36584 0.12712 0.13842 0.32205 0.13842 0.13842 0 0.23447-0.0565t0.16809-0.14972l0.15961 0.1243q-0.1921 0.29521-0.5763 0.29521zm-0.03249-1.3701q-0.1582 0-0.26555 0.11582-0.10735 0.11442-0.13277 0.32205h0.76557v-0.0198q-0.0113-0.19916-0.10735-0.30793-0.09605-0.11017-0.2599-0.11017z"/><path d="m33.582 125.04q-0.05932-0.01-0.12854-0.01-0.25707 0-0.34888 0.21893v1.0848h-0.26131v-1.5283h0.25425l0.0042 0.17656q0.12854-0.20481 0.36442-0.20481 0.07628 0 0.11582 0.0198z"/><path d="m34.069 124.81 0.0085 0.1921q0.17515-0.22035 0.45765-0.22035 0.48448 0 0.48872 0.54664v1.0099h-0.26131v-1.0114q-0.0014-0.16526-0.07627-0.24436-0.07345-0.0791-0.23024-0.0791-0.12712 0-0.22317 0.0678t-0.14972 0.17798v1.089h-0.26131v-1.5283z"/><path d="m36.052 126.37q-0.31075 0-0.50567-0.2034-0.19492-0.20481-0.19492-0.54664v-0.048q0-0.22741 0.08616-0.40539 0.08757-0.17938 0.24295-0.27967 0.15679-0.1017 0.339-0.1017 0.29804 0 0.4633 0.19634 0.16526 0.19633 0.16526 0.56217v0.10876h-1.0354q0.0056 0.226 0.13136 0.36584 0.12712 0.13842 0.32205 0.13842 0.13842 0 0.23447-0.0565 0.09605-0.0565 0.16809-0.14972l0.15961 0.1243q-0.1921 0.29521-0.5763 0.29521zm-0.03249-1.3701q-0.1582 0-0.26555 0.11582-0.10735 0.11442-0.13277 0.32205h0.76557v-0.0198q-0.0113-0.19916-0.10735-0.30793-0.09605-0.11017-0.2599-0.11017z"/><path d="m37.234 126.34h-0.26131v-2.1696h0.26131z"/><path d="m39.312 126.19q-0.15255 0.17939-0.44776 0.17939-0.24436 0-0.3729-0.14125-0.12712-0.14266-0.12854-0.42092v-0.9944h0.26131v0.98733q0 0.34748 0.2825 0.34748 0.29945 0 0.39832-0.22318v-1.1116h0.26131v1.5283h-0.2486z"/><path d="m40.211 124.81 0.0085 0.1921q0.17515-0.22035 0.45765-0.22035 0.48448 0 0.48872 0.54664v1.0099h-0.26131v-1.0114q-0.0014-0.16526-0.07627-0.24436-0.07345-0.0791-0.23024-0.0791-0.12712 0-0.22317 0.0678-0.09605 0.0678-0.14972 0.17798v1.089h-0.26131v-1.5283z"/><path d="m41.843 126.34h-0.26131v-1.5283h0.26131zm-0.2825-1.9337q0-0.0636 0.03814-0.10735 0.03955-0.0438 0.11582-0.0438 0.07627 0 0.11582 0.0438 0.03955 0.0438 0.03955 0.10735 0 0.0636-0.03955 0.10593-0.03955 0.0424-0.11582 0.0424-0.07627 0-0.11582-0.0424-0.03814-0.0424-0.03814-0.10593z"/><path d="m42.616 124.44v0.37007h0.28532v0.20199h-0.28532v0.94778q0 0.0918 0.03814 0.13842 0.03814 0.0452 0.12995 0.0452 0.0452 0 0.1243-0.0169v0.21188q-0.10311 0.0282-0.20057 0.0282-0.17515 0-0.26414-0.10594-0.08899-0.10594-0.08899-0.30086v-0.94778h-0.27826v-0.20199h0.27826v-0.37007z"/><path d="m43.198 126.2q0-0.0678 0.03955-0.11299 0.04096-0.0452 0.12147-0.0452 0.08051 0 0.12147 0.0452 0.04237 0.0452 0.04237 0.11299 0 0.065-0.04237 0.10877-0.04096 0.0438-0.12147 0.0438-0.08051 0-0.12147-0.0438-0.03955-0.0438-0.03955-0.10877zm0.0014-1.2472q0-0.0678 0.03955-0.113 0.04096-0.0452 0.12148-0.0452 0.08051 0 0.12147 0.0452 0.04237 0.0452 0.04237 0.113 0 0.065-0.04237 0.10876-0.04096 0.0438-0.12147 0.0438-0.08051 0-0.12148-0.0438-0.03955-0.0438-0.03955-0.10876z"/></g></g><g><path d="m48.909 112.23h17.727v4.2333h-17.727z" fill="#393939" stroke="#333" stroke-width=".26458"/><g fill="#c9c9c9" style="font-variant-caps:normal;font-variant-ligatures:normal;font-variant-numeric:normal" aria-label="1"><path d="m50.836 115.22h-0.26272v-1.7416l-0.52686 0.19351v-0.23729l0.74862-0.28109h0.04096z" fill="#c9c9c9" stroke-width=".26458"/></g><path d="m48.38 117.78h18.256v4.2333h-18.256z" fill="#393939" stroke="#333" stroke-width=".26458"/><g fill="#c9c9c9" style="font-variant-caps:normal;font-variant-ligatures:normal;font-variant-numeric:normal" aria-label="1"><path d="m50.357 120.76h-0.26272v-1.7416l-0.52686 0.19351v-0.2373l0.74862-0.28108h0.04096z" fill="#c9c9c9" stroke-width=".26458"/></g><path d="m44.94 123.34h10.319v4.2333h-10.319z" fill="#393939" stroke="#333" stroke-width=".26458"/><g fill="#c9c9c9" style="font-variant-caps:normal;font-variant-ligatures:normal;font-variant-numeric:normal" aria-label="1"><path d="m46.917 126.32h-0.26272v-1.7416l-0.52686 0.19351v-0.23729l0.74862-0.28109h0.04096z" fill="#c9c9c9" stroke-width=".26458"/></g><path d="m56.582 123.34h10.054v4.2333h-10.054z" fill="#393939" stroke="#333" stroke-width=".26458"/><g fill="#c9c9c9" style="font-variant-caps:normal;font-variant-ligatures:normal;font-variant-numeric:normal" aria-label="1"><path d="m58.559 126.32h-0.26272v-1.7416l-0.52686 0.19351v-0.23729l0.74862-0.28109h0.04096z" fill="#c9c9c9" stroke-width=".26458"/></g><g fill="#888" stroke-width=".26458" style="font-variant-caps:normal;font-variant-ligatures:normal;font-variant-numeric:normal" aria-label="xyz:"><path d="m30.459 137.57 0.339-0.55793h0.3051l-0.50002 0.75568 0.51556 0.77263h-0.30227l-0.35312-0.57206-0.35312 0.57206h-0.30369l0.51556-0.77263-0.50002-0.75568h0.30227z"/><path d="m31.88 138.16 0.35595-1.1455h0.27967l-0.61443 1.7642q-0.14266 0.38137-0.45341 0.38137l-0.04944-4e-3 -0.09746-0.0184v-0.21187l0.07062 6e-3q0.13277 0 0.20622-0.0537 0.07486-0.0537 0.12289-0.19633l0.05791-0.15538-0.54522-1.5114h0.28532z"/><path d="m32.995 138.33h0.89411v0.21328h-1.2133v-0.1921l0.84326-1.1201h-0.83054v-0.21611h1.1582v0.18503z"/><path d="m34.174 138.4q0-0.0678 0.03955-0.113 0.04096-0.0452 0.12147-0.0452 0.08051 0 0.12147 0.0452 0.04237 0.0452 0.04237 0.113 0 0.065-0.04237 0.10876-0.04096 0.0438-0.12147 0.0438-0.08051 0-0.12147-0.0438-0.03955-0.0438-0.03955-0.10876zm0.0014-1.2472q0-0.0678 0.03955-0.113 0.04096-0.0452 0.12148-0.0452 0.08051 0 0.12147 0.0452 0.04237 0.0452 0.04237 0.113 0 0.065-0.04237 0.10876-0.04096 0.0438-0.12147 0.0438-0.08051 0-0.12148-0.0438-0.03955-0.0438-0.03955-0.10876z"/></g><path d="m35.945 135.51h9.2604v4.2333h-9.2604z" fill="#393939" stroke="#333" stroke-width=".26458"/><g fill="#c9c9c9" style="font-variant-caps:normal;font-variant-ligatures:normal;font-variant-numeric:normal" aria-label="0"><path d="m38.352 137.61q0 0.45906-0.15679 0.68223-0.15679 0.22317-0.49013 0.22317-0.32911 0-0.48731-0.21752-0.1582-0.21894-0.16385-0.65257v-0.34889q0-0.45341 0.15679-0.67375 0.15679-0.22035 0.49155-0.22035 0.33194 0 0.48872 0.21328 0.15679 0.21188 0.16102 0.6554zm-0.26131-0.35736q0-0.33194-0.09322-0.48308-0.09322-0.15254-0.29521-0.15254-0.20057 0-0.29239 0.15113-0.09181 0.15114-0.09464 0.46471v0.4181q0 0.33335 0.09605 0.49296 0.09746 0.1582 0.2938 0.1582 0.19351 0 0.28674-0.14973 0.09464-0.14972 0.09887-0.47177z" fill="#c9c9c9" stroke-width=".26458"/></g><path d="m46.528 135.51h9.525v4.2333h-9.525z" fill="#393939" stroke="#333" stroke-width=".26458"/><g fill="#c9c9c9" style="font-variant-caps:normal;font-variant-ligatures:normal;font-variant-numeric:normal" aria-label="0"><path d="m48.935 137.61q0 0.45906-0.15679 0.68223-0.15679 0.22318-0.49013 0.22318-0.32911 0-0.48731-0.21753-0.1582-0.21893-0.16385-0.65257v-0.34888q0-0.45341 0.15679-0.67376t0.49155-0.22035q0.33194 0 0.48872 0.21329 0.15679 0.21187 0.16102 0.65539zm-0.26131-0.35736q0-0.33193-0.09322-0.48307-0.09322-0.15255-0.29521-0.15255-0.20057 0-0.29239 0.15114-0.09181 0.15113-0.09464 0.46471v0.41809q0 0.33335 0.09605 0.49296 0.09746 0.1582 0.2938 0.1582 0.19351 0 0.28674-0.14972 0.09464-0.14973 0.09887-0.47177z" fill="#c9c9c9" stroke-width=".26458"/></g><path d="m57.376 135.51h9.2604v4.2333h-9.2604z" fill="#393939" stroke="#333" stroke-width=".26458"/><g fill="#c9c9c9" style="font-variant-caps:normal;font-variant-ligatures:normal;font-variant-numeric:normal" aria-label="0"><path d="m59.783 137.61q0 0.45906-0.15679 0.68223-0.15679 0.22317-0.49013 0.22317-0.32911 0-0.48731-0.21752-0.1582-0.21894-0.16385-0.65257v-0.34889q0-0.45341 0.15679-0.67375 0.15679-0.22035 0.49155-0.22035 0.33194 0 0.48872 0.21328 0.15679 0.21188 0.16102 0.6554zm-0.26131-0.35736q0-0.33194-0.09322-0.48308-0.09322-0.15254-0.29521-0.15254-0.20057 0-0.29239 0.15113-0.09181 0.15114-0.09464 0.46471v0.4181q0 0.33335 0.09605 0.49296 0.09746 0.1582 0.2938 0.1582 0.19351 0 0.28674-0.14973 0.09464-0.14972 0.09887-0.47177z" fill="#c9c9c9" stroke-width=".26458"/></g><path d="m29.859 128.9h36.777v5.2917h-36.777z" fill="#3b3b3b" stroke="#333" stroke-width=".26458"/><g fill="#888" stroke-width=".26458" style="font-variant-caps:normal;font-variant-ligatures:normal;font-variant-numeric:normal" aria-label="light:"><path d="m31.269 132.41h-0.26131v-2.1696h0.26131z"/><path d="m31.971 132.41h-0.26131v-1.5283h0.26131zm-0.2825-1.9337q0-0.0636 0.03814-0.10735 0.03955-0.0438 0.11582-0.0438 0.07627 0 0.11582 0.0438 0.03955 0.0438 0.03955 0.10735 0 0.0636-0.03955 0.10594-0.03955 0.0424-0.11582 0.0424-0.07628 0-0.11582-0.0424-0.03814-0.0424-0.03814-0.10594z"/><path d="m32.327 131.63q0-0.35736 0.16526-0.56782 0.16526-0.21187 0.43787-0.21187 0.27967 0 0.43646 0.19775l0.01271-0.1695h0.23871v1.4916q0 0.29662-0.17656 0.46753-0.17515 0.17091-0.47177 0.17091-0.16526 0-0.32346-0.0706t-0.24154-0.19351l0.1356-0.15679q0.16809 0.20764 0.41104 0.20764 0.19069 0 0.29662-0.10735 0.10735-0.10735 0.10735-0.30227v-0.13137q-0.15679 0.1808-0.42798 0.1808-0.26837 0-0.43505-0.21611-0.16526-0.21611-0.16526-0.58901zm0.26272 0.0297q0 0.25848 0.10594 0.40679 0.10594 0.1469 0.29662 0.1469 0.24719 0 0.36301-0.22458v-0.69777q-0.12006-0.21894-0.36018-0.21894-0.19069 0-0.29804 0.14831-0.10735 0.14831-0.10735 0.43929z"/><path d="m34.273 131.06q0.17374-0.21328 0.452-0.21328 0.48448 0 0.48872 0.54663v1.0099h-0.26131v-1.0113q-0.0014-0.16526-0.07627-0.24436-0.07345-0.0791-0.23024-0.0791-0.12712 0-0.22317 0.0678t-0.14972 0.17797v1.089h-0.26131v-2.1696h0.26131z"/><path d="m35.96 130.51v0.37007h0.28532v0.20198h-0.28532v0.94779q0 0.0918 0.03814 0.13842 0.03814 0.0452 0.12995 0.0452 0.0452 0 0.1243-0.017v0.21187q-0.10311 0.0283-0.20057 0.0283-0.17515 0-0.26414-0.10593-0.08899-0.10594-0.08899-0.30086v-0.94779h-0.27826v-0.20198h0.27826v-0.37007z"/><path d="m36.542 132.27q0-0.0678 0.03955-0.113 0.04096-0.0452 0.12147-0.0452 0.08051 0 0.12147 0.0452 0.04237 0.0452 0.04237 0.113 0 0.065-0.04237 0.10876-0.04096 0.0438-0.12147 0.0438-0.08051 0-0.12147-0.0438-0.03955-0.0438-0.03955-0.10876zm0.0014-1.2472q0-0.0678 0.03955-0.113 0.04096-0.0452 0.12147-0.0452 0.08051 0 0.12148 0.0452 0.04237 0.0452 0.04237 0.113 0 0.065-0.04237 0.10876-0.04096 0.0438-0.12148 0.0438-0.08051 0-0.12147-0.0438-0.03955-0.0438-0.03955-0.10876z"/></g><g fill="#ddd" stroke-width=".26458" style="font-variant-caps:normal;font-variant-ligatures:normal;font-variant-numeric:normal" aria-label="Point light"><path d="m38.337 131.6v0.80512h-0.2712v-2.0566h0.75851q0.33759 0 0.52827 0.17232 0.1921 0.17232 0.1921 0.45624 0 0.29944-0.18786 0.46188-0.18645 0.16102-0.53533 0.16102zm0-0.22176h0.48731q0.21752 0 0.33335-0.1017 0.11582-0.10311 0.11582-0.29662 0-0.18362-0.11582-0.2938-0.11582-0.11017-0.31781-0.11441h-0.50285z"/><path d="m39.762 131.63q0-0.22459 0.08757-0.40397 0.08899-0.17939 0.24577-0.27685 0.1582-0.0975 0.36018-0.0975 0.31216 0 0.50426 0.21611 0.19351 0.21611 0.19351 0.57488v0.0184q0 0.22317-0.08616 0.40114-0.08475 0.17656-0.24436 0.27544-0.1582 0.0989-0.36442 0.0989-0.31075 0-0.50426-0.21611-0.1921-0.21611-0.1921-0.57206zm0.26272 0.0311q0 0.25424 0.11724 0.40821 0.11865 0.15396 0.3164 0.15396 0.19916 0 0.3164-0.15538 0.11724-0.15678 0.11724-0.43787 0-0.25142-0.12006-0.4068-0.11865-0.15678-0.3164-0.15678-0.19351 0-0.31216 0.15396t-0.11865 0.4407z"/><path d="m41.765 132.41h-0.26131v-1.5283h0.26131zm-0.2825-1.9337q0-0.0636 0.03814-0.10735 0.03955-0.0438 0.11582-0.0438 0.07627 0 0.11582 0.0438 0.03955 0.0438 0.03955 0.10735 0 0.0636-0.03955 0.10594-0.03955 0.0424-0.11582 0.0424-0.07628 0-0.11582-0.0424-0.03814-0.0424-0.03814-0.10594z"/><path d="m42.43 130.88 0.0085 0.1921q0.17515-0.22035 0.45765-0.22035 0.48448 0 0.48872 0.54663v1.0099h-0.26131v-1.0113q-0.0014-0.16526-0.07627-0.24436-0.07345-0.0791-0.23024-0.0791-0.12712 0-0.22317 0.0678-0.09605 0.0678-0.14972 0.17797v1.089h-0.26131v-1.5283z"/><path d="m44.133 130.51v0.37007h0.28532v0.20198h-0.28532v0.94779q0 0.0918 0.03814 0.13842 0.03814 0.0452 0.12995 0.0452 0.0452 0 0.1243-0.017v0.21187q-0.10311 0.0283-0.20057 0.0283-0.17515 0-0.26414-0.10593-0.08899-0.10594-0.08899-0.30086v-0.94779h-0.27826v-0.20198h0.27826v-0.37007z"/><path d="m45.724 132.41h-0.26131v-2.1696h0.26131z"/><path d="m46.426 132.41h-0.26131v-1.5283h0.26131zm-0.2825-1.9337q0-0.0636 0.03814-0.10735 0.03955-0.0438 0.11582-0.0438 0.07627 0 0.11582 0.0438 0.03955 0.0438 0.03955 0.10735 0 0.0636-0.03955 0.10594-0.03955 0.0424-0.11582 0.0424-0.07627 0-0.11582-0.0424-0.03814-0.0424-0.03814-0.10594z"/><path d="m46.782 131.63q0-0.35736 0.16526-0.56782 0.16526-0.21187 0.43787-0.21187 0.27967 0 0.43646 0.19775l0.01271-0.1695h0.23871v1.4916q0 0.29662-0.17656 0.46753-0.17515 0.17091-0.47177 0.17091-0.16526 0-0.32346-0.0706t-0.24154-0.19351l0.1356-0.15679q0.16809 0.20764 0.41104 0.20764 0.19069 0 0.29662-0.10735 0.10735-0.10735 0.10735-0.30227v-0.13137q-0.15679 0.1808-0.42798 0.1808-0.26837 0-0.43505-0.21611-0.16526-0.21611-0.16526-0.58901zm0.26272 0.0297q0 0.25848 0.10594 0.40679 0.10594 0.1469 0.29662 0.1469 0.24719 0 0.36301-0.22458v-0.69777q-0.12006-0.21894-0.36018-0.21894-0.19069 0-0.29804 0.14831-0.10735 0.14831-0.10735 0.43929z"/><path d="m48.728 131.06q0.17374-0.21328 0.452-0.21328 0.48448 0 0.48872 0.54663v1.0099h-0.26131v-1.0113q-0.0014-0.16526-0.07628-0.24436-0.07345-0.0791-0.23024-0.0791-0.12712 0-0.22317 0.0678-0.09605 0.0678-0.14972 0.17797v1.089h-0.26131v-2.1696h0.26131z"/><path d="m50.415 130.51v0.37007h0.28532v0.20198h-0.28532v0.94779q0 0.0918 0.03814 0.13842 0.03814 0.0452 0.12995 0.0452 0.0452 0 0.1243-0.017v0.21187q-0.10311 0.0283-0.20057 0.0283-0.17515 0-0.26414-0.10593-0.08899-0.10594-0.08899-0.30086v-0.94779h-0.27826v-0.20198h0.27826v-0.37007z"/></g></g><path d="m63.064 130.88 1.0583 1.3229 1.0583-1.3229" fill="none" stroke="#aaa" stroke-width=".3175"/></g><g transform="matrix(3.7795 0 0 3.7795 -33.791 -192.26)"><path d="m57.67 63.271c-0.7329 0-1.3229 0.7222-1.3229 1.4551l-1e-3 48.022 39.953-7e-5 -0.13229-40.481 0.1333-7.673c0-0.7329-0.59003-1.3228-1.3229-1.3228z" fill="#515457" stroke="#222" stroke-width=".26458"/><path d="m56.479 67.901h39.688v44.717h-39.688z" fill="#3c3f43"/><path d="m96.168 67.769h-39.687" fill="none" stroke="#333" stroke-width=".26458px"/><g fill="#888" stroke-width=".26458" style="font-feature-settings:normal;font-variant-caps:normal;font-variant-ligatures:normal;font-variant-numeric:normal" aria-label="Output"><path d="m86.667 70.345q0 0.30227-0.1017 0.52827-0.1017 0.22459-0.28815 0.34324-0.18645 0.11865-0.43505 0.11865-0.24295 0-0.43081-0.11865-0.18786-0.12006-0.29238-0.34041-0.10311-0.22176-0.10594-0.51273v-0.14831q0-0.29662 0.10311-0.52403t0.29097-0.34747q0.18927-0.12147 0.43222-0.12147 0.24719 0 0.43505 0.12006 0.18927 0.11865 0.29097 0.34606 0.1017 0.226 0.1017 0.52686zm-0.26978-0.13277q0-0.36584-0.1469-0.56076-0.1469-0.19634-0.41104-0.19634-0.25707 0-0.40538 0.19634-0.1469 0.19492-0.15114 0.5424v0.15114q0 0.35454 0.14831 0.55793 0.14972 0.20199 0.41104 0.20199 0.26272 0 0.4068-0.19069 0.14407-0.1921 0.14831-0.54946z" style="font-feature-settings:normal;font-variant-caps:normal;font-variant-ligatures:normal;font-variant-numeric:normal"/><path d="m87.977 71.156q-0.15255 0.17939-0.44776 0.17939-0.24436 0-0.3729-0.14125-0.12712-0.14266-0.12854-0.42092v-0.99439h0.26131v0.98733q0 0.34747 0.2825 0.34747 0.29945 0 0.39832-0.22317v-1.1116h0.26131v1.5283h-0.2486z" style="font-feature-settings:normal;font-variant-caps:normal;font-variant-ligatures:normal;font-variant-numeric:normal"/><path d="m88.982 69.409v0.37007h0.28532v0.20199h-0.28532v0.94778q0 0.09181 0.03814 0.13842 0.03814 0.0452 0.12995 0.0452 0.0452 0 0.1243-0.01695v0.21187q-0.10311 0.02825-0.20057 0.02825-0.17515 0-0.26414-0.10594-0.08899-0.10594-0.08899-0.30086v-0.94778h-0.27826v-0.20199h0.27826v-0.37007z" style="font-feature-settings:normal;font-variant-caps:normal;font-variant-ligatures:normal;font-variant-numeric:normal"/><path d="m90.864 70.56q0 0.34888-0.15961 0.56217-0.15961 0.21329-0.43222 0.21329-0.27826 0-0.43787-0.17656v0.73591h-0.26131v-2.1159h0.23871l0.01271 0.1695q0.15961-0.19775 0.44352-0.19775 0.27544 0 0.43505 0.20764 0.16102 0.20764 0.16102 0.57771zm-0.26131-0.02966q0-0.25849-0.11017-0.40821t-0.30227-0.14972q-0.2373 0-0.35595 0.21046v0.73026q0.11724 0.20905 0.35877 0.20905 0.18786 0 0.29804-0.14831 0.11159-0.14972 0.11159-0.44352z" style="font-feature-settings:normal;font-variant-caps:normal;font-variant-ligatures:normal;font-variant-numeric:normal"/><path d="m92.139 71.156q-0.15255 0.17939-0.44776 0.17939-0.24436 0-0.3729-0.14125-0.12712-0.14266-0.12854-0.42092v-0.99439h0.26131v0.98733q0 0.34747 0.2825 0.34747 0.29945 0 0.39832-0.22317v-1.1116h0.26131v1.5283h-0.2486z" style="font-feature-settings:normal;font-variant-caps:normal;font-variant-ligatures:normal;font-variant-numeric:normal"/><path d="m93.145 69.409v0.37007h0.28532v0.20199h-0.28532v0.94778q0 0.09181 0.03814 0.13842 0.03814 0.0452 0.12995 0.0452 0.0452 0 0.1243-0.01695v0.21187q-0.10311 0.02825-0.20057 0.02825-0.17515 0-0.26414-0.10594-0.08899-0.10594-0.08899-0.30086v-0.94778h-0.27826v-0.20199h0.27826v-0.37007z" style="font-feature-settings:normal;font-variant-caps:normal;font-variant-ligatures:normal;font-variant-numeric:normal"/></g><path d="m95.11 70.282 1.0583 1.0583 1.0583-1.0583-1.0583-1.0583z" fill="#bbb" stroke="#222" stroke-width=".26458"/><g fill="#ddd" stroke-width=".26458" style="font-feature-settings:normal;font-variant-caps:normal;font-variant-ligatures:normal;font-variant-numeric:normal" aria-label="Specular lighting"><path d="m66.494 65.364q-0.34888-0.10029-0.5085-0.24577-0.1582-0.1469-0.1582-0.3616 0-0.24295 0.19351-0.40115 0.19492-0.15961 0.50567-0.15961 0.21187 0 0.37714 0.08192 0.16667 0.08192 0.25707 0.226 0.09181 0.14407 0.09181 0.31499h-0.27261q0-0.18645-0.11865-0.29239-0.11865-0.10735-0.33476-0.10735-0.20057 0-0.31357 0.08899-0.11159 0.08757-0.11159 0.24436 0 0.12571 0.10594 0.21329 0.10735 0.08616 0.36301 0.1582 0.25707 0.07204 0.40115 0.15961 0.14549 0.08616 0.2147 0.20199 0.07063 0.11582 0.07063 0.27261 0 0.25001-0.19492 0.40115-0.19492 0.14972-0.52121 0.14972-0.21187 0-0.3955-0.08051-0.18362-0.08192-0.28391-0.22317-0.09887-0.14125-0.09887-0.32064h0.27261q0 0.18645 0.13701 0.29521 0.13842 0.10735 0.36866 0.10735 0.2147 0 0.32911-0.08757 0.11441-0.08758 0.11441-0.23871 0-0.15114-0.10594-0.23306-0.10594-0.08334-0.3842-0.16385z" style="font-feature-settings:normal;font-variant-caps:normal;font-variant-ligatures:normal;font-variant-numeric:normal"/><path d="m68.854 65.533q0 0.34888-0.15961 0.56217-0.15961 0.21329-0.43222 0.21329-0.27826 0-0.43787-0.17656v0.73591h-0.26131v-2.1159h0.23871l0.01271 0.1695q0.15961-0.19775 0.44352-0.19775 0.27544 0 0.43505 0.20764 0.16102 0.20764 0.16102 0.57771zm-0.26131-0.02966q0-0.25848-0.11018-0.40821-0.11017-0.14972-0.30227-0.14972-0.2373 0-0.35595 0.21046v0.73026q0.11724 0.20905 0.35877 0.20905 0.18786 0 0.29804-0.14831 0.11159-0.14972 0.11159-0.44352z" style="font-feature-settings:normal;font-variant-caps:normal;font-variant-ligatures:normal;font-variant-numeric:normal"/><path d="m69.82 66.309q-0.31075 0-0.50567-0.2034-0.19492-0.20481-0.19492-0.54663v-0.04803q0-0.22741 0.08616-0.40538 0.08757-0.17939 0.24295-0.27967 0.15679-0.1017 0.339-0.1017 0.29804 0 0.4633 0.19634 0.16526 0.19634 0.16526 0.56217v0.10876h-1.0354q0.0057 0.226 0.13136 0.36584 0.12712 0.13842 0.32205 0.13842 0.13842 0 0.23447-0.0565 0.09605-0.0565 0.16809-0.14972l0.15961 0.1243q-0.1921 0.29521-0.5763 0.29521zm-0.03249-1.3701q-0.1582 0-0.26555 0.11582-0.10735 0.11441-0.13277 0.32205h0.76557v-0.01977q-0.0113-0.19916-0.10735-0.30792-0.09605-0.11018-0.2599-0.11018z" style="font-feature-settings:normal;font-variant-caps:normal;font-variant-ligatures:normal;font-variant-numeric:normal"/><path d="m71.332 66.096q0.13984 0 0.24436-0.08475t0.11582-0.21187h0.24719q-0.0071 0.13136-0.0904 0.25001-0.08334 0.11865-0.22317 0.18927-0.13842 0.07062-0.2938 0.07062-0.31216 0-0.4972-0.20764-0.18362-0.20905-0.18362-0.57065v-0.04379q0-0.22317 0.08192-0.39691 0.08192-0.17374 0.23447-0.26979 0.15396-0.09605 0.36301-0.09605 0.25707 0 0.42657 0.15396 0.17091 0.15396 0.18221 0.39974h-0.24719q-0.0113-0.14831-0.113-0.24295-0.10029-0.09605-0.2486-0.09605-0.19916 0-0.30934 0.14407-0.10876 0.14266-0.10876 0.41386v0.04944q0 0.26414 0.10876 0.4068 0.10876 0.14266 0.31075 0.14266z" style="font-feature-settings:normal;font-variant-caps:normal;font-variant-ligatures:normal;font-variant-numeric:normal"/><path d="m73.176 66.129q-0.15255 0.17939-0.44776 0.17939-0.24436 0-0.3729-0.14125-0.12712-0.14266-0.12854-0.42092v-0.99439h0.26131v0.98733q0 0.34747 0.2825 0.34747 0.29945 0 0.39832-0.22317v-1.1116h0.26131v1.5283h-0.2486z" style="font-feature-settings:normal;font-variant-caps:normal;font-variant-ligatures:normal;font-variant-numeric:normal"/><path d="m74.112 66.281h-0.26131v-2.1696h0.26131z" style="font-feature-settings:normal;font-variant-caps:normal;font-variant-ligatures:normal;font-variant-numeric:normal"/><path d="m75.473 66.281q-0.0226-0.0452-0.03673-0.16102-0.18221 0.18927-0.43505 0.18927-0.226 0-0.37148-0.12712-0.14407-0.12854-0.14407-0.32487 0-0.23871 0.1808-0.37007 0.18221-0.13278 0.51132-0.13278h0.25425v-0.12006q0-0.13701-0.08192-0.21752-0.08192-0.08192-0.24154-0.08192-0.13984 0-0.23447 0.07062-0.09464 0.07062-0.09464 0.17091h-0.26272q0-0.11441 0.08051-0.22035 0.08192-0.10735 0.22035-0.1695 0.13984-0.06215 0.30651-0.06215 0.26414 0 0.41386 0.13277 0.14972 0.13136 0.15537 0.36301v0.70342q0 0.21046 0.05367 0.33476v0.0226zm-0.43363-0.19916q0.12289 0 0.23306-0.06356 0.11017-0.06356 0.15961-0.16526v-0.31357h-0.20481q-0.48025 0-0.48025 0.28108 0 0.12289 0.08192 0.1921 0.08192 0.06921 0.21046 0.06921z" style="font-feature-settings:normal;font-variant-caps:normal;font-variant-ligatures:normal;font-variant-numeric:normal"/><path d="m76.842 64.987q-0.05933-0.0099-0.12854-0.0099-0.25707 0-0.34888 0.21894v1.0848h-0.26131v-1.5283h0.25425l0.0042 0.17656q0.12854-0.20481 0.36442-0.20481 0.07627 0 0.11582 0.01977z" style="font-feature-settings:normal;font-variant-caps:normal;font-variant-ligatures:normal;font-variant-numeric:normal"/><path d="m78.082 66.281h-0.26131v-2.1696h0.26131z" style="font-feature-settings:normal;font-variant-caps:normal;font-variant-ligatures:normal;font-variant-numeric:normal"/><path d="m78.784 66.281h-0.26131v-1.5283h0.26131zm-0.2825-1.9337q0-0.06356 0.03814-0.10735 0.03955-0.04379 0.11582-0.04379 0.07628 0 0.11582 0.04379 0.03955 0.04379 0.03955 0.10735 0 0.06356-0.03955 0.10594-0.03955 0.04237-0.11582 0.04237-0.07627 0-0.11582-0.04237-0.03814-0.04238-0.03814-0.10594z" style="font-feature-settings:normal;font-variant-caps:normal;font-variant-ligatures:normal;font-variant-numeric:normal"/><path d="m79.14 65.504q0-0.35736 0.16526-0.56782 0.16526-0.21187 0.43787-0.21187 0.27967 0 0.43646 0.19775l0.01271-0.1695h0.23871v1.4916q0 0.29662-0.17656 0.46754-0.17515 0.17091-0.47177 0.17091-0.16526 0-0.32346-0.07062t-0.24154-0.19351l0.1356-0.15679q0.16809 0.20764 0.41104 0.20764 0.19069 0 0.29662-0.10735 0.10735-0.10735 0.10735-0.30227v-0.13136q-0.15679 0.1808-0.42798 0.1808-0.26837 0-0.43505-0.21611-0.16526-0.21611-0.16526-0.58901zm0.26272 0.02966q0 0.25848 0.10594 0.4068 0.10594 0.1469 0.29662 0.1469 0.24719 0 0.36301-0.22459v-0.69777q-0.12006-0.21894-0.36018-0.21894-0.19069 0-0.29804 0.14831-0.10735 0.14831-0.10735 0.43928z" style="font-feature-settings:normal;font-variant-caps:normal;font-variant-ligatures:normal;font-variant-numeric:normal"/><path d="m81.086 64.937q0.17374-0.21329 0.452-0.21329 0.48448 0 0.48872 0.54663v1.0099h-0.26131v-1.0113q-0.0014-0.16526-0.07627-0.24436-0.07345-0.0791-0.23024-0.0791-0.12712 0-0.22317 0.0678-0.09605 0.0678-0.14972 0.17797v1.089h-0.26132v-2.1696h0.26131z" style="font-feature-settings:normal;font-variant-caps:normal;font-variant-ligatures:normal;font-variant-numeric:normal"/><path d="m82.773 64.382v0.37007h0.28532v0.20199h-0.28532v0.94778q0 0.09181 0.03814 0.13842 0.03814 0.0452 0.12995 0.0452 0.0452 0 0.1243-0.01695v0.21187q-0.10311 0.02825-0.20057 0.02825-0.17515 0-0.26414-0.10594-0.08899-0.10594-0.08899-0.30086v-0.94778h-0.27826v-0.20199h0.27826v-0.37007z" style="font-feature-settings:normal;font-variant-caps:normal;font-variant-ligatures:normal;font-variant-numeric:normal"/><path d="m83.647 66.281h-0.26131v-1.5283h0.26131zm-0.2825-1.9337q0-0.06356 0.03814-0.10735 0.03955-0.04379 0.11582-0.04379 0.07627 0 0.11582 0.04379 0.03955 0.04379 0.03955 0.10735 0 0.06356-0.03955 0.10594-0.03955 0.04237-0.11582 0.04237-0.07627 0-0.11582-0.04237-0.03814-0.04238-0.03814-0.10594z" style="font-feature-settings:normal;font-variant-caps:normal;font-variant-ligatures:normal;font-variant-numeric:normal"/><path d="m84.313 64.752 0.0085 0.1921q0.17515-0.22035 0.45765-0.22035 0.48448 0 0.48872 0.54663v1.0099h-0.26131v-1.0113q-0.0014-0.16526-0.07628-0.24436-0.07345-0.0791-0.23024-0.0791-0.12712 0-0.22317 0.0678-0.09605 0.0678-0.14972 0.17797v1.089h-0.26131v-1.5283z" style="font-feature-settings:normal;font-variant-caps:normal;font-variant-ligatures:normal;font-variant-numeric:normal"/><path d="m85.599 65.504q0-0.35736 0.16526-0.56782 0.16526-0.21187 0.43787-0.21187 0.27967 0 0.43646 0.19775l0.01271-0.1695h0.23871v1.4916q0 0.29662-0.17656 0.46754-0.17515 0.17091-0.47177 0.17091-0.16526 0-0.32346-0.07062t-0.24154-0.19351l0.1356-0.15679q0.16809 0.20764 0.41104 0.20764 0.19069 0 0.29662-0.10735 0.10735-0.10735 0.10735-0.30227v-0.13136q-0.15679 0.1808-0.42798 0.1808-0.26837 0-0.43505-0.21611-0.16526-0.21611-0.16526-0.58901zm0.26272 0.02966q0 0.25848 0.10594 0.4068 0.10594 0.1469 0.29662 0.1469 0.24719 0 0.36301-0.22459v-0.69777q-0.12006-0.21894-0.36018-0.21894-0.19069 0-0.29804 0.14831-0.10735 0.14831-0.10735 0.43928z" style="font-feature-settings:normal;font-variant-caps:normal;font-variant-ligatures:normal;font-variant-numeric:normal"/></g><path d="m55.685 70.283 1.0583 1.0583 1.0583-1.0583-1.0583-1.0583z" fill="#bbb" stroke="#222" stroke-width=".26458"/><g fill="#888" stroke-width=".26458"><g style="font-feature-settings:normal;font-variant-caps:normal;font-variant-ligatures:normal;font-variant-numeric:normal" aria-label="Input"><path d="m59.661 71.293h-0.2712v-2.0566h0.2712z" style="font-feature-settings:normal;font-variant-caps:normal;font-variant-ligatures:normal;font-variant-numeric:normal"/><path d="m60.363 69.765 0.0085 0.1921q0.17515-0.22035 0.45765-0.22035 0.48448 0 0.48872 0.54663v1.0099h-0.26131v-1.0113q-0.0014-0.16526-0.07628-0.24436-0.07345-0.0791-0.23024-0.0791-0.12712 0-0.22317 0.0678-0.09605 0.0678-0.14972 0.17797v1.089h-0.26131v-1.5283z" style="font-feature-settings:normal;font-variant-caps:normal;font-variant-ligatures:normal;font-variant-numeric:normal"/><path d="m63.003 70.546q0 0.34888-0.15961 0.56217-0.15961 0.21329-0.43222 0.21329-0.27826 0-0.43787-0.17656v0.73591h-0.26131v-2.1159h0.23871l0.01271 0.1695q0.15961-0.19775 0.44352-0.19775 0.27544 0 0.43505 0.20764 0.16102 0.20764 0.16102 0.57771zm-0.26131-0.02966q0-0.25849-0.11018-0.40821-0.11017-0.14972-0.30227-0.14972-0.2373 0-0.35595 0.21046v0.73026q0.11724 0.20905 0.35877 0.20905 0.18786 0 0.29804-0.14831 0.11159-0.14972 0.11159-0.44352z" style="font-feature-settings:normal;font-variant-caps:normal;font-variant-ligatures:normal;font-variant-numeric:normal"/><path d="m64.278 71.142q-0.15255 0.17939-0.44776 0.17939-0.24436 0-0.3729-0.14125-0.12712-0.14266-0.12854-0.42092v-0.99439h0.26131v0.98733q0 0.34747 0.2825 0.34747 0.29945 0 0.39832-0.22317v-1.1116h0.26131v1.5283h-0.2486z" style="font-feature-settings:normal;font-variant-caps:normal;font-variant-ligatures:normal;font-variant-numeric:normal"/><path d="m65.284 69.395v0.37007h0.28532v0.20199h-0.28532v0.94778q0 0.09181 0.03814 0.13842 0.03814 0.0452 0.12995 0.0452 0.0452 0 0.1243-0.01695v0.21187q-0.10311 0.02825-0.20057 0.02825-0.17515 0-0.26414-0.10594-0.08899-0.10594-0.08899-0.30086v-0.94778h-0.27826v-0.20199h0.27826v-0.37007z" style="font-feature-settings:normal;font-variant-caps:normal;font-variant-ligatures:normal;font-variant-numeric:normal"/></g><g style="font-variant-caps:normal;font-variant-ligatures:normal;font-variant-numeric:normal" aria-label="surface scale:"><path d="m58.902 76.174q0-0.10594-0.08051-0.16385-0.0791-0.05932-0.27826-0.1017-0.19775-0.04237-0.31498-0.1017-0.11582-0.05933-0.17232-0.14125-0.05509-0.08192-0.05509-0.19492 0-0.18786 0.1582-0.31781 0.15961-0.12995 0.4068-0.12995 0.2599 0 0.42092 0.13419 0.16244 0.13419 0.16244 0.34324h-0.26272q0-0.10735-0.09181-0.18504-0.0904-0.07769-0.22882-0.07769-0.14266 0-0.22317 0.06215-0.08051 0.06215-0.08051 0.16244 0 0.09464 0.07486 0.14266 0.07486 0.04802 0.26979 0.09181 0.19634 0.04379 0.31781 0.10452 0.12147 0.06074 0.17939 0.1469 0.05933 0.08475 0.05933 0.20764 0 0.20481-0.16385 0.32911-0.16385 0.12289-0.42516 0.12289-0.18362 0-0.32487-0.06498-0.14125-0.06498-0.22176-0.1808-0.0791-0.11724-0.0791-0.25284h0.26131q0.0071 0.13136 0.10452 0.20905 0.09887 0.07628 0.2599 0.07628 0.14831 0 0.2373-0.05933 0.0904-0.06074 0.0904-0.16102z"/><path d="m60.447 76.429q-0.15255 0.17939-0.44776 0.17939-0.24436 0-0.3729-0.14125-0.12712-0.14266-0.12854-0.42092v-0.99439h0.26131v0.98733q0 0.34747 0.2825 0.34747 0.29945 0 0.39832-0.22317v-1.1116h0.26131v1.5283h-0.2486z"/><path d="m61.837 75.286q-0.05933-0.0099-0.12854-0.0099-0.25707 0-0.34888 0.21894v1.0848h-0.26131v-1.5283h0.25425l0.0042 0.17656q0.12854-0.20481 0.36442-0.20481 0.07627 0 0.11582 0.01978z"/><path d="m62.227 76.58v-1.3263h-0.24154v-0.20199h0.24154v-0.15679q0-0.24577 0.13136-0.37996 0.13136-0.13419 0.37148-0.13419 0.0904 0 0.17939 0.02401l-0.01412 0.21187q-0.06639-0.01271-0.14125-0.01271-0.12712 0-0.19634 0.07486-0.06921 0.07345-0.06921 0.21187v0.16102h0.32628v0.20199h-0.32628v1.3263z"/><path d="m64.046 76.58q-0.0226-0.0452-0.03672-0.16102-0.18221 0.18927-0.43505 0.18927-0.226 0-0.37148-0.12712-0.14407-0.12854-0.14407-0.32487 0-0.23871 0.1808-0.37007 0.18221-0.13277 0.51132-0.13277h0.25425v-0.12006q0-0.13701-0.08192-0.21752-0.08192-0.08192-0.24154-0.08192-0.13984 0-0.23447 0.07062-0.09464 0.07063-0.09464 0.17091h-0.26273q0-0.11441 0.08051-0.22035 0.08193-0.10735 0.22035-0.1695 0.13984-0.06215 0.30651-0.06215 0.26414 0 0.41386 0.13278 0.14972 0.13136 0.15537 0.36301v0.70342q0 0.21046 0.05368 0.33476v0.0226zm-0.43363-0.19916q0.12289 0 0.23306-0.06356t0.15961-0.16526v-0.31357h-0.20481q-0.48025 0-0.48025 0.28109 0 0.12289 0.08192 0.1921 0.08192 0.06921 0.21046 0.06921z"/><path d="m65.289 76.395q0.13984 0 0.24436-0.08475t0.11582-0.21187h0.24719q-0.0071 0.13136-0.0904 0.25001-0.08334 0.11865-0.22317 0.18927-0.13842 0.07063-0.2938 0.07063-0.31216 0-0.4972-0.20764-0.18362-0.20905-0.18362-0.57065v-0.04379q0-0.22317 0.08192-0.39691 0.08192-0.17374 0.23447-0.26978 0.15396-0.09605 0.36301-0.09605 0.25707 0 0.42657 0.15396 0.17091 0.15396 0.18221 0.39974h-0.24719q-0.0113-0.14831-0.113-0.24295-0.10029-0.09605-0.2486-0.09605-0.19916 0-0.30934 0.14407-0.10876 0.14266-0.10876 0.41386v0.04944q0 0.26414 0.10876 0.4068 0.10876 0.14266 0.31075 0.14266z"/><path d="m66.825 76.608q-0.31075 0-0.50567-0.2034-0.19492-0.20481-0.19492-0.54663v-0.04802q0-0.22741 0.08616-0.40538 0.08757-0.17939 0.24295-0.27967 0.15679-0.1017 0.339-0.1017 0.29804 0 0.4633 0.19634 0.16526 0.19634 0.16526 0.56217v0.10876h-1.0354q0.0056 0.226 0.13136 0.36583 0.12712 0.13842 0.32205 0.13842 0.13842 0 0.23447-0.0565t0.16809-0.14972l0.15961 0.1243q-0.1921 0.29521-0.5763 0.29521zm-0.03249-1.3701q-0.1582 0-0.26555 0.11582-0.10735 0.11441-0.13277 0.32205h0.76557v-0.01978q-0.0113-0.19916-0.10735-0.30792-0.09605-0.11017-0.2599-0.11017z"/><path d="m69.329 76.174q0-0.10594-0.08051-0.16385-0.0791-0.05932-0.27826-0.1017-0.19775-0.04237-0.31498-0.1017-0.11582-0.05933-0.17232-0.14125-0.05509-0.08192-0.05509-0.19492 0-0.18786 0.1582-0.31781 0.15961-0.12995 0.4068-0.12995 0.2599 0 0.42092 0.13419 0.16244 0.13419 0.16244 0.34324h-0.26272q0-0.10735-0.09181-0.18504-0.0904-0.07769-0.22882-0.07769-0.14266 0-0.22317 0.06215-0.08051 0.06215-0.08051 0.16244 0 0.09464 0.07486 0.14266 0.07486 0.04802 0.26978 0.09181 0.19634 0.04379 0.31781 0.10452 0.12147 0.06074 0.17939 0.1469 0.05933 0.08475 0.05933 0.20764 0 0.20481-0.16385 0.32911-0.16385 0.12289-0.42516 0.12289-0.18362 0-0.32487-0.06498t-0.22176-0.1808q-0.0791-0.11724-0.0791-0.25284h0.26131q0.0071 0.13136 0.10452 0.20905 0.09887 0.07628 0.2599 0.07628 0.14831 0 0.2373-0.05933 0.0904-0.06074 0.0904-0.16102z"/><path d="m70.544 76.395q0.13984 0 0.24436-0.08475t0.11582-0.21187h0.24719q-0.0071 0.13136-0.0904 0.25001-0.08334 0.11865-0.22317 0.18927-0.13842 0.07063-0.2938 0.07063-0.31216 0-0.4972-0.20764-0.18362-0.20905-0.18362-0.57065v-0.04379q0-0.22317 0.08192-0.39691 0.08192-0.17374 0.23447-0.26978 0.15396-0.09605 0.36301-0.09605 0.25707 0 0.42657 0.15396 0.17091 0.15396 0.18221 0.39974h-0.24719q-0.0113-0.14831-0.113-0.24295-0.10029-0.09605-0.2486-0.09605-0.19916 0-0.30934 0.14407-0.10876 0.14266-0.10876 0.41386v0.04944q0 0.26414 0.10876 0.4068 0.10876 0.14266 0.31075 0.14266z"/><path d="m72.389 76.58q-0.0226-0.0452-0.03672-0.16102-0.18221 0.18927-0.43505 0.18927-0.226 0-0.37148-0.12712-0.14407-0.12854-0.14407-0.32487 0-0.23871 0.1808-0.37007 0.18221-0.13277 0.51132-0.13277h0.25425v-0.12006q0-0.13701-0.08192-0.21752-0.08192-0.08192-0.24154-0.08192-0.13984 0-0.23447 0.07062-0.09464 0.07063-0.09464 0.17091h-0.26272q0-0.11441 0.08051-0.22035 0.08192-0.10735 0.22035-0.1695 0.13984-0.06215 0.30651-0.06215 0.26414 0 0.41386 0.13278 0.14972 0.13136 0.15537 0.36301v0.70342q0 0.21046 0.05367 0.33476v0.0226zm-0.43364-0.19916q0.12289 0 0.23306-0.06356t0.15961-0.16526v-0.31357h-0.20481q-0.48025 0-0.48025 0.28109 0 0.12289 0.08192 0.1921 0.08192 0.06921 0.21046 0.06921z"/><path d="m73.303 76.58h-0.26131v-2.1696h0.26131z"/><path d="m74.355 76.608q-0.31075 0-0.50567-0.2034-0.19492-0.20481-0.19492-0.54663v-0.04802q0-0.22741 0.08616-0.40538 0.08758-0.17939 0.24295-0.27967 0.15679-0.1017 0.339-0.1017 0.29804 0 0.4633 0.19634 0.16526 0.19634 0.16526 0.56217v0.10876h-1.0354q0.0057 0.226 0.13136 0.36583 0.12712 0.13842 0.32205 0.13842 0.13842 0 0.23447-0.0565 0.09605-0.0565 0.16809-0.14972l0.15961 0.1243q-0.1921 0.29521-0.57629 0.29521zm-0.03249-1.3701q-0.1582 0-0.26555 0.11582-0.10735 0.11441-0.13277 0.32205h0.76557v-0.01978q-0.0113-0.19916-0.10735-0.30792-0.09605-0.11017-0.2599-0.11017z"/><path d="m75.245 76.443q0-0.0678 0.03955-0.113 0.04096-0.0452 0.12147-0.0452 0.08051 0 0.12147 0.0452 0.04238 0.0452 0.04238 0.113 0 0.06497-0.04238 0.10876-0.04096 0.04379-0.12147 0.04379-0.08051 0-0.12147-0.04379-0.03955-0.04379-0.03955-0.10876zm0.0014-1.2472q0-0.0678 0.03955-0.113 0.04096-0.0452 0.12147-0.0452 0.08051 0 0.12147 0.0452 0.04238 0.0452 0.04238 0.113 0 0.06498-0.04238 0.10876-0.04096 0.04379-0.12147 0.04379-0.08051 0-0.12147-0.04379-0.03955-0.04379-0.03955-0.10876z"/></g><g style="font-variant-caps:normal;font-variant-ligatures:normal;font-variant-numeric:normal" aria-label="specular const.:"><path d="m58.902 81.71q0-0.10594-0.08051-0.16385-0.0791-0.05933-0.27826-0.1017-0.19775-0.04238-0.31498-0.1017-0.11582-0.05932-0.17232-0.14125-0.05509-0.08192-0.05509-0.19492 0-0.18786 0.1582-0.31781 0.15961-0.12995 0.4068-0.12995 0.2599 0 0.42092 0.13419 0.16244 0.13419 0.16244 0.34324h-0.26272q0-0.10735-0.09181-0.18504-0.0904-0.07769-0.22882-0.07769-0.14266 0-0.22317 0.06215-0.08051 0.06215-0.08051 0.16244 0 0.09464 0.07486 0.14266 0.07486 0.04802 0.26979 0.09181 0.19634 0.04379 0.31781 0.10452 0.12147 0.06074 0.17939 0.1469 0.05933 0.08475 0.05933 0.20764 0 0.20481-0.16385 0.32911-0.16385 0.12289-0.42516 0.12289-0.18362 0-0.32487-0.06497-0.14125-0.06498-0.22176-0.1808-0.0791-0.11724-0.0791-0.25284h0.26131q0.0071 0.13136 0.10452 0.20905 0.09887 0.07627 0.2599 0.07627 0.14831 0 0.2373-0.05932 0.0904-0.06074 0.0904-0.16102z"/><path d="m60.795 81.368q0 0.34888-0.15961 0.56217-0.15961 0.21329-0.43222 0.21329-0.27826 0-0.43787-0.17656v0.73591h-0.26131v-2.1159h0.23871l0.01271 0.1695q0.15961-0.19775 0.44352-0.19775 0.27544 0 0.43505 0.20764 0.16102 0.20764 0.16102 0.57771zm-0.26131-0.02966q0-0.25849-0.11017-0.40821t-0.30227-0.14972q-0.2373 0-0.35595 0.21046v0.73026q0.11724 0.20905 0.35877 0.20905 0.18786 0 0.29804-0.14831 0.11159-0.14972 0.11159-0.44352z"/><path d="m61.761 82.144q-0.31075 0-0.50567-0.2034-0.19492-0.20481-0.19492-0.54663v-0.04802q0-0.22741 0.08616-0.40538 0.08757-0.17939 0.24295-0.27967 0.15679-0.1017 0.339-0.1017 0.29804 0 0.4633 0.19634 0.16526 0.19634 0.16526 0.56217v0.10876h-1.0354q0.0057 0.226 0.13136 0.36584 0.12712 0.13842 0.32205 0.13842 0.13842 0 0.23447-0.0565t0.16809-0.14972l0.15961 0.1243q-0.1921 0.29521-0.5763 0.29521zm-0.03249-1.3701q-0.1582 0-0.26555 0.11582-0.10735 0.11441-0.13277 0.32205h0.76557v-0.01977q-0.0113-0.19916-0.10735-0.30792-0.09605-0.11017-0.2599-0.11017z"/><path d="m63.272 81.931q0.13984 0 0.24436-0.08475 0.10452-0.08475 0.11582-0.21187h0.24719q-0.0071 0.13136-0.0904 0.25001-0.08334 0.11865-0.22317 0.18927-0.13842 0.07062-0.2938 0.07062-0.31216 0-0.4972-0.20764-0.18362-0.20905-0.18362-0.57065v-0.04379q0-0.22317 0.08193-0.39691 0.08192-0.17374 0.23447-0.26978 0.15396-0.09605 0.36301-0.09605 0.25707 0 0.42657 0.15396 0.17091 0.15396 0.18221 0.39973h-0.24719q-0.0113-0.14831-0.113-0.24295-0.10029-0.09605-0.2486-0.09605-0.19916 0-0.30934 0.14407-0.10876 0.14266-0.10876 0.41386v0.04944q0 0.26414 0.10876 0.4068 0.10876 0.14266 0.31075 0.14266z"/><path d="m65.117 81.964q-0.15255 0.17939-0.44776 0.17939-0.24436 0-0.3729-0.14125-0.12712-0.14266-0.12854-0.42092v-0.99439h0.26131v0.98733q0 0.34747 0.2825 0.34747 0.29945 0 0.39832-0.22317v-1.1116h0.26131v1.5283h-0.2486z"/><path d="m66.052 82.116h-0.26131v-2.1696h0.26131z"/><path d="m67.414 82.116q-0.0226-0.0452-0.03673-0.16102-0.18221 0.18927-0.43505 0.18927-0.226 0-0.37148-0.12712-0.14407-0.12854-0.14407-0.32487 0-0.23871 0.1808-0.37007 0.18221-0.13277 0.51132-0.13277h0.25425v-0.12006q0-0.13701-0.08192-0.21752-0.08192-0.08192-0.24154-0.08192-0.13984 0-0.23447 0.07063-0.09464 0.07062-0.09464 0.17091h-0.26272q0-0.11441 0.08051-0.22035 0.08192-0.10735 0.22035-0.1695 0.13984-0.06215 0.30651-0.06215 0.26414 0 0.41386 0.13277 0.14972 0.13136 0.15537 0.36301v0.70342q0 0.21046 0.05367 0.33476v0.0226zm-0.43363-0.19916q0.12289 0 0.23306-0.06356 0.11017-0.06356 0.15961-0.16526v-0.31357h-0.20481q-0.48025 0-0.48025 0.28109 0 0.12289 0.08193 0.1921 0.08192 0.06921 0.21046 0.06921z"/><path d="m68.783 80.822q-0.05932-0.0099-0.12854-0.0099-0.25707 0-0.34889 0.21894v1.0848h-0.26131v-1.5283h0.25425l0.0042 0.17656q0.12854-0.20481 0.36442-0.20481 0.07627 0 0.11582 0.01977z"/><path d="m70.352 81.931q0.13984 0 0.24436-0.08475 0.10452-0.08475 0.11582-0.21187h0.24719q-0.0071 0.13136-0.0904 0.25001-0.08334 0.11865-0.22317 0.18927-0.13842 0.07062-0.2938 0.07062-0.31216 0-0.4972-0.20764-0.18362-0.20905-0.18362-0.57065v-0.04379q0-0.22317 0.08192-0.39691 0.08192-0.17374 0.23447-0.26978 0.15396-0.09605 0.36301-0.09605 0.25707 0 0.42657 0.15396 0.17091 0.15396 0.18221 0.39973h-0.24719q-0.0113-0.14831-0.113-0.24295-0.10029-0.09605-0.2486-0.09605-0.19916 0-0.30934 0.14407-0.10876 0.14266-0.10876 0.41386v0.04944q0 0.26414 0.10876 0.4068 0.10876 0.14266 0.31075 0.14266z"/><path d="m71.184 81.337q0-0.22459 0.08757-0.40397 0.08899-0.17939 0.24577-0.27685 0.1582-0.09746 0.36018-0.09746 0.31216 0 0.50426 0.21611 0.19351 0.21611 0.19351 0.57488v0.01836q0 0.22317-0.08616 0.40115-0.08475 0.17656-0.24436 0.27544-0.1582 0.09887-0.36442 0.09887-0.31075 0-0.50426-0.21611-0.1921-0.21611-0.1921-0.57206zm0.26272 0.03108q0 0.25425 0.11724 0.40821 0.11865 0.15396 0.3164 0.15396 0.19916 0 0.3164-0.15537 0.11724-0.15679 0.11724-0.43787 0-0.25142-0.12006-0.4068-0.11865-0.15679-0.3164-0.15679-0.19351 0-0.31216 0.15396-0.11865 0.15396-0.11865 0.4407z"/><path d="m73.15 80.587 0.0085 0.1921q0.17515-0.22035 0.45765-0.22035 0.48448 0 0.48872 0.54663v1.0099h-0.26131v-1.0113q-0.0014-0.16526-0.07627-0.24436-0.07345-0.0791-0.23024-0.0791-0.12712 0-0.22317 0.0678t-0.14972 0.17797v1.089h-0.26131v-1.5283z"/><path d="m75.389 81.71q0-0.10594-0.08051-0.16385-0.0791-0.05933-0.27826-0.1017-0.19775-0.04238-0.31498-0.1017-0.11582-0.05932-0.17232-0.14125-0.05509-0.08192-0.05509-0.19492 0-0.18786 0.1582-0.31781 0.15961-0.12995 0.4068-0.12995 0.2599 0 0.42092 0.13419 0.16244 0.13419 0.16244 0.34324h-0.26272q0-0.10735-0.09181-0.18504-0.0904-0.07769-0.22882-0.07769-0.14266 0-0.22317 0.06215-0.08051 0.06215-0.08051 0.16244 0 0.09464 0.07486 0.14266 0.07486 0.04802 0.26978 0.09181 0.19634 0.04379 0.31781 0.10452 0.12148 0.06074 0.17939 0.1469 0.05932 0.08475 0.05932 0.20764 0 0.20481-0.16385 0.32911-0.16385 0.12289-0.42516 0.12289-0.18362 0-0.32487-0.06497-0.14125-0.06498-0.22176-0.1808-0.0791-0.11724-0.0791-0.25284h0.26131q0.0071 0.13136 0.10452 0.20905 0.09887 0.07627 0.2599 0.07627 0.14831 0 0.2373-0.05932 0.0904-0.06074 0.0904-0.16102z"/><path d="m76.345 80.217v0.37007h0.28532v0.20199h-0.28532v0.94778q0 0.09181 0.03814 0.13842 0.03814 0.0452 0.12995 0.0452 0.0452 0 0.1243-0.01695v0.21187q-0.10311 0.02825-0.20057 0.02825-0.17515 0-0.26414-0.10594-0.08899-0.10594-0.08899-0.30086v-0.94778h-0.27826v-0.20199h0.27826v-0.37007z"/><path d="m76.941 81.979q0-0.0678 0.03955-0.113 0.04096-0.0452 0.12147-0.0452 0.08051 0 0.12147 0.0452 0.04237 0.0452 0.04237 0.113 0 0.06498-0.04237 0.10876-0.04096 0.04379-0.12147 0.04379-0.08051 0-0.12147-0.04379-0.03955-0.04379-0.03955-0.10876z"/><path d="m77.688 81.979q0-0.0678 0.03955-0.113 0.04096-0.0452 0.12148-0.0452 0.08051 0 0.12147 0.0452 0.04237 0.0452 0.04237 0.113 0 0.06498-0.04237 0.10876-0.04096 0.04379-0.12147 0.04379-0.08051 0-0.12148-0.04379-0.03955-0.04379-0.03955-0.10876zm0.0014-1.2472q0-0.0678 0.03955-0.113 0.04096-0.0452 0.12147-0.0452 0.08051 0 0.12147 0.0452 0.04238 0.0452 0.04238 0.113 0 0.06497-0.04238 0.10876-0.04096 0.04379-0.12147 0.04379-0.08051 0-0.12147-0.04379-0.03955-0.04379-0.03955-0.10876z"/></g><g style="font-variant-caps:normal;font-variant-ligatures:normal;font-variant-numeric:normal" aria-label="specular exp.:"><path d="m58.977 86.766q0-0.10594-0.08051-0.16385-0.0791-0.05933-0.27826-0.1017-0.19775-0.04237-0.31498-0.1017-0.11582-0.05932-0.17232-0.14125-0.05509-0.08193-0.05509-0.19492 0-0.18786 0.1582-0.31781 0.15961-0.12995 0.4068-0.12995 0.2599 0 0.42092 0.13419 0.16244 0.13419 0.16244 0.34324h-0.26272q0-0.10735-0.09181-0.18504-0.0904-0.07769-0.22882-0.07769-0.14266 0-0.22317 0.06215-0.08051 0.06215-0.08051 0.16244 0 0.09464 0.07486 0.14266 0.07486 0.04802 0.26979 0.09181 0.19634 0.04379 0.31781 0.10452 0.12147 0.06074 0.17939 0.1469 0.05933 0.08475 0.05933 0.20764 0 0.20481-0.16385 0.32911-0.16385 0.12289-0.42516 0.12289-0.18362 0-0.32487-0.06497-0.14125-0.06497-0.22176-0.1808-0.0791-0.11724-0.0791-0.25284h0.26131q0.0071 0.13136 0.10452 0.20905 0.09887 0.07627 0.2599 0.07627 0.14831 0 0.2373-0.05933 0.0904-0.06074 0.0904-0.16102z"/><path d="m60.87 86.424q0 0.34888-0.15961 0.56217-0.15961 0.21329-0.43222 0.21329-0.27826 0-0.43787-0.17656v0.73591h-0.26131v-2.1159h0.23871l0.01271 0.1695q0.15961-0.19775 0.44352-0.19775 0.27544 0 0.43505 0.20764 0.16102 0.20764 0.16102 0.57771zm-0.26131-0.02966q0-0.25848-0.11017-0.40821t-0.30227-0.14972q-0.2373 0-0.35595 0.21046v0.73026q0.11724 0.20905 0.35877 0.20905 0.18786 0 0.29804-0.14831 0.11159-0.14972 0.11159-0.44352z"/><path d="m61.836 87.2q-0.31075 0-0.50567-0.2034-0.19492-0.20481-0.19492-0.54663v-0.04803q0-0.22741 0.08616-0.40538 0.08757-0.17939 0.24295-0.27967 0.15679-0.1017 0.339-0.1017 0.29804 0 0.4633 0.19634 0.16526 0.19634 0.16526 0.56217v0.10876h-1.0354q0.0057 0.226 0.13136 0.36584 0.12712 0.13842 0.32205 0.13842 0.13842 0 0.23447-0.0565t0.16809-0.14972l0.15961 0.1243q-0.1921 0.29521-0.5763 0.29521zm-0.03249-1.3701q-0.1582 0-0.26555 0.11582-0.10735 0.11441-0.13277 0.32205h0.76557v-0.01977q-0.0113-0.19916-0.10735-0.30792-0.09605-0.11018-0.2599-0.11018z"/><path d="m63.348 86.987q0.13984 0 0.24436-0.08475 0.10452-0.08475 0.11582-0.21187h0.24719q-0.0071 0.13136-0.0904 0.25001-0.08334 0.11865-0.22317 0.18927-0.13842 0.07062-0.2938 0.07062-0.31216 0-0.4972-0.20764-0.18362-0.20905-0.18362-0.57065v-0.04379q0-0.22317 0.08192-0.39691t0.23447-0.26979q0.15396-0.09605 0.36301-0.09605 0.25707 0 0.42657 0.15396 0.17091 0.15396 0.18221 0.39974h-0.24719q-0.0113-0.14831-0.113-0.24295-0.10029-0.09605-0.2486-0.09605-0.19916 0-0.30934 0.14407-0.10876 0.14266-0.10876 0.41386v0.04944q0 0.26414 0.10876 0.4068 0.10876 0.14266 0.31075 0.14266z"/><path d="m65.192 87.021q-0.15255 0.17939-0.44776 0.17939-0.24436 0-0.3729-0.14125-0.12712-0.14266-0.12854-0.42092v-0.99439h0.26131v0.98733q0 0.34747 0.2825 0.34747 0.29945 0 0.39832-0.22317v-1.1116h0.26131v1.5283h-0.2486z"/><path d="m66.128 87.172h-0.26131v-2.1696h0.26131z"/><path d="m67.489 87.172q-0.0226-0.0452-0.03673-0.16102-0.18221 0.18927-0.43505 0.18927-0.226 0-0.37148-0.12712-0.14407-0.12854-0.14407-0.32487 0-0.23871 0.1808-0.37007 0.18221-0.13277 0.51132-0.13277h0.25425v-0.12006q0-0.13701-0.08192-0.21752-0.08192-0.08192-0.24154-0.08192-0.13984 0-0.23447 0.07062-0.09464 0.07062-0.09464 0.17091h-0.26272q0-0.11441 0.08051-0.22035 0.08193-0.10735 0.22035-0.1695 0.13984-0.06215 0.30651-0.06215 0.26414 0 0.41386 0.13277 0.14972 0.13136 0.15537 0.36301v0.70342q0 0.21046 0.05367 0.33476v0.0226zm-0.43363-0.19916q0.12289 0 0.23306-0.06356 0.11017-0.06356 0.15961-0.16526v-0.31357h-0.20481q-0.48025 0-0.48025 0.28108 0 0.12289 0.08192 0.1921 0.08192 0.06921 0.21046 0.06921z"/><path d="m68.858 85.878q-0.05932-0.0099-0.12854-0.0099-0.25707 0-0.34889 0.21894v1.0848h-0.26131v-1.5283h0.25425l0.0042 0.17656q0.12854-0.20481 0.36442-0.20481 0.07627 0 0.11582 0.01977z"/><path d="m70.448 87.2q-0.31075 0-0.50567-0.2034-0.19492-0.20481-0.19492-0.54663v-0.04803q0-0.22741 0.08616-0.40538 0.08757-0.17939 0.24295-0.27967 0.15679-0.1017 0.339-0.1017 0.29804 0 0.4633 0.19634 0.16526 0.19634 0.16526 0.56217v0.10876h-1.0354q0.0057 0.226 0.13136 0.36584 0.12712 0.13842 0.32205 0.13842 0.13842 0 0.23447-0.0565 0.09605-0.0565 0.16809-0.14972l0.15961 0.1243q-0.1921 0.29521-0.5763 0.29521zm-0.03249-1.3701q-0.1582 0-0.26555 0.11582-0.10735 0.11441-0.13277 0.32205h0.76557v-0.01977q-0.0113-0.19916-0.10735-0.30792-0.09605-0.11018-0.2599-0.11018z"/><path d="m71.859 86.201 0.339-0.55793h0.3051l-0.50002 0.75568 0.51556 0.77263h-0.30227l-0.35312-0.57206-0.35312 0.57206h-0.30369l0.51556-0.77263-0.50002-0.75568h0.30227z"/><path d="m74.071 86.424q0 0.34888-0.15961 0.56217-0.15961 0.21329-0.43222 0.21329-0.27826 0-0.43787-0.17656v0.73591h-0.26131v-2.1159h0.23871l0.01271 0.1695q0.15961-0.19775 0.44352-0.19775 0.27544 0 0.43505 0.20764 0.16102 0.20764 0.16102 0.57771zm-0.26131-0.02966q0-0.25848-0.11017-0.40821-0.11018-0.14972-0.30227-0.14972-0.2373 0-0.35595 0.21046v0.73026q0.11724 0.20905 0.35877 0.20905 0.18786 0 0.29804-0.14831 0.11159-0.14972 0.11159-0.44352z"/><path d="m74.409 87.035q0-0.0678 0.03955-0.113 0.04096-0.0452 0.12147-0.0452 0.08051 0 0.12147 0.0452 0.04238 0.0452 0.04238 0.113 0 0.06497-0.04238 0.10876-0.04096 0.04379-0.12147 0.04379-0.08051 0-0.12147-0.04379-0.03955-0.04379-0.03955-0.10876z"/><path d="m75.156 87.035q0-0.0678 0.03955-0.113 0.04096-0.0452 0.12147-0.0452 0.08051 0 0.12148 0.0452 0.04237 0.0452 0.04237 0.113 0 0.06497-0.04237 0.10876-0.04096 0.04379-0.12148 0.04379-0.08051 0-0.12147-0.04379-0.03955-0.04379-0.03955-0.10876zm0.0014-1.2472q0-0.0678 0.03955-0.113 0.04096-0.0452 0.12147-0.0452 0.08051 0 0.12147 0.0452 0.04237 0.0452 0.04237 0.113 0 0.06497-0.04237 0.10876-0.04096 0.04379-0.12147 0.04379-0.08051 0-0.12147-0.04379-0.03955-0.04379-0.03955-0.10876z"/></g></g><g><path d="m76.984 73.59h17.727v4.2333h-17.727z" fill="#393939" stroke="#333" stroke-width=".26458"/><g fill="#c9c9c9" style="font-variant-caps:normal;font-variant-ligatures:normal;font-variant-numeric:normal" aria-label="1"><path d="m78.911 76.586h-0.26272v-1.7416l-0.52686 0.19351v-0.2373l0.74862-0.28108h0.04096z" fill="#c9c9c9" stroke-width=".26458"/></g><path d="m79.628 79.146h15.081v4.2333h-15.081z" fill="#393939" stroke="#333" stroke-width=".26458"/><g fill="#c9c9c9" style="font-variant-caps:normal;font-variant-ligatures:normal;font-variant-numeric:normal" aria-label="1"><path d="m81.361 82.126h-0.26272v-1.7416l-0.52686 0.19351v-0.2373l0.74862-0.28109h0.04096z" fill="#c9c9c9" stroke-width=".26458"/></g><path d="m80.686 89.2h14.023v4.2333h-14.023z" fill="#393939" stroke="#333" stroke-width=".26458"/><g fill="#c9c9c9" style="font-variant-caps:normal;font-variant-ligatures:normal;font-variant-numeric:normal" aria-label="1"><path d="m82.61 92.18h-0.26272v-1.7416l-0.52686 0.19351v-0.2373l0.74862-0.28109h0.04096z" fill="#c9c9c9" stroke-width=".26458"/></g><g fill="#888" stroke-width=".26458" style="font-variant-caps:normal;font-variant-ligatures:normal;font-variant-numeric:normal" aria-label="xyz:"><path d="m58.534 108.99 0.339-0.55794h0.3051l-0.50002 0.75569 0.51556 0.77263h-0.30227l-0.35312-0.57206-0.35312 0.57206h-0.30368l0.51556-0.77263-0.50002-0.75569h0.30227z"/><path d="m59.955 109.58 0.35595-1.1455h0.27967l-0.61443 1.7642q-0.14266 0.38138-0.45341 0.38138l-0.04944-4e-3 -0.09746-0.0184v-0.21188l0.07062 6e-3q0.13277 0 0.20622-0.0537 0.07486-0.0537 0.12289-0.19634l0.05791-0.15537-0.54522-1.5114h0.28532z"/><path d="m61.07 109.75h0.89411v0.21329h-1.2133v-0.1921l0.84326-1.1201h-0.83054v-0.21611h1.1582v0.18504z"/><path d="m62.249 109.82q0-0.0678 0.03955-0.113 0.04096-0.0452 0.12148-0.0452 0.08051 0 0.12147 0.0452 0.04237 0.0452 0.04237 0.113 0 0.065-0.04237 0.10876-0.04096 0.0438-0.12147 0.0438-0.08051 0-0.12148-0.0438-0.03955-0.0438-0.03955-0.10876zm0.0014-1.2472q0-0.0678 0.03955-0.113 0.04096-0.0452 0.12147-0.0452 0.08051 0 0.12147 0.0452 0.04237 0.0452 0.04237 0.113 0 0.065-0.04237 0.10876-0.04096 0.0438-0.12147 0.0438-0.08051 0-0.12147-0.0438-0.03955-0.0438-0.03955-0.10876z"/></g><path d="m64.019 106.93h9.2604v4.2333h-9.2604z" fill="#393939" stroke="#333" stroke-width=".26458"/><g fill="#c9c9c9" style="font-variant-caps:normal;font-variant-ligatures:normal;font-variant-numeric:normal" aria-label="0"><path d="m66.427 109.03q0 0.45906-0.15679 0.68223t-0.49013 0.22317q-0.32911 0-0.48731-0.21752-0.1582-0.21894-0.16385-0.65257v-0.34889q0-0.45341 0.15679-0.67375 0.15679-0.22035 0.49155-0.22035 0.33194 0 0.48872 0.21328 0.15679 0.21188 0.16102 0.6554zm-0.26131-0.35736q0-0.33194-0.09323-0.48307-0.09322-0.15255-0.29521-0.15255-0.20057 0-0.29239 0.15113-0.09181 0.15114-0.09464 0.46471v0.4181q0 0.33335 0.09605 0.49296 0.09746 0.1582 0.2938 0.1582 0.19351 0 0.28674-0.14973 0.09464-0.14972 0.09888-0.47177z" fill="#c9c9c9" stroke-width=".26458"/></g><path d="m74.603 106.93h9.525v4.2333h-9.525z" fill="#393939" stroke="#333" stroke-width=".26458"/><g fill="#c9c9c9" style="font-variant-caps:normal;font-variant-ligatures:normal;font-variant-numeric:normal" aria-label="0"><path d="m77.01 109.03q0 0.45906-0.15679 0.68223-0.15679 0.22317-0.49013 0.22317-0.32911 0-0.48731-0.21752-0.1582-0.21894-0.16385-0.65257v-0.34889q0-0.45341 0.15679-0.67375 0.15679-0.22035 0.49155-0.22035 0.33194 0 0.48872 0.21328 0.15679 0.21188 0.16102 0.6554zm-0.26131-0.35736q0-0.33194-0.09322-0.48308-0.09323-0.15254-0.29521-0.15254-0.20057 0-0.29238 0.15113-0.09181 0.15114-0.09464 0.46471v0.4181q0 0.33335 0.09605 0.49296 0.09746 0.1582 0.2938 0.1582 0.19351 0 0.28674-0.14973 0.09464-0.14972 0.09887-0.47177z" fill="#c9c9c9" stroke-width=".26458"/></g><path d="m85.451 106.93h9.2604v4.2333h-9.2604z" fill="#393939" stroke="#333" stroke-width=".26458"/><g fill="#c9c9c9" style="font-variant-caps:normal;font-variant-ligatures:normal;font-variant-numeric:normal" aria-label="0"><path d="m87.858 109.03q0 0.45906-0.15679 0.68223-0.15679 0.22317-0.49013 0.22317-0.32911 0-0.48731-0.21752-0.1582-0.21894-0.16385-0.65257v-0.34889q0-0.45341 0.15679-0.67375 0.15679-0.22035 0.49155-0.22035 0.33194 0 0.48872 0.21328 0.15679 0.21188 0.16102 0.6554zm-0.26131-0.35736q0-0.33194-0.09322-0.48307-0.09322-0.15255-0.29521-0.15255-0.20057 0-0.29239 0.15113-0.09181 0.15114-0.09464 0.46471v0.4181q0 0.33335 0.09605 0.49296 0.09746 0.1582 0.2938 0.1582 0.19351 0 0.28674-0.14973 0.09464-0.14972 0.09887-0.47177z" fill="#c9c9c9" stroke-width=".26458"/></g><path d="m57.934 100.31h36.777v5.2917h-36.777z" fill="#3b3b3b" stroke="#333" stroke-width=".26458"/><g fill="#888" stroke-width=".26458" style="font-variant-caps:normal;font-variant-ligatures:normal;font-variant-numeric:normal" aria-label="light:"><path d="m59.344 103.82h-0.26131v-2.1696h0.26131z"/><path d="m60.046 103.82h-0.26131v-1.5283h0.26131zm-0.2825-1.9337q0-0.0636 0.03814-0.10735 0.03955-0.0438 0.11582-0.0438 0.07628 0 0.11582 0.0438 0.03955 0.0438 0.03955 0.10735 0 0.0636-0.03955 0.10594-0.03955 0.0424-0.11582 0.0424-0.07627 0-0.11582-0.0424-0.03814-0.0424-0.03814-0.10594z"/><path d="m60.402 103.05q0-0.35736 0.16526-0.56782 0.16526-0.21188 0.43787-0.21188 0.27967 0 0.43646 0.19775l0.01271-0.1695h0.23871v1.4916q0 0.29663-0.17656 0.46754-0.17515 0.17091-0.47177 0.17091-0.16526 0-0.32346-0.0706t-0.24154-0.19351l0.1356-0.15678q0.16809 0.20763 0.41103 0.20763 0.19069 0 0.29662-0.10735 0.10735-0.10735 0.10735-0.30227v-0.13136q-0.15679 0.1808-0.42798 0.1808-0.26837 0-0.43505-0.21611-0.16526-0.21611-0.16526-0.58901zm0.26272 0.0297q0 0.25849 0.10594 0.4068 0.10594 0.1469 0.29662 0.1469 0.24719 0 0.36301-0.22459v-0.69777q-0.12006-0.21894-0.36018-0.21894-0.19069 0-0.29804 0.14832-0.10735 0.14831-0.10735 0.43928z"/><path d="m62.348 102.48q0.17374-0.21329 0.452-0.21329 0.48448 0 0.48872 0.54664v1.0099h-0.26131v-1.0113q-0.0014-0.16527-0.07627-0.24437-0.07345-0.0791-0.23024-0.0791-0.12712 0-0.22317 0.0678-0.09605 0.0678-0.14972 0.17798v1.089h-0.26131v-2.1696h0.26131z"/><path d="m64.035 101.92v0.37007h0.28532v0.20199h-0.28532v0.94778q0 0.0918 0.03814 0.13842 0.03814 0.0452 0.12995 0.0452 0.0452 0 0.1243-0.0169v0.21188q-0.10311 0.0282-0.20057 0.0282-0.17515 0-0.26414-0.10594-0.08899-0.10594-0.08899-0.30086v-0.94778h-0.27826v-0.20199h0.27826v-0.37007z"/><path d="m64.617 103.69q0-0.0678 0.03955-0.113 0.04096-0.0452 0.12147-0.0452 0.08051 0 0.12148 0.0452 0.04237 0.0452 0.04237 0.113 0 0.065-0.04237 0.10876-0.04096 0.0438-0.12148 0.0438-0.08051 0-0.12147-0.0438-0.03955-0.0438-0.03955-0.10876zm0.0014-1.2472q0-0.0678 0.03955-0.113 0.04096-0.0452 0.12147-0.0452 0.08051 0 0.12147 0.0452 0.04237 0.0452 0.04237 0.113 0 0.065-0.04237 0.10876-0.04096 0.0438-0.12147 0.0438-0.08051 0-0.12147-0.0438-0.03955-0.0438-0.03955-0.10876z"/></g><g fill="#ddd" stroke-width=".26458" style="font-variant-caps:normal;font-variant-ligatures:normal;font-variant-numeric:normal" aria-label="Point light"><path d="m66.411 103.02v0.80512h-0.2712v-2.0566h0.75851q0.33758 0 0.52827 0.17232 0.1921 0.17233 0.1921 0.45624 0 0.29944-0.18786 0.46188-0.18645 0.16102-0.53533 0.16102zm0-0.22176h0.48731q0.21752 0 0.33335-0.1017 0.11582-0.10311 0.11582-0.29662 0-0.18362-0.11582-0.2938-0.11582-0.11017-0.31781-0.11441h-0.50285z"/><path d="m67.837 103.05q0-0.22458 0.08758-0.40397 0.08899-0.17939 0.24577-0.27685 0.1582-0.0975 0.36018-0.0975 0.31216 0 0.50426 0.21611 0.19351 0.21611 0.19351 0.57488v0.0184q0 0.22317-0.08616 0.40114-0.08475 0.17656-0.24436 0.27544-0.1582 0.0989-0.36442 0.0989-0.31075 0-0.50426-0.21611-0.1921-0.21611-0.1921-0.57206zm0.26272 0.0311q0 0.25424 0.11724 0.40821 0.11865 0.15396 0.3164 0.15396 0.19916 0 0.3164-0.15538 0.11724-0.15678 0.11724-0.43787 0-0.25142-0.12006-0.4068-0.11865-0.15678-0.3164-0.15678-0.19351 0-0.31216 0.15396-0.11865 0.15396-0.11865 0.4407z"/><path d="m69.839 103.83h-0.26131v-1.5283h0.26131zm-0.2825-1.9337q0-0.0636 0.03814-0.10734 0.03955-0.0438 0.11582-0.0438 0.07627 0 0.11582 0.0438 0.03955 0.0438 0.03955 0.10734 0 0.0636-0.03955 0.10594-0.03955 0.0424-0.11582 0.0424-0.07628 0-0.11582-0.0424-0.03814-0.0424-0.03814-0.10594z"/><path d="m70.505 102.3 0.0085 0.1921q0.17515-0.22035 0.45765-0.22035 0.48448 0 0.48872 0.54663v1.0099h-0.26131v-1.0113q-0.0014-0.16526-0.07627-0.24436-0.07345-0.0791-0.23024-0.0791-0.12712 0-0.22317 0.0678t-0.14972 0.17797v1.089h-0.26131v-1.5283z"/><path d="m72.208 101.93v0.37007h0.28532v0.20199h-0.28532v0.94778q0 0.0918 0.03814 0.13842 0.03814 0.0452 0.12995 0.0452 0.0452 0 0.1243-0.017v0.21187q-0.10311 0.0282-0.20057 0.0282-0.17515 0-0.26414-0.10593-0.08899-0.10594-0.08899-0.30086v-0.94778h-0.27826v-0.20199h0.27826v-0.37007z"/><path d="m73.799 103.83h-0.26131v-2.1696h0.26131z"/><path d="m74.501 103.83h-0.26131v-1.5283h0.26131zm-0.2825-1.9337q0-0.0636 0.03814-0.10734 0.03955-0.0438 0.11582-0.0438 0.07627 0 0.11582 0.0438 0.03955 0.0438 0.03955 0.10734 0 0.0636-0.03955 0.10594-0.03955 0.0424-0.11582 0.0424-0.07627 0-0.11582-0.0424-0.03814-0.0424-0.03814-0.10594z"/><path d="m74.857 103.05q0-0.35736 0.16526-0.56782 0.16526-0.21187 0.43787-0.21187 0.27967 0 0.43646 0.19775l0.01271-0.1695h0.23871v1.4916q0 0.29662-0.17656 0.46753-0.17515 0.17091-0.47177 0.17091-0.16526 0-0.32346-0.0706t-0.24154-0.19351l0.1356-0.15679q0.16809 0.20764 0.41104 0.20764 0.19069 0 0.29662-0.10735 0.10735-0.10735 0.10735-0.30227v-0.13137q-0.15679 0.1808-0.42798 0.1808-0.26837 0-0.43505-0.21611-0.16526-0.21611-0.16526-0.58901zm0.26272 0.0297q0 0.25848 0.10594 0.40679 0.10594 0.1469 0.29662 0.1469 0.24719 0 0.36301-0.22458v-0.69777q-0.12006-0.21894-0.36018-0.21894-0.19069 0-0.29804 0.14831-0.10735 0.14831-0.10735 0.43929z"/><path d="m76.803 102.48q0.17374-0.21329 0.452-0.21329 0.48448 0 0.48872 0.54663v1.0099h-0.26131v-1.0113q-0.0014-0.16526-0.07627-0.24436-0.07345-0.0791-0.23024-0.0791-0.12712 0-0.22317 0.0678-0.09605 0.0678-0.14972 0.17797v1.089h-0.26131v-2.1696h0.26131z"/><path d="m78.49 101.93v0.37007h0.28532v0.20199h-0.28532v0.94778q0 0.0918 0.03814 0.13842 0.03814 0.0452 0.12995 0.0452 0.0452 0 0.1243-0.017v0.21187q-0.10311 0.0282-0.20057 0.0282-0.17515 0-0.26414-0.10593-0.08899-0.10594-0.08899-0.30086v-0.94778h-0.27826v-0.20199h0.27826v-0.37007z"/></g></g><path d="m91.139 102.3 1.0583 1.3229 1.0583-1.3229" fill="none" stroke="#aaa" stroke-width=".3175"/><g><path d="m60.181 90.788h18.653c0.29316 0 0.52917 0.23601 0.52917 0.52917v0.26458c0 0.29316-0.23601 0.52917-0.52917 0.52917h-18.653c-0.29316 0-0.52917-0.23601-0.52917-0.52917v-0.26458c0-0.29316 0.23601-0.52917 0.52917-0.52917z" fill="#4d4d4d" stroke="#333" stroke-width=".26458"/><path d="m60.842 91.449a1.4552 1.4552 0 0 1-1.4552 1.4552 1.4552 1.4552 0 0 1-1.4552-1.4552 1.4552 1.4552 0 0 1 1.4552-1.4552 1.4552 1.4552 0 0 1 1.4552 1.4552" fill="#595959" stroke="#333" stroke-width=".26458"/><g fill="#888" stroke-width=".26458" style="font-variant-caps:normal;font-variant-ligatures:normal;font-variant-numeric:normal" aria-label="kernel unit:"><path d="m58.449 97.047-0.16385 0.17091v0.53675h-0.26131v-2.1696h0.26131v1.3122l0.13984-0.16809 0.47601-0.50285h0.31781l-0.59466 0.63845 0.66387 0.88987h-0.30651z"/><path d="m60.095 97.783q-0.31075 0-0.50567-0.2034-0.19492-0.20481-0.19492-0.54663v-0.04802q0-0.22741 0.08616-0.40538 0.08758-0.17939 0.24295-0.27967 0.15679-0.1017 0.339-0.1017 0.29804 0 0.4633 0.19634t0.16526 0.56217v0.10876h-1.0354q0.0056 0.226 0.13136 0.36584 0.12712 0.13842 0.32205 0.13842 0.13842 0 0.23447-0.0565t0.16809-0.14972l0.15961 0.1243q-0.1921 0.29521-0.5763 0.29521zm-0.032487-1.3701q-0.1582 0-0.26555 0.11582-0.10735 0.11441-0.13277 0.32205h0.76557v-0.01977q-0.0113-0.19916-0.10735-0.30792-0.096049-0.11018-0.2599-0.11018z"/><path d="m61.732 96.461q-0.05933-0.0099-0.12854-0.0099-0.25707 0-0.34888 0.21894v1.0848h-0.26131v-1.5283h0.25425l0.0042 0.17656q0.12854-0.20481 0.36442-0.20481 0.07627 0 0.11582 0.01977z"/><path d="m62.219 96.227 0.0085 0.1921q0.17515-0.22035 0.45765-0.22035 0.48448 0 0.48872 0.54663v1.0099h-0.26131v-1.0113q-0.0014-0.16526-0.07627-0.24436-0.07345-0.0791-0.23024-0.0791-0.12712 0-0.22317 0.0678-0.09605 0.0678-0.14972 0.17797v1.089h-0.26131v-1.5283z"/><path d="m64.202 97.783q-0.31075 0-0.50567-0.2034-0.19492-0.20481-0.19492-0.54663v-0.04802q0-0.22741 0.08616-0.40538 0.08757-0.17939 0.24295-0.27967 0.15679-0.1017 0.339-0.1017 0.29804 0 0.4633 0.19634 0.16526 0.19634 0.16526 0.56217v0.10876h-1.0354q0.0057 0.226 0.13136 0.36584 0.12712 0.13842 0.32205 0.13842 0.13842 0 0.23447-0.0565 0.09605-0.0565 0.16809-0.14972l0.15961 0.1243q-0.1921 0.29521-0.5763 0.29521zm-0.032487-1.3701q-0.1582 0-0.26555 0.11582-0.10735 0.11441-0.13277 0.32205h0.76557v-0.01977q-0.0113-0.19917-0.10735-0.30793-0.096049-0.11017-0.2599-0.11017z"/><path d="m65.385 97.755h-0.26131v-2.1696h0.26131z"/><path d="m67.462 97.604q-0.15255 0.17939-0.44776 0.17939-0.24436 0-0.3729-0.14125-0.12712-0.14266-0.12854-0.42092v-0.99439h0.26131v0.98733q0 0.34747 0.2825 0.34747 0.29945 0 0.39832-0.22317v-1.1116h0.26131v1.5283h-0.2486z"/><path d="m68.361 96.227 0.0085 0.1921q0.17515-0.22035 0.45765-0.22035 0.48448 0 0.48872 0.54663v1.0099h-0.26134v-1.0113q-0.0014-0.16526-0.07627-0.24436-0.07345-0.0791-0.23024-0.0791-0.12712 0-0.22317 0.0678-0.09605 0.0678-0.14972 0.17797v1.089h-0.26131v-1.5283z"/><path d="m69.994 97.755h-0.26131v-1.5283h0.26131zm-0.2825-1.9337q0-0.06356 0.03814-0.10735 0.03955-0.04379 0.11582-0.04379 0.07627 0 0.11582 0.04379 0.03955 0.04379 0.03955 0.10735t-0.03955 0.10594q-0.03955 0.04237-0.11582 0.04237-0.07627 0-0.11582-0.04237-0.03814-0.04238-0.03814-0.10594z"/><path d="m70.766 95.857v0.37007h0.28532v0.20199h-0.28532v0.94778q0 0.09181 0.03814 0.13842 0.03814 0.0452 0.12995 0.0452 0.0452 0 0.1243-0.01695v0.21187q-0.10311 0.02825-0.20057 0.02825-0.17515 0-0.26414-0.10594-0.08899-0.10594-0.08899-0.30086v-0.94778h-0.27826v-0.20199h0.27826v-0.37007z"/><path d="m71.348 97.618q0-0.0678 0.03955-0.113 0.04096-0.0452 0.12147-0.0452 0.08051 0 0.12147 0.0452 0.04237 0.0452 0.04237 0.113 0 0.06498-0.04237 0.10876-0.04096 0.04379-0.12147 0.04379-0.08051 0-0.12147-0.04379-0.03955-0.04379-0.03955-0.10876zm0.0014-1.2472q0-0.0678 0.03955-0.113 0.04096-0.0452 0.12147-0.0452 0.08051 0 0.12147 0.0452 0.04237 0.0452 0.04237 0.113 0 0.06498-0.04237 0.10876-0.04096 0.04379-0.12147 0.04379-0.08051 0-0.12147-0.04379-0.03955-0.04379-0.03955-0.10876z"/></g><path d="m73.013 94.757h10.319v4.2333h-10.319z" fill="#393939" stroke="#333" stroke-width=".26458"/><g fill="#c9c9c9" style="font-variant-caps:normal;font-variant-ligatures:normal;font-variant-numeric:normal" aria-label="1"><path d="m74.99 97.736h-0.26272v-1.7416l-0.52686 0.19351v-0.2373l0.74862-0.28108h0.04096z" fill="#c9c9c9" stroke-width=".26458"/></g><path d="m84.655 94.757h10.054v4.2333h-10.054z" fill="#393939" stroke="#333" stroke-width=".26458"/><g fill="#c9c9c9" style="font-variant-caps:normal;font-variant-ligatures:normal;font-variant-numeric:normal" aria-label="1"><path d="m86.367 97.719h-0.26272v-1.7416l-0.52686 0.19351v-0.2373l0.74862-0.28109h0.04096z" fill="#c9c9c9" stroke-width=".26458"/></g></g></g></g></svg>
